<mxfile host="Electron" agent="Mozilla/5.0 (Windows NT 10.0; Win64; x64) AppleWebKit/537.36 (KHTML, like Gecko) draw.io/26.1.1 Chrome/132.0.6834.210 Electron/34.3.3 Safari/537.36" version="26.1.1">
  <diagram name="Page-1" id="kY0eI7FJQRz3lGWmnV-w">
    <mxGraphModel dx="1434" dy="844" grid="1" gridSize="10" guides="1" tooltips="1" connect="1" arrows="1" fold="1" page="1" pageScale="1" pageWidth="1600" pageHeight="1200" math="0" shadow="0">
      <root>
        <mxCell id="0" />
        <mxCell id="1" parent="0" />
        <mxCell id="3O9UnYC8DA_yqsF1L3dK-1" value="" style="rounded=0;whiteSpace=wrap;html=1;fillStyle=dots;strokeColor=light-dark(#000000,#EDEDED);" parent="1" vertex="1">
          <mxGeometry x="80" y="190" width="160" height="570" as="geometry" />
        </mxCell>
        <mxCell id="3O9UnYC8DA_yqsF1L3dK-2" value="&lt;font style=&quot;font-size: 24px;&quot;&gt;Source&lt;/font&gt;" style="rounded=0;whiteSpace=wrap;html=1;strokeColor=none;" parent="1" vertex="1">
          <mxGeometry x="100" y="170" width="120" height="40" as="geometry" />
        </mxCell>
        <mxCell id="3O9UnYC8DA_yqsF1L3dK-3" value="" style="rounded=0;whiteSpace=wrap;html=1;fillStyle=dots;dashed=1;strokeColor=light-dark(#363535, #ededed);" parent="1" vertex="1">
          <mxGeometry x="300" y="190" width="770" height="570" as="geometry" />
        </mxCell>
        <mxCell id="3O9UnYC8DA_yqsF1L3dK-4" value="&lt;div&gt;&lt;font style=&quot;font-size: 24px;&quot;&gt;Data Warehouse&lt;/font&gt;&lt;/div&gt;" style="rounded=0;whiteSpace=wrap;html=1;strokeColor=none;" parent="1" vertex="1">
          <mxGeometry x="570" y="170" width="220" height="40" as="geometry" />
        </mxCell>
        <mxCell id="3O9UnYC8DA_yqsF1L3dK-5" value="" style="rounded=0;whiteSpace=wrap;html=1;fillStyle=dots;strokeColor=light-dark(#363535, #ededed);" parent="1" vertex="1">
          <mxGeometry x="1120" y="190" width="160" height="570" as="geometry" />
        </mxCell>
        <mxCell id="3O9UnYC8DA_yqsF1L3dK-6" value="&lt;font style=&quot;font-size: 24px;&quot;&gt;Consume&lt;/font&gt;" style="rounded=0;whiteSpace=wrap;html=1;strokeColor=none;" parent="1" vertex="1">
          <mxGeometry x="1140" y="170" width="120" height="40" as="geometry" />
        </mxCell>
        <mxCell id="3O9UnYC8DA_yqsF1L3dK-7" value="&lt;font style=&quot;font-size: 20px;&quot;&gt;Bronze Layer&lt;/font&gt;" style="rounded=0;whiteSpace=wrap;html=1;fillColor=#f8cecc;strokeColor=#b85450;" parent="1" vertex="1">
          <mxGeometry x="330" y="220" width="180" height="30" as="geometry" />
        </mxCell>
        <mxCell id="3O9UnYC8DA_yqsF1L3dK-8" value="" style="rounded=0;whiteSpace=wrap;html=1;fillColor=none;strokeColor=#b85450;gradientColor=default;" parent="1" vertex="1">
          <mxGeometry x="330" y="260" width="180" height="480" as="geometry" />
        </mxCell>
        <mxCell id="3O9UnYC8DA_yqsF1L3dK-9" value="" style="rounded=0;whiteSpace=wrap;html=1;fillColor=none;strokeColor=#CCCCCC;gradientColor=default;" parent="1" vertex="1">
          <mxGeometry x="595" y="260" width="180" height="480" as="geometry" />
        </mxCell>
        <mxCell id="3O9UnYC8DA_yqsF1L3dK-10" value="&lt;font style=&quot;font-size: 20px;&quot;&gt;Silver Layer&lt;/font&gt;" style="rounded=0;whiteSpace=wrap;html=1;fillColor=#f5f5f5;strokeColor=#666666;gradientColor=#b3b3b3;" parent="1" vertex="1">
          <mxGeometry x="595" y="220" width="180" height="30" as="geometry" />
        </mxCell>
        <mxCell id="3O9UnYC8DA_yqsF1L3dK-11" value="&lt;font style=&quot;font-size: 20px;&quot;&gt;Gold Layer&lt;/font&gt;" style="rounded=0;whiteSpace=wrap;html=1;fillColor=#fff2cc;strokeColor=#d6b656;dashed=1;gradientColor=#ffd966;" parent="1" vertex="1">
          <mxGeometry x="850" y="220" width="190" height="30" as="geometry" />
        </mxCell>
        <mxCell id="3O9UnYC8DA_yqsF1L3dK-12" value="" style="rounded=0;whiteSpace=wrap;html=1;fillColor=none;strokeColor=light-dark(#f7ec73, #d7817e);gradientColor=default;" parent="1" vertex="1">
          <mxGeometry x="850" y="260" width="190" height="480" as="geometry" />
        </mxCell>
        <mxCell id="eu59SZ70gWTmcf9u2YT1-5" value="&lt;div&gt;&lt;br&gt;&lt;/div&gt;&lt;div&gt;CRM&lt;/div&gt;" style="image;aspect=fixed;html=1;points=[];align=center;fontSize=12;image=img/lib/azure2/general/Folder_Blank.svg;" vertex="1" parent="1">
          <mxGeometry x="135.36" y="280" width="49.29" height="40" as="geometry" />
        </mxCell>
        <mxCell id="eu59SZ70gWTmcf9u2YT1-6" value="" style="verticalLabelPosition=bottom;html=1;verticalAlign=top;align=center;strokeColor=none;fillColor=#00BEF2;shape=mxgraph.azure.file_2;pointerEvents=1;" vertex="1" parent="1">
          <mxGeometry x="170" y="300" width="30" height="40" as="geometry" />
        </mxCell>
        <mxCell id="eu59SZ70gWTmcf9u2YT1-7" value="" style="image;aspect=fixed;html=1;points=[];align=center;fontSize=12;image=img/lib/azure2/general/Folder_Blank.svg;" vertex="1" parent="1">
          <mxGeometry x="135.36" y="420" width="49.29" height="40" as="geometry" />
        </mxCell>
        <mxCell id="eu59SZ70gWTmcf9u2YT1-8" value="" style="verticalLabelPosition=bottom;html=1;verticalAlign=top;align=center;strokeColor=none;fillColor=#00BEF2;shape=mxgraph.azure.file_2;pointerEvents=1;" vertex="1" parent="1">
          <mxGeometry x="170" y="440" width="30" height="40" as="geometry" />
        </mxCell>
        <mxCell id="eu59SZ70gWTmcf9u2YT1-10" value="&lt;br&gt;&lt;div&gt;ERP&lt;/div&gt;" style="text;html=1;align=center;verticalAlign=middle;resizable=0;points=[];autosize=1;strokeColor=none;fillColor=none;" vertex="1" parent="1">
          <mxGeometry x="135" y="453" width="50" height="40" as="geometry" />
        </mxCell>
        <mxCell id="eu59SZ70gWTmcf9u2YT1-14" value="" style="endArrow=none;html=1;rounded=0;" edge="1" parent="1">
          <mxGeometry width="50" height="50" relative="1" as="geometry">
            <mxPoint x="100.00999999999999" y="530" as="sourcePoint" />
            <mxPoint x="220.01" y="530" as="targetPoint" />
            <Array as="points">
              <mxPoint x="150.01" y="530" />
            </Array>
          </mxGeometry>
        </mxCell>
        <mxCell id="eu59SZ70gWTmcf9u2YT1-16" value="&lt;b&gt;Object Type&lt;/b&gt; : CSV Files&lt;div&gt;&lt;br&gt;&lt;div&gt;&lt;b&gt;Interface:&lt;/b&gt; Files in Folder&lt;/div&gt;&lt;/div&gt;" style="text;html=1;align=left;verticalAlign=middle;whiteSpace=wrap;rounded=0;" vertex="1" parent="1">
          <mxGeometry x="100" y="550" width="140" height="30" as="geometry" />
        </mxCell>
        <mxCell id="eu59SZ70gWTmcf9u2YT1-17" value="" style="html=1;verticalLabelPosition=bottom;align=center;labelBackgroundColor=#ffffff;verticalAlign=top;strokeWidth=2;strokeColor=#b85450;shadow=0;dashed=0;shape=mxgraph.ios7.icons.data;fillColor=#f8cecc;" vertex="1" parent="1">
          <mxGeometry x="390" y="300" width="60" height="70" as="geometry" />
        </mxCell>
        <mxCell id="eu59SZ70gWTmcf9u2YT1-18" value="" style="html=1;verticalLabelPosition=bottom;align=center;labelBackgroundColor=#ffffff;verticalAlign=top;strokeWidth=2;strokeColor=#666666;shadow=0;dashed=0;shape=mxgraph.ios7.icons.data;fillColor=#f5f5f5;gradientColor=#b3b3b3;" vertex="1" parent="1">
          <mxGeometry x="655" y="300" width="60" height="70" as="geometry" />
        </mxCell>
        <mxCell id="eu59SZ70gWTmcf9u2YT1-19" value="" style="html=1;verticalLabelPosition=bottom;align=center;labelBackgroundColor=#ffffff;verticalAlign=top;strokeWidth=2;strokeColor=#d6b656;shadow=0;dashed=0;shape=mxgraph.ios7.icons.data;fillColor=#fff2cc;gradientColor=#ffd966;" vertex="1" parent="1">
          <mxGeometry x="915" y="300" width="60" height="70" as="geometry" />
        </mxCell>
        <mxCell id="eu59SZ70gWTmcf9u2YT1-20" value="" style="shape=singleArrow;whiteSpace=wrap;html=1;fillColor=#d5e8d4;gradientColor=#97d077;strokeColor=#82b366;" vertex="1" parent="1">
          <mxGeometry x="230" y="370" width="80" height="30" as="geometry" />
        </mxCell>
        <mxCell id="eu59SZ70gWTmcf9u2YT1-22" value="" style="shape=singleArrow;whiteSpace=wrap;html=1;fillColor=#d5e8d4;gradientColor=#97d077;strokeColor=#82b366;" vertex="1" parent="1">
          <mxGeometry x="530" y="370" width="60" height="30" as="geometry" />
        </mxCell>
        <mxCell id="eu59SZ70gWTmcf9u2YT1-23" value="" style="shape=singleArrow;whiteSpace=wrap;html=1;fillColor=#d5e8d4;gradientColor=#97d077;strokeColor=#82b366;" vertex="1" parent="1">
          <mxGeometry x="780" y="370" width="60" height="30" as="geometry" />
        </mxCell>
        <mxCell id="eu59SZ70gWTmcf9u2YT1-24" value="&lt;font style=&quot;font-size: 13px;&quot;&gt;Raw Data&lt;/font&gt;" style="text;html=1;align=center;verticalAlign=middle;whiteSpace=wrap;rounded=0;" vertex="1" parent="1">
          <mxGeometry x="390" y="380" width="60" height="30" as="geometry" />
        </mxCell>
        <mxCell id="eu59SZ70gWTmcf9u2YT1-25" value="&lt;font style=&quot;font-size: 13px;&quot;&gt;Cleaned, Standardized Data&lt;/font&gt;" style="text;html=1;align=center;verticalAlign=middle;whiteSpace=wrap;rounded=0;" vertex="1" parent="1">
          <mxGeometry x="630" y="390" width="110" height="30" as="geometry" />
        </mxCell>
        <mxCell id="eu59SZ70gWTmcf9u2YT1-26" value="&lt;font style=&quot;font-size: 13px;&quot;&gt;Business-Ready Data&lt;/font&gt;" style="text;html=1;align=center;verticalAlign=middle;whiteSpace=wrap;rounded=0;" vertex="1" parent="1">
          <mxGeometry x="870" y="380" width="150" height="30" as="geometry" />
        </mxCell>
        <mxCell id="eu59SZ70gWTmcf9u2YT1-27" value="" style="endArrow=none;html=1;rounded=0;fillColor=#fad9d5;strokeColor=#ae4132;" edge="1" parent="1">
          <mxGeometry width="50" height="50" relative="1" as="geometry">
            <mxPoint x="350" y="459.5" as="sourcePoint" />
            <mxPoint x="470" y="459.5" as="targetPoint" />
            <Array as="points">
              <mxPoint x="400" y="459.5" />
            </Array>
          </mxGeometry>
        </mxCell>
        <mxCell id="eu59SZ70gWTmcf9u2YT1-28" value="" style="endArrow=none;html=1;rounded=0;fillColor=#f5f5f5;gradientColor=#b3b3b3;strokeColor=#666666;" edge="1" parent="1">
          <mxGeometry width="50" height="50" relative="1" as="geometry">
            <mxPoint x="625" y="460" as="sourcePoint" />
            <mxPoint x="745" y="460" as="targetPoint" />
            <Array as="points">
              <mxPoint x="675" y="460" />
            </Array>
          </mxGeometry>
        </mxCell>
        <mxCell id="eu59SZ70gWTmcf9u2YT1-29" value="" style="endArrow=none;html=1;rounded=0;fillColor=#fff2cc;gradientColor=#ffd966;strokeColor=#d6b656;" edge="1" parent="1">
          <mxGeometry width="50" height="50" relative="1" as="geometry">
            <mxPoint x="870" y="459.5" as="sourcePoint" />
            <mxPoint x="990" y="459.5" as="targetPoint" />
            <Array as="points">
              <mxPoint x="920" y="459.5" />
            </Array>
          </mxGeometry>
        </mxCell>
        <mxCell id="eu59SZ70gWTmcf9u2YT1-30" value="&lt;font&gt;&lt;b style=&quot;&quot;&gt;Object Type : &lt;/b&gt;Table&lt;/font&gt;&lt;div&gt;&lt;b&gt;&lt;font&gt;&lt;br&gt;&lt;/font&gt;&lt;/b&gt;&lt;div&gt;&lt;b&gt;&lt;font&gt;Load:&lt;/font&gt;&lt;/b&gt;&lt;/div&gt;&lt;/div&gt;&lt;div&gt;&lt;b&gt;&lt;font&gt;&lt;span style=&quot;white-space: pre;&quot;&gt;&#x9;&lt;/span&gt;&lt;br&gt;&lt;/font&gt;&lt;/b&gt;&lt;/div&gt;&lt;div&gt;&lt;font&gt;&lt;span style=&quot;font-weight: bold; white-space: pre;&quot;&gt;&#x9;&lt;/span&gt;.Batch Prcessing&lt;br&gt;&lt;/font&gt;&lt;/div&gt;&lt;div&gt;&lt;font&gt;&lt;span style=&quot;white-space: pre;&quot;&gt;&#x9;&lt;/span&gt;.Full Load (Trunc &amp;amp; &lt;span style=&quot;white-space: pre;&quot;&gt;&#x9;&lt;/span&gt;&amp;nbsp;Insert)&lt;br&gt;&lt;/font&gt;&lt;/div&gt;&lt;div&gt;&lt;b&gt;&lt;font&gt;&lt;br&gt;&lt;/font&gt;&lt;/b&gt;&lt;/div&gt;&lt;div&gt;&lt;font&gt;No&lt;b&gt; Transformation&lt;/b&gt;&lt;/font&gt;&lt;/div&gt;&lt;div&gt;&lt;b&gt;&lt;font&gt;&lt;br&gt;&lt;/font&gt;&lt;/b&gt;&lt;/div&gt;&lt;div&gt;&lt;font&gt;&lt;b style=&quot;&quot;&gt;Data Model: &lt;/b&gt;None (As-is)&lt;/font&gt;&lt;/div&gt;" style="text;html=1;align=left;verticalAlign=middle;whiteSpace=wrap;rounded=0;" vertex="1" parent="1">
          <mxGeometry x="335" y="515" width="150" height="100" as="geometry" />
        </mxCell>
        <mxCell id="eu59SZ70gWTmcf9u2YT1-31" value="&lt;b&gt;Object Type : &lt;/b&gt;Table&lt;div&gt;&lt;b&gt;&lt;br&gt;&lt;/b&gt;&lt;div&gt;&lt;b&gt;Load:&lt;/b&gt;&lt;/div&gt;&lt;/div&gt;&lt;div&gt;&lt;b&gt;&lt;span style=&quot;white-space: pre;&quot;&gt;&#x9;&lt;/span&gt;&lt;br&gt;&lt;/b&gt;&lt;/div&gt;&lt;div&gt;&lt;span style=&quot;font-weight: bold; white-space: pre;&quot;&gt;&#x9;&lt;/span&gt;.Batch Prcessing&lt;br&gt;&lt;/div&gt;&lt;div&gt;&lt;span style=&quot;white-space: pre;&quot;&gt;&#x9;&lt;/span&gt;.Full Load (Trunc &amp;amp; &lt;span style=&quot;white-space: pre;&quot;&gt;&#x9;&lt;/span&gt;&amp;nbsp;Insert)&lt;br&gt;&lt;/div&gt;&lt;div&gt;&lt;b&gt;&lt;br&gt;&lt;/b&gt;&lt;/div&gt;&lt;div&gt;&lt;b&gt;Transformation:&lt;/b&gt;&lt;/div&gt;&lt;div&gt;&lt;b&gt;&lt;br&gt;&lt;/b&gt;&lt;/div&gt;&lt;div&gt;&lt;span style=&quot;font-weight: bold; white-space: pre;&quot;&gt;&#x9;&lt;/span&gt;. Data Cleansing&lt;br&gt;&lt;/div&gt;&lt;div&gt;&lt;span style=&quot;white-space: pre;&quot;&gt;&#x9;&lt;/span&gt;. Data Standrzation&lt;br&gt;&lt;/div&gt;&lt;div&gt;&lt;span style=&quot;white-space: pre;&quot;&gt;&#x9;&lt;/span&gt;. Data Normalization&lt;br&gt;&lt;/div&gt;&lt;div&gt;&lt;span style=&quot;white-space: pre;&quot;&gt;&#x9;&lt;/span&gt;. Derived Columns&lt;br&gt;&lt;/div&gt;&lt;div&gt;&lt;span style=&quot;white-space: pre;&quot;&gt;&#x9;&lt;/span&gt;. Data Enrhment&lt;br&gt;&lt;/div&gt;&lt;div&gt;&lt;b&gt;&lt;br&gt;&lt;/b&gt;&lt;/div&gt;&lt;div&gt;&lt;b&gt;Data Model: &lt;/b&gt;None (As-is)&lt;/div&gt;" style="text;html=1;align=left;verticalAlign=middle;whiteSpace=wrap;rounded=0;" vertex="1" parent="1">
          <mxGeometry x="610" y="520" width="150" height="170" as="geometry" />
        </mxCell>
        <mxCell id="eu59SZ70gWTmcf9u2YT1-34" value="&lt;b&gt;Object Type : &lt;/b&gt;Views&lt;div&gt;&lt;b&gt;&lt;br&gt;&lt;/b&gt;&lt;div&gt;&lt;b&gt;No Load&lt;/b&gt;&lt;/div&gt;&lt;/div&gt;&lt;div&gt;&lt;b&gt;&lt;span style=&quot;white-space: pre;&quot;&gt;&#x9;&lt;/span&gt;&lt;/b&gt;&lt;/div&gt;&lt;div&gt;&lt;b&gt;Transformation:&lt;/b&gt;&lt;/div&gt;&lt;div&gt;&lt;b&gt;&lt;br&gt;&lt;/b&gt;&lt;/div&gt;&lt;div&gt;&lt;span style=&quot;font-weight: bold; white-space: pre;&quot;&gt;&#x9;&lt;/span&gt;. Data Integration&lt;br&gt;&lt;/div&gt;&lt;div&gt;&lt;span style=&quot;white-space: pre;&quot;&gt;&#x9;&lt;/span&gt;. Aggregations&lt;br&gt;&lt;/div&gt;&lt;div&gt;&lt;span style=&quot;white-space: pre;&quot;&gt;&#x9;&lt;/span&gt;. Business Logics&lt;br&gt;&lt;/div&gt;&lt;div&gt;&lt;b&gt;&lt;span style=&quot;white-space: pre;&quot;&gt;&#x9;&lt;/span&gt;&lt;/b&gt;&lt;/div&gt;&lt;div&gt;&lt;br&gt;&lt;/div&gt;&lt;div&gt;&lt;b&gt;Data Model:&lt;/b&gt;&lt;/div&gt;&lt;div&gt;&lt;b&gt;&lt;br&gt;&lt;/b&gt;&lt;/div&gt;&lt;div&gt;&lt;span style=&quot;font-weight: bold; white-space: pre;&quot;&gt;&#x9;&lt;/span&gt;. Star Schema&lt;br&gt;&lt;/div&gt;&lt;div&gt;&lt;span style=&quot;white-space: pre;&quot;&gt;&#x9;&lt;/span&gt;. Flat Table&lt;br&gt;&lt;/div&gt;&lt;div&gt;&lt;span style=&quot;white-space: pre;&quot;&gt;&#x9;&lt;/span&gt;. Aggregated Table&lt;br&gt;&lt;/div&gt;" style="text;html=1;align=left;verticalAlign=middle;whiteSpace=wrap;rounded=0;" vertex="1" parent="1">
          <mxGeometry x="860" y="515" width="150" height="170" as="geometry" />
        </mxCell>
        <mxCell id="eu59SZ70gWTmcf9u2YT1-35" value="" style="shape=singleArrow;whiteSpace=wrap;html=1;fillColor=#d5e8d4;gradientColor=#97d077;strokeColor=#82b366;" vertex="1" parent="1">
          <mxGeometry x="1070" y="370" width="60" height="30" as="geometry" />
        </mxCell>
        <mxCell id="eu59SZ70gWTmcf9u2YT1-39" value="" style="shape=image;verticalLabelPosition=bottom;labelBackgroundColor=default;verticalAlign=top;aspect=fixed;imageAspect=0;image=data:image/png,iVBORw0KGgoAAAANSUhEUgAAAgAAAAIACAYAAAD0eNT6AAAABHNCSVQICAgIfAhkiAAAAAlwSFlzAAAOxAAADsQBlSsOGwAAABl0RVh0U29mdHdhcmUAd3d3Lmlua3NjYXBlLm9yZ5vuPBoAACAASURBVHic7N15YFTV2Qbw5zl3JgnIFggJq+wgRFBkTcgyQAg7shh3bV2pba12tf2qLa1dbGs3bbXWutQVCYKAskMCJOybQgANi4iKohRBhSwz9/3+mCUzk5mQhISwvL+W5M6de889d9rMee9ZAaWUUkoppZRSSimllFJKKaWUUkoppZRSSimllFJKKaWUUkoppZRSSimllFJKKaWUUkoppZRSSimllFJKKaWUUkoppZRSSimllFJKKaWUUkoppZRSSimllFJKKaWUUkoppZRSSimllFJKKaWUUkoppZRSSimllFJKKaWUUkoppZRSSimllFJKKaWUUkoppZRSSimllFJKKaWUUkoppZRSSimllFJKKaWUUkoppZRSSimllFJKKaWUUkoppZRSSimllFJKKaWUUkoppZRSSimllFJKKaWUUkoppZRSSimllFJKKaWUUkopdZ44dOhQo08//fSeL774Ir6h86KUqszR0BlQSl1YPv744wSPyB0WeZ9tS9vS0tKvALzY0PlSSoXSAEApVSfef//9LqR1v8fjuZM0jQUAKRDhFGgAoNQ5hw2dAaXU+a24uPgqy3LebwxuIOkgDWgIQ4I0MIanALRu06bN1w2dV6VUBa0BUErVmIiwuLh4JMn7SDNBYEPEAPA+9UMIIUAIRNjIGI4GMKdhc62UCqYBgFKq2oqKimJIXv/ee+/9BGAy6KtGFEAoIAiRiEHAFGgAoNQ5RZsAlFKnVVxc3KykpOQ2GvMjQ9OBpK+aP7S6P9q2MTx+9GhSYnIyyxr6XpRSXloDoJSKauvWrZ0sy7r/5KlTdxqaJsFP+oFtIfwd/oKf+sNqAJq3bv1ZFoCFDX1PSikvDQCUUpVs2LC9p8Ph+RnAm2yB0wAQCECCkYIAX9U/KIDNTWJkISm/gJD+IMC25WZoAKDUOUObAJRSARs3bkwW4QPG8AYaOgwNQqr7w7aNCVT37zJkLoBXunXr9h4AHDp0qJBkKiuOPWlZVpvWrVt/2cC3qZSC1gAopQCsX7++n23jR7YtN5KwBBVP+kC0p37ssm3mGmPP7Nm9154Iyc4UQSq8x0KEjW3bngLghbN7d0qpSLQGQKmLWH5+YYpx4EFDjjUkaYyv4x4RcdvwS8uYl0XkX5dffvnbVaV94MCBNg6H40PSWEEdApe2aZM0+mzdn1IqOg0AlLoIrVq1qq8IH6JhToRC3ttzP6i63xjugTHPG+Df/fr1O1bd6xw6dGg5yZFBowJsh8NxaUJCwkf1eX9KqdPTJgClLiIrV65MFsGvPbZMIf0d9+kbyy/ebQEAgZAlBsgl8a8rr7xybS0v+aoIRnovBAhoPB7PdQD+Ulf3pJSqHa0BUOoisHDhim6WQ2YY8kYaGuN74id9VfOh20cMzd8B+6khQ4YcPZPr7vnss6aXlJR8RJqmQc0AO9u0SepbV/emlKodDQCUuoAtXLiwg9D6sUVMpzGxwQV+hKr/9w2tv8XEOJ4eOHDgybrKwwcfHPqHMfxO6ORAHJaUlFTbWgWlVB3QJgClLkALFy5s5rbxf7bgPgOJ81bte8fxe4fre6v7AcBADgL4dXlZ+QvDhw9313VeROwnRKxvk96ZgbyTBmE6AA0AlGpAWgOg1AVk1qxZVmxso7tA/MrQJHo79EWdsvcwLfPbxISEp5OTk+t1it5Dhw6tJM3woDyciouLbd+iRYtqdyhUStUt09AZUErVjdmz3xjtcMS8bYv9JASJAoF3ej7fLH4iEO/2KYj9cHl5WY/hmZn/rO/C3+efvl6A8OWoUVlZ2S1n4bpKqSi0BkCp89zs2bOTRfgoDcf4n/SjPPULwZmWxZ+OGjXqg7OZRxGxPvzww3eMMX2CaiCKkpKSLj+b+VBKVdAAQKnz1HPPzW3RqFHZb2nM3aRxmLCCP2z7PcvwW2PGjMlrqPweOnRoKmle9+fTt0pgemJiYkFD5Umpi5k2ASh1HnrllVduiI0r3S3AtyFwAAIRfxV7SNV/GQQPN24Ud0VDFv4A0KFDh7mAbJKKZgCI4P6GzJNSFzOtAVDqPPLsyy93ddryTxozxvcEXdVTv3/7sGVYIMYUOsiC7OzsraR3up+z7YMPPs62LFkS1AzgAdArKSlpX0PkR6mLmQYASp0HnnrqKWdcXOMfg3iQNI2iTdlbRRAQvH3EMtwo5CaHMZvLy8s3jx49+sjZupePPvpoMcnRQasEPpaYmHjf2bq+UspLAwClznHPPPNMGo31L5LJp3/qNzDkcRo2P11AEDwk0DL8AOTbNKbIIneQ3HX8+PHd48aNK63r+zl48GBXh8O5g4aNfXn4KibG2TE+Pv6Lur6WUio6DQCUOkf95S+zGjVt+uUjNLyXNAx56q/6Sf9tiOMm45R0IxxtLDOSZNPTTP8bPkcAaIybNAcNsRfG2mdR9hpj9oo4PgLKD+/fv//Itdde66nNvX388cffA/h3/7UA64GkpIQ/1vFHqJSqggYASp2DnnzyP/2NZb9EWn181eQh1f1B22WkiakcEOCFaVOnfgMAnnpqs7Nt2yOplsXRJEbTmP4kGT0IiDpVsDf9im2b5BEafkqYj4zBEdL6iDSfGiNHHA7HlyJyCsAJkl+KxJ1yOt1fXXrppScA2IcPH55Lmqt9QcCHrVu37kqyvGE/eaUuHhoAKHUOmTVrlnX06LEfg/gVaWIqP/UHCuPFhviNMSYWNEtJY4Ufa2junzLl6r+HX2PJkiWJts1sY5nRhhhOY9pXXStQ9VLBrGLbn+cIsxCWkqbcGDbxDwm0LPPNhISE/zbE567UxUgDAKXOEX/965OdY2LkBdCkV/HU/xksfuu2W2+d4z/v1Vdf+yWIGRGaBDykdc2UKRPfqOq6eXl5nT0epFmWGUYijcb0IStWDDxdrUAdBQQgTXHr1gm96R0ZoJSqZxoAKHUO+NvfHrvVWNbjJJsFCslKQYDZTNhTb7/99kPB586YMcP06NVnqWUwMkIQcBIww6dMmbixunlZs2ZNvIik0pg0Q6bRmIGkiatcyFermSB6EBAhIDDG3JKQkPBS3X/CSqlwGgAo1YBmzHgurnnzE/+iMd/wFogROul5C/PCRnGx426++eYTkdJ55ZVXkmg5NhuyQ4Qg4KjDYVwTJkzYWZs8Lly4MDY+Pn6gMY5UEgNo2J803Y23Z2LVBX7kJ/2qagX2JCQkXK61AErVPw0AlGogf/7znzsC1us0HBTxqbhie1eM0xp22223VTlMbubMmYNAs9rQxEUYLfCJw2Eyx48f/15d5L2goKBpXFyTK4xBf2PxCkOTTPIyGraoRdU/gqcHJnFj69atX62LfCqlotMAQKkG8Oijj2bYMLMMmRT9qd+A5JeG0n/69OnVminvtddeuxk0L0YZ93/I4bCGjxs3rt5m3duzZ087j8fT2xjTm2QPkp2MsS4lzaU0aFXNgGBXQkKrviTt+sqnUkoDAKXOukce+eN3aMxfjTFO+trQ/UFApWYAmjvuuefuZ2uS/mu5uX8i+KMocwR87LDMqHHjxu2qr/uL5uOPP25cXl7eGUBLAPGWZcWLmHhjcJsxvCKsL8D1rVq1eu1s51Gpi4kGAEqdJY899ljsVydP/ZPgHabyk36k7fXfvmd6ak3n7Z8xY4bp3bvvy8bC9VGCgGOGGDt+/PgN9XWv1bF37yeJsXHuJww5LbwZwLLM/pYtW/YmWdaQeVTqQqarASp1FghAZ/G7NzU+/sVYAN6V++BdtC94O7BOngA25Ue1WbRnxowZNun5BkQWSeRVAuMFXLJo0aKRdXJztXDw4MGcmJiynRBMC1oZMLBKoG1L16NHj97dUPlT6mKgNQBKnUVLXcMGfhV3ycPHOnfud6xTl3bijI1c9W9M4b3f/XbamVxr4cKFsSdPnsqlMROjTBtcboh7xo4d+0xd3d/pFBcXd7Acjj8bmmsj9AWwSWMq+gLwM5LdW7VqFXHkg1LqzGgAoNRZNisnx2r+0YGfgvj5V4lt5ItLuzb+sl172DFxFQUi+LllWQVCbjIwKxMSmm+qzbz7Tz31lDMhIfEZGt4Sde0A8JENG9b9fMaMGfXW6a64uLgZyAcMeT9pGkcYEviuiH29w+H4L2n6BfUF+G3Lli0frK98KXUx0wBAqQayNPXKKw2sl0QkWUiUtGqNL9u2x9dt26O0VSJgTHBA8Jmx8JzT4Xjq9ttv31/Ta70+d97PDPEb7wx/EUcILLQsc2tWVtbRurzHzZs3O5s2bXo3yF8amtYRnvqFtP7TuHHcj1q1anXi8OHDg40xa0lavn4BJ0WkZ0JCwkd1mS+llAYASjWohWO7xzpPNP8NBT9AUJ8ccTpxqlUCShKSUNI6EaWt28DTqDGMoU2a1x0Wf3Lbbbe9X5Nrvf7GG1kWzPM0bB9l3v+DlmWuHTlyZLVnDYwmLy/PkZiYeB2N+YWh6RlpoiDC7DAG3+/UqdOK4HM/+eTI32hwn6noEPhsfHz8HWeaJ6VUKA0AlDoHLE/tnyIwL5DoHvpHycAfqbtxY5S2ao3SpLYoTWxbWp6Y+Gipbf9u+vTpJ8PTmzVrViMALW2HI94p0lLEtDQOxlPYwxjzAxrGhtUA+AOCMkP8X0FBwV9r0yRQVFTUxO227zCG36dhp4r0QyYHOkjiF126dHkp0lj/I0eONBHBFhr29AUBHssyg1u0aLG1pvlRSkWnAYBS54hlAwY0Z5w8Q3AaEFT0B/2VBv/BitOBsviEUnfz+EOlbdq5y9t2MO6WLZvQWC0NWTEbYNjUvNH6AoRNyFPocFi3ZWZmFlcn7+t37EiKddv3kriHhi2jTA/8maH1O8B+skePHqVVpXfkyJErAawjTZxveOCG+Pj4VJ0cSKm6owGAUueYlWmD7obI4yBi/Psq/aEyuG6ggsQ4Ud4qEe7WiShPbAtPYht4WiWAxopc4AeaASIFBOYkgIeaNWvy+MCBA8srXUuEmzZtyqBl3WHAHJJxURYFescy5vHGjRu/3LFjx1PV/RyOHDnyHZL/CCxvbMxdLVq0+E/1P0mlVFU0AFDqHLQybcAQgK8B6BTyR0ocJWgBaBGyO8JfMn0/JS4O5YlJ8LRuA7fvN1olAA4HIvUFCOsXAJJ7LMv8OD09/U0AKCgoaGeM4xvG4m2k6RFllUAPyXmA9Xjfvr3za/s5HPn881wDXOMLAj63LOuyZs2a1WlHRaUuVhoAKHWOWpyS0jLWKn8ZwBjvXypB4GMSORmrN61fm5qa4HaUd6ewj1B6ARgMYAiBWF8VQUD4H7pYFuyE1vAktoGd2BZ2YltImzZgo8ZRAwJjzDLSlJAYS2MckZcCtjaT8iqA16688soz7rl/9OjRZrbIRkP2Ig1g+O+WLVpMP9N0lVIaACh1TpuVk2MlfHLgTwb8ftDuMgi+7yrY9ET48WtTUhqVOz0pMBhBwTUEeoUcENKtILy7IWC3aAFpnQS7dRLQOgmS2AZIbAPGxFRVQ3DYGD5pWdbM/v37V6vPQE0cPXq0jwg2GMMmJG1jzNDmzZtvquvrKHWx0QBAqfNAftqg20A8CSDWX90vxH+afGV/e+CWLZXa5/1Wpw+9CvTcQMNbACRFLPijfAv4dwstIL4FkNQWSEwCEtsBSW1hktqATqdvBj/ON4bPiMiSSP0FztTRo0dzAL5mDElya/PmzYeQdNf1dZS6mGgAoNR5YnX6wGFCzgGQ6N9HcGlMKXOGbthQ5XS5hZmDU4QsRNDffPR+A76tKpoQAACGQKvWMEltgaS2YJt2sNq0PWYlJs6CM/alK6+8sqDaN1cNR48efZQ0PzSGAPDzFi1a/K4u01fqYqMBgFLnkTVpg7rahksIdAfg+wuWHR6accPzN3xY1bkFrqHPA/KNKgt+Vm4WiHRw5f1BoYNlga0TYeJbHbPf3/cUSk5us0X2tIpp+W6PRYuqHP5XFRFxHDt2bBlJF40ptYwZ0LRp06LapqfUxU4DAKXOM4WpqYlup/stAgOBwB/xQVs4KnP1hqht8AWjhrWj270XQCP/PgIg5AGbPAwiETbbkWwNIImQtvDWNiSCkSoMGLpVxbeJ7y0PnDGfOrr1aGHatCl3tO0oVtv24mzb4YQjvsWXpCk1hscBuC3LOg5jygzwtX+hJN9iSYkkJ/s6H25q1rRpqjYFKFU7GgAodR5akt3vksaljXIBGRvYSXwKYnR63sa3o51XOHzwnwH+IPSJn4+mrlz342jnFOUkx5w81riDG1ZXwnQl7K4CdoWNdjRoC6Br+DmR5i0Ifyf4GDa+BFbrRDjadYSzfUc4k5LgaH8pnO07wLKs4AmK4J8XwLeK4s+aNWv2SLS8K6Wi0wBAqfNUUXJyzP8SGv8X5PWBzn2C/xH2mGGrNkXsJV+YnZrIcvsgiDj/PgIfDc1YfylnoFaz7BVmpyY6RfrCZjJoXw5wAIi+AJzRCvyIIvQ5YEwsnO3aw9m2vTcwaN8Rse07IqZdR1ixMSBZSvKqpk2b7qpN3pW6mGkAoNR5bFZOjtXus4P/BXiTfx+JL2wgKz1vw5ZI56wdPvR5EN8IeQKnjBi6YkNeXeVrbUpKI0dT9KeNwaTJEIgLQHzFBUN+VUOlI8XRrPkXjpatjjKu0e6S3TvnENxpx5XsGrhgS6W1EZRSlWkAoNR5blZOjtX+8w+eg+CWoL/o/9FjslJXr9sWfnzhyNRBRuyKFf8IUPD00JXr766vPMoMmK1r0/oDMkIgEwGkArBCj4pSW1CzbykbwAEBdhrBLhjugGBXbLNju5Nzi8pqmX2lLkgaACh1AZAZMOtWDX1WIN8AAn/YR41BxtAVGypVj68bMXQDiMFBfQGONY0/0eZsFZJbx6a39njsSQQeJtAWQZmuiRqc4gZYDKKItr1TgCIbsvPLsti9w/PztROhuihpAKDUBUJmwKxdNeQlAjcEjdX7wLaslLRlhR8HH7shK+VWEflvaMM7Jw9dvnbe2cjrltEp3UHzTwiyox1T7S+n2nyLSWCrDMBuQHaR3CFAEeF5p//i9e/XIlWlzisaACh1ASnKSY45frTZAkCyAd8wP8p2xCBz6KKKyYLyXK64RlbpYQAtgobwvThk+bpb6zN/eS5XXLM4908h8gAQ0hERAMoFfJ6QuwL7iVkCfkLYcQI0BYwTkBYg4iFoJWArAzStaT6kilc+/wNkm4DbjHCb7XFv2xff8b1rc3M9Nb2WUucqDQCUusDkuVxN4kzJCngXB/JWBpBLHcfKJgRPG7xhZOpLoNwUdOrRg/EdkuqrkNsyJmU0xPwjMIlRMHKtZdvT/1cWs7d5XLlvyWCC4G39F695vqp0Nw8Y4ERC4wRj2e1hox3BDgK0NUAnAbqB6AZBUk3zK5W3vgbwjtiyDcRmC9x4RUrh7tqOnlCqoWkAoNQFaLNrQEK5ca4BcVlgTn/wv0NXrLuNvhJtfVbqNEJmA0Hz/lsmY8iSwjV1mZeN41xtnJ7yvwtwbWBnRaa+APCz/imF//YXpNvGpB0H0Mz3/m/7Lyl48EzzUORyNSmNdXcj0RMGyRAkA0gG0AMCR03SkqCfAE4AskmEG0hscJa7N/RdseHTM82vUmeDBgBKXaDWulK6G0s2AGwZ2Gnw8NBl634BAG9n97uk1L7kM/hnBiRB4I+Dlq19oK7ysHV06jSA/wKRULGXIAARvua2rPsHL8z/JPicbWPSiwHp7p3WgK9dtWjN9XWVn3BFOckx7hMtL7cNBpAygIIBAvQDEBMo4iO2EFSQ8IMEBwGsF2C9wKze36zN29p0oM5FGgAodQFblzU0i8JFBByBsfeU2wYvW/88AGzMSp0HyiR/oQxg96Bla/uc6XU3Zw1obqy4x0D4+hQw6KEfh0CZftWiwkWRzt0+Jq0QRKrv5ZYrFxUMPNP81ERRTnJM+ZfxgwG4aJApglQAjYGgYr6KoCAkIPD+OgFBAcjVFM8az9GyTVWt4KjU2aIBgFIXuI0jU78nlL/7XxMosY2dNnTphi0bRg27k5Cng78IjJEeA5as21vb620bk+YSyPMEO4W9JQSedbvjfjhw+fLj0c7fPjZtLoDJvpfHr1xU0KK2eakLRTnJMWVftRwEiItAJrxzGFwCnD4giBAMAMBJIdbDltUE8o6XxazVoYiqIWgAoNRFYENWyjMEbgfgmzGYB63ymIF0lLS2aQLzBPhW/PnewKVrH6/pNfJcrrjmjdy/oeD7AEzIm8RhCm+7cvGaJadLZ/vYjKdICUxK5BEkXrVozWc1zU992TxggNPRutEPQTwMhPYfkMCPyiS0mSB48wQgK0EudtjW0iuWrj5Q55lWKoIadX5RSp2frEZl99olMUMAJAOEATrZzrKX3m/RcXyXLz46BiI+6GlgBIAaBQBbRqd0N3TPhuCKwE7/VATEW7bwtv6Lq1mI0z4S/GzisEx3AOdEALBtQprL8vCXArjCinQAoasihgcD/kYQAQBW1AoQaAZwsggmu+nB5tHD3jPCxR6RJYwrydepjVV90RoApS4Sm7JTLxfBRgYtByyUH1vACAErVhUEv9jfvF1CdTuubRubPhkizwNo7j098MVSRuIn/RYWPMbTdqWrsGNc2vcEDGqykFv7Lix4sbrn14cdE9Jcts1fAciIeIC3tN8skIMAp0V+O9JplZoHwg8roWClB5hjWWb+uVQTos5/5vSHKKUuBIOWrt1pwB/4X5OAAX8L0tchjd7/EC26nPhwwOnSkxkw28ek/R4ic0A0J71p+gr/TyEYecXCgr/XpPAHAJs84p3ByPvPNqZbTc6vSzsnpF3xzvj0RWIzj0BGULYCBLIMgqwrFhUMAs0J/5M+wZ8L8SsIFhM4xvATEfjEQxINOyxOiHGG+I/tsQ9vHjUsb3N26r0bszM61ttNq4uGNgEodREZuKzwX5tGp46lYJJvV4wIJwRXXQMAxRoBYGPlFLzezs6+ZPv6ky+CmBKhGnGL5TFT+i5dfahWmbR5hEYCGaJEmDionm0b4+rssORhEftGAkbCb1IgBOaB8psr3ioIrLpogCFCb8FuyLlXvLVmt/dw8J0xw3rCcDCBdAEyRNDLf16geSC0acC/6T2GsAC4BHQZuP++OTt1EyBzScw+k06b6uKlAYBSFxnL5j02JRNAc3if+ENqAn3TB48E8Eik87dPSGnv8Zycb4Crwt8z5FtfXeLOSc0tOFXrDBpzBEGT60mkmQPrSfHYIc1KrLgHIfZ9AGICQUhQbgRYTNgP9V1YuDn43M1ZWc2B0sv8r8tt+dy/TUCwuPBdAO8CeBEAisa52pSjPENsZkAwAkTvaIGABCVE7wEU70yPg0Xw+03ZqetIvhDj4Gv93io4VpefibpwaR8ApS5CW7LT7gbkqcpV0oGNr+3PSuLDx6tvH5fWk4JlAlwaeh5ByqyyT0/dfKZj3N+ekppolTuCZ9M7evmbqxOinlAHZAbMzk0Z3yTxOyB02uCK9nvJN8Z6KHlBfkGkNN4Zn5YF4TLfS0/fwWtiajJN8NZxqZ2MzTEiHANipHftg9A+AiFtKVJ5EiIBSiBcYGi/cKIsdrEOL1RV0QBAqYuQANyanZoHMhMIKfh9vwhjMPSKhQUb/G9tH5vRH7AXA0isOJy+x1s8994lbe6qixnvZuXkWH1OfVqGoD5Kttgt6+vJdsf4jFRDPiaQaP0e9gjtH/ddUPBmlelMyJghIr/0vpJP+71V0Ka2eSrKSY5xf9UqzRbPGAHHANI3YhAAQMJ6GAa9/BQir3jEfn7oig3v1DYv6sKlAYBSF6lNY4b1MoIdBJwAAmPYKoIB+XH/RYWPAsC28RmptO2F8PX0D3RcA0Dh3D1NknLqcrrbogkZRwC09r8WcvDlC1Ztqqv0AeCd8WnxDsv6gwjuREgtf6AwPQrIjFOHTz5VnVqNHePT8wC6AICw11z+VkHkEQO18PZYVwcbZWNFOAaCLADNTlsbEBoprBXyMXO0ZI7OQqj8dBSAUhepQYsL3yXxL3+3cwYX/gAAkw4AW8cNG+gv/L1V/RWFvwBrv2pSflOdz3VPHkFgWAGBOu4HsHtixo0OY+2G4C6GPwiRbiH+VuYw3ZPfXPOP6hSYB1yuOJBDK/aY3XWZ3ysW5X/Yf9Hap69aXDitqWmWKMJJRvASAO8Sz4GbqLiVsFEHqRSZabeMfX9jduqDhdmpiVAXPe0EqNRFzHY6f23Kym8hGTLdrrfMlbSto9OusISLBdI8+KkfAAxQ7IiNmXRl7prad/iL7giAZP/lyLoJAHZPdnUWkadEkA0g8MAcdFvrxcN7Ll+4antN0j3V2B5MIC4oMNpV9Rm112PRolIACwAsyHO54lrElo0W8FohJhJoKlLRbZDwzr8cdJ/tRPCwE/LgpqyU12yax4csC+3MqC4eWgOg1EVs4IL8z2nw28COwAM3AKClMVgNoFXwU7/vwbJMKDf0nrviaH3ki+CRsH4JZxQACMA9k1zfgi3vUJAdGM9fMbD/mJD39B6waljywvwaFf4A4DEYEbLDsN4CgGDD8/NL+i9ZO++qJYU3lTazk0BOJTgT4Nf+YyoN8fT+jBXiVoq9aUNWytp1o4ZOkvCaEHXB0xoApS5yTdDs8a/w5f0k2oe/R7JZyOvAhvyiX9D497pGI0ck9Om81gHArnEjOu1x2P8BkBWpjCNkthuO7/adv+JTzK/dNQwxJrSTnuOsd7pLzV13CsBcAHPX5qQ0ch7neANcL8BEAjFhNQEQEKCAghQjnLcxK2XbBsGvB69YN6+mkzep85NGfEopbB+T/n1Q/uJ/HV7dH/JFQazuO2jN8JoMcaupPZNcDwrk4Yqry5He81clVXlSxHSG3w7afwVCAxmfz0F+57I38madSV7fnehKcEM+RaBGVfYmL1jd40zSrEubXa4EiSm/hWLfKWSfytMOS1AnQgAib5P49aDl6+dqIHBh0wBAKYW3s7MvEevk+wASohb+sp74SQAAIABJREFUFU0ANsB1AiywLPN68vz8Op+FbvfVrukQ/AuoaJKwyho177Fo0YnqnL8vJ6u5u9TzpFBuiPQ+BW8KnNMvm7/s4zPNa9Ek180UeREIlJbPJS9YdfuZplsftmSnDbBh3w3BjQCaAP5hg+FjCAARFJH448H4Di/XeSdPdU7QPgBKKVyxdOnXAB8/feFPADQAhhF4RGz7vZ0TMjbsHJ/xwK4JGXX21GsgRyoGAHiVO0qr1Qzw7tWZ6eVl5e+AckPw3P3ef3ICgpt7zc+fWBeFvzevGBPaP4Jr6yLd+jBgacGWQUvXTi9txHYgpsM/3TPDxxAAJJJF8N+ORz/cvnZkypizn1tV37QGQCkFACgandLSbTk+AhAXVuUfeYhZGG9nM+4AOceGZ07f+Wtq3Q6+Z9LwYaAEZtzz9mbndVVV10tOjvVe+dGHAHkQgBXhkI0GvLHHGyv31TZf4YpykmOs0oRPBWjhf3q2hL17LcjfU1fXqG9bRg7p5zGOuwGZDhEHUKkmwIuy0Db8YerSdefNvamqaQCglArYPj79JSO4CUBIr/+qCn+G/gg+ei8Ec8Qyc/rMy9tYk/bkXRMyeliWeS/k0sKf95qX97tIxxfnpLeWcutlgKMivC0A/nQi8cSDA/9dt5Pg7Jo0fDwhb1ZcBh9fNn9Vh/Oh7bzI5WrytaM8m5QJACYI0LpSfwAgfJKhcht8wlNq/Sq9QNccON/pKAClVICx8TSImyIW/pVmzAk89Ye+rnjRHcRPjNg/2TMp88PdNHMp9txesYmreZo25dhGMUfc5e6QFGkijwQonjIyRcrtWQA6RMjI5xTe1OONlUurul5tWZRrBP6nZIKChedy4b8xO6OjgXuCgJNOocxFIC7KyICQBYgggQ2ngdzHGPfN60cO+eUpT6OndL2B85fWACilAgTgjgnpuyHoFTIvYFjhX9E3IELhz7DX4QGE4DMA80nOMWVxK3wT21Ty3uThJQBig3K3pucb+SHT6743dcS9EHmUQEyEJLZY5LSuc1YejHy3Z6YoJyfGKvvsEwDx/n02ZGqfeavm1sf1amtTVlpXY9nXgMyBYGD4tMHBSwkEjQQIfY2gpgDvioj+N3cZ2PcOWblxZb3dgKo3WgOglAogIDuA/wIMVLVHrvKP+tRfueAPT4NoDeAOQO6wY08d3zM58y0DM6eJp8midgsWnAw68jMAHYIii0ANQFFOTkyM5/MnIHJHlFt5ztFcvt3l+byS6Hd7ZqzSz8eQiA8qJEuNuJfX1/VqYsvolO6kdQ0o18CWAQCD2vIR8oQfND1A2MM+dgE4CiA94nHeHX1smOXrRgz9D2PlR0MXbajWKA11btAaAKVUiLfHDOtlLGsPEFZwC58npRXIEQAuAU7/1B+9s2DYcd4Xp0BZTMEcB/BmObmCwFXBOTj5tbNp4+anGtPtfF18BVNYmmUU3Ndt7sp/1eima+HdycPfAORqf6loA8t7z8uP1AfhrNiRndHRY9k3CuQ6CPv790tQo37lJ/qQxYPKQK4mZIHY5s3SxvJZzEn7bQG6hJ4TSDUkQVtwiIZ3p65Yt7iu703VDw0AlFKV7BifsYtE7+B9BG9PfnPVc0U5yTE4lZhOY4+GYAyIvt73K34CVXUWjHQ0woOIMgBuAI1D9gpvoZGHAXSulGnimNBM7TF7eX41b7PWdk1Nb+uwHR9IoBZVQBv39JyfX++BR7DNWVnNHc6SaRTcLEQmfEO7g1cCDJ7sp+J1YNdnABYJZIHH8iwNfoLfNCrlSRF8K+icVQAGiaBxVc0HAnm+zC79/vD87V/U7d2quqZNAEqpSoyRuSIMBAAEAIM2AJCcW1QGFK0AsALAT4qnujqUl9ujQTOGQBaI0IWFQjZOW/D7xQCMAcKbD+SFyocCAPYZI+O75i5/t/p3WXtOj3WrEI6KanGWi8jss3HtzQMGOJ2JjcaQuFlQOgmgdxGioFKfrHgZVq0PADtJvEmxFxQ377Ah0iQ/m7KHjRKR6UFtBe+edMeOcTrLWzpFfiXAbYBYkZoPCH4zlrHZa0YM/Vb6yvUL6udTUHVBawCUUpUUjUsbIsasB4La/IV/T34z//6qzstzuRzt4jFUbIwBMIaQ/iB9E46xOgW/97gqvpkqvUUUumPsyb1ezf+8qrzVFZkxwxS/vXoPID2CHnvf6jkvb0J9XvftMcN6GYfjDoH9DQgSIz/RB1XpV7xZBjDfFnuBoefN/ovXv1/VddaPHdLMcls7AFzqmyVQYOgavHTtav8xG4cPS7aN/QdAxkfrROgLOl6KNe7vDly+5Xjt71zVF60BUEpVcuSkY0vrJvZXBJoESmN6awCq4hsSVuD79+DeKdmJbinLBjjWAKMAtPalVaOCP1Lg4OMWyDxnqbkEwFkJAPZuWz2eRnoAvo5wAEh5tT6utTYnpVHTkphrALkTNtIhwghP9L5MABT6g4CThCwS4RyPJ+6tgcuXV7sAttzmLwAuDdr1dHDhDwCD8wqLAExYP3LIcAgfA3B5aJYIQiCCm0s9jtS1I1JuSF25bmONPwBVr7QGQCkVUdGE9GWgyfK/JmRVnwWrXbVNT2bMMO+9s2YAYY8hMAaCIQCsaAV/eAfD4HcifXEJsNVQZrlt++Uec/I/rG0+T6d4yoh8AJlBS+t9XWZJm+Tc/K/q6hq7r87oKx5Mt4GbAG+TSminu9BOeL5fx4V4Ex57jttZsnjggi0nUUObR6eOF8EC74QAAICPHeUxyf3z86O2528eMMBZ3tz5AwC/ANC4Ui2AV7kI/m9Y/oY/n8vzJFxsNABQSkVUNDHzFwB+BQSe7PYkL1jVu+qzqu/g+LT4sjjnKNhmNCHXgGjmvxZCNrwvon5ZVe5saAskj4JnTppWryfn5pbVVZ73TR05SCAbgaBe9MQzPebk3Xmmaee5XI7EZjIFIt8BmAnfRSKPxQ+EACcofENsvGY1Pbrc2z+jdraOTW9tezw7ACT5ryPCaYOXF86pzvkbsgd3sd3mHwKMC85sWKfDt8TtvEVnETw3aACglIqoaGLGCIArggrko33mr0qo6+vsnTrimwCepr9JMmT+oehVA9X88vqEwNOwHU92nrPk8BllFMDeqcNnArzO/1oEMOTgbnNWbKptmkXjXG3okLsATIegPRA+FW+lIOAkgDdBzmzyFRd1yc+vk7kOtoweNk9EJvmvT+HcgcsKp9Y0nbUjUnIAeRxAUuQARvbZFqdmrNhQ67UiVN3QAEApFVHx2PTW5Q5zBID/m6K8z/xVkWbcq7V900b8VAS/Y1hZX6ngr1mhH3KcrwAqEeBZ2PLH2s4MWDxteLIRvg3ACirUtnafs3JAbdJ7d2LmIBu4H8Q18M1kWEWHujIAS0jMRJyZX5fNDQCwJTvtbkCeCiqujxthn6uWFdZqxcTV6emtHTHup2HbV0epwfhaRO5KX7WxXvpOqOrRAEApFdXuiZmfCpDo77QXd4KN6uKJU2bMMPveWf03AvcCCKn3J+ARQS6J6yN3FqzAqoYLRFYO4D+2Q37V9dUVn9bkxH3TRswFMNl7A4HC+u7uc1c+Xd00BGDxpOHjbMiP4R23X3lyHd+Bvl+bQL7gEMzstaB+RjlsG5XRwzaebQAuqWjW4D0DlxSe8ZwG61xD7xTKXwVoAl/SweMUbMrv0/M2/Vz7BTQMDQCUUlHtmpiZB8Ll/6JwWrFJ3ecuPXImaRaPHRtrGpe+CEEOgKCnewJAOcCbxcgNRnyFbYVyAM5aFPqRfAnBH6WJ+9Euz58+oDkwbfgQgVknAINK5/+VWHan6jyNF48dG+uJK7mJYv8Qwj7hpV3wrHwCHBIbL9kiL/Z9a/Xumt5YTeS5XI5mseUFAIYE8kEpGJCyNpMzYNfFNda6UroL7RcBDA1cA4A/4KEtr8d9bd86cEvNOy2qM2MaOgNKqXParopNQsTd9EwS25eT1ZxxJYshyAERmBzIV/iXkswxYq2xBCFj6gm6LUt6O8h+BO8HsBBAqT+JSv8Y9q/yMU1BPIyvHe+8n5M94rQZp/mdL9mK5gnKP05X+BePHdvs3cnDfyaxJQeM4BnA9IlSq1EC8GWKjOx91arOyW+u+r/6LvwBoEWsewZ9hT8AECiFyF11VfgDQGr+ur1l0ihdBI8i5Enf+ykIOe1UE2tVwbBh7erqmqp6tAZAKRXVrokZD5B8xPuKsAz693wjf3tt0tozaVQ7h8OziEC/sCp/ACgxlKmdZ69cdOCakT8DELQYEQHglc65y28KTq/4prHNYt1l40RwI8CxqOm8JsHT4BPPlzud9/d4eVGlxWz25wyfRDHzwua+P1ke4+kUbfKhopzRLWPcZfcB+J4ALSrPxe+tC7chu0g+7XHGvpCcu+R/Ncr/Gdo6Oi0LkCUATGA2P/KhqxYX/Ka+rrl2xOAc2+az8DUJhK1TcNBDz5jh+Vv21Nf1VSgNAJRSUe2e6PomKM/5vyosmMye81euPs1plRyY5rrMI2YxgU4RCv+vhebqbrOXrRCA708bWQyiW1BVv9i2XNn19RVRe40fyHG1cdB5qwDfQegkNhFI5QZn7479Arm5c+6Kdf7dH0+c2Lg09uQuAJ0Ch3mryR/vOnvl98KTKc5Jbw238wcEviOQQG1JWOe+U6CdC/DpXnPzC6rOa/3YMXJIUrnTuR2QNv4ymODG46WOYb7JnOrN6pFD+hgP5gDoFWE+g6M0Znx63voN9ZkH5aVNAEqpqAwk0FGOBDwGcTVNo3jKyBSPmAL6ClFfav7C/0uIjOs2e9kKAPjgmlEjwgp/AFhYVeEPAF1y8z/pOGvZHzseKe8G8gYQOyvV+4dc2/+fwC6A6Epw9fvXZv3Iv7s87tRDCMq3r8WiFDb+HJzi+1PT2+6bMvzPxuM8QOKnIJpGeL7aR8EPYiDtes1d9Y2GKvxlBozbGfMCUTGzI4GTHsqt9V34A0DGig27HI0wGIL5Ed5uJba9oiBz4Nj6zofSAEApVQU35ZPggszAY9Xk/OJpIyaSshxAKwDhw/m+oDC765yKGgUb9p3hnfwIPFLd6zE/333pa0tndrRbXAnhHRR8GN4vIDQgqBQIOCj40/vXZL1yMCd7gAA/qJQfwb/8Qwk/nDKy1f5pI//ooXMvyB/At0wyfNcDKBQsp81JPa7M7NljXt5fu7wRfVa9s2Hb+rSfAJIdslPkp4MWF56VhZQAYOiiDSeGDd8whZC/R3j7ElvMvPzMwTlnKz8XK20CUEpFtWdiRheh2Q94CzQxmNh7bv6b1Tl337Tht4vwKcC7al5Yb/+jtrFHd8/N2+I//sMpI1u5HfwIQKx/H4GCTrnL02ub/48nTmxsNyq9TygPAGge/n7E6XUr9rklqF+BeLuvn3Azprun9ERJbGzc98XGDwA0l6A6bG91Or4WyEtCPN7j9byi2ua/rm0bn5EKj70KvvsS70yGy/ovKhzdUEPxVmcO/j6BRxHUF8G3sJEbwDczV296uSHydTHQGgClVFQURxmAivWAPKzWd8Z7k0c8KML/oFLHPALAEQAjggt/ACg3vBWhhT+kBk//kbRbsOBkh1lLf++wHT0oqLRcb3BgguC6AO8vR/ATEkkI8A8nym6Ji4nbL4JfIRBUBI78lJD/c5SWdew+J+9b51Lh/874tHhj26+CQf+bCL+w4L69IcfhZ6za+FcA1wMIH47pAPDf/MxBt539XF0cNABQSkVlOR3lwa9Ju8omAMnJsYqnjnjCGDyM4PK1olw9bGy6IrXp0yAwn76v8H+nU+7yhWd6DwDQNnfRZx1mLcsBzU0kQnrb+5sHKl5Hn3bQgPeI4M8CJITd1wFQvhNjnerSbU7e7zu9dW7NdS8AbRvPSlgHSRr57hWLNtTbwknVlb5qYy7JUQDCm0csCv6Tlz74jNdaUJVpAKCUiupk2cmQAMCmifqdUTx2bOxe9+evQHBP5CPkkMBkdp67vNL49oPXjhoGoA9QUe4a8pG6fjLtOHPJK07afUgzv1L5zgib4WP2ifjQc2QnyG8cPOrp2W123hMdc9edqsv81pW3x6Z/F75ZDIPuZ27/RYXnTPV6Wv6GAhF7BICjYZ+7MZSn8tIH3dxgmbtAaQCglIoqxpKQXuG07YjfGQfHp8Uz7tQyANdGTkkOWMaZ2e31ZcWR37ZDn/AM9neUFrNqkeXTEof1FQVHwNAVB8KbA6KpGJwoj3TJXdmv6+zlL5yN3vO1tX1sRn8CfwrbfbisvOyuBslQFTJXb95mUbIAhM+vYAg8tzJ94LSGyNeFSgMApVRUtsM0CSkLxVRabrZ4qqtDaYxzjYDROusVi9uZ2Tl36YFIb+7LyWouYEjgQOGfmJvrqX3OIzt04+jBnnJsE4o34IgUBJxmu6JDBH988JoRv9589wBnXeezruyZNKwpKTMR1LcC3i52dw5ZsfFoQ+WrKsPyN20XsUbA21ckmMOAr6xMHzy+IfJ1IdIAQCkVFSWmaWjhJ6XBL4snDk8W4VoCyYFDQh+ed1soz+w+b+mhaNcwwI0AGgOBgvYTT+Py588w6yEkJ8f6+PrsBy2RAgA9wqr1Q4XXAkSvDLAEfLDl/1oU7Js2qkedZbYOlXjMkwB6huwk/t1/cWGd9K2oL5mr1+0wHkQKAmIMJHdFxqDUhsjXhUYDAKVUdGKHzP0vpqKn9rtTXGliYQ2AjlHOfgficHWes+ZwVZcgEFr9T/6tOgv0VNcnt2R3OWx9uQrEwwI4qyjQ99fyEoMJe+u+a7Km1vL8evHOuIzpFNwUtvs950nHjyKecI5JK9xURLHHAgifnrmRJbJgVcZVvRsiXxcSDQCUUlWQkADA4asBeHeyazKFS4GwTnF+xJZy4YjTrRx4MGf4AABXBe06XuZ0PHlmea5w+MbRt9oebgdlWFXZAHgzwDPpcNiEIrP3Tx35a5kxo8G/V3eMGzYQlSfZKRHa1yXnn371wnNFxpotW4VmMoCQmicBWoptFq9ISWnfQFm7IDT4/1GVUucwj7QNe13y3hTXtwDOBtAo8klcb3nsrN5zV5y2jdkW686Qfv7kE5EW5KmpgzeOj//ohtGvieC/EDQLGUxQsekG+ZcYT/nlEJkMSLczvCyF8tC+navnFt80ttkZplVrRaNTWgpMLkLb/SGCH/ZfuLZWCzk1JNeqDXkUuQlASJ8QAS61rPKFBcOGndEKlRczDQCUUtEZdgoun21YPxbBkwCs0FnbAla73SXZ1Znu9pNbsi8B5Mag+fdOeSw70tSwNXL4xtHDnVL+NiHXenMmvp8VBLKJsAd3eHXJD0uN4zYQ1wS9GdggZC6k0tj0KlEwyTpVmr9/0sikM72XmpIZMB6H4wUAnUMzxdz+iwueONv5qSsZaza/TsG3w/cL0K+Mpa/Oysmp0RTVyksDAKVUVCLoFPLwTLmhipH5q8ocMv6y+YVfViftkpP2dQAqnpRFnu366opPo59Rtc13D3B+dGP2DFtkuQAd/YV+yPS+gq9t8KftPS1S2s9cvu2D60cNBPin4EMC28SLl85aMfVU6alLQf4UwDFfPkMvHOHzEKC/OOx1e3Nc3Wt7P7Wxc1PazwCE95LfX14Wc84N+aupzIJN/xbiDxHeGt/q8PuR9qvT0ABAKRWVEYmytG5oqUfIIkdzGZOcW/32ZaHcEfTSDVp/jnrwaRzOGdunzfFWG2HjlxAYBJf+FVHAXNvj7tVx5pI/MDfXc2CyqwUFs+CrKg9dFwAb7UbuuwHgsvmFX3aatewPHqCLCP4gQGAoZGitQsWG95LsAo9ZtXeK6/La3ldNFI3NGAHwV2G7Sw3s6wYuX378bOShvrlWb/o/AJXWoiDkh3nDBt4R4RRVBQ0AlFJRCXnadnGCb5Q5Wk+uSc/94mnDkwWoGMolMjPaPAFV5g/gR9dlfddjeTaDuDJSuS/AB4Bc3X7m0qkdc1d+5D/PEet4DkCX4MR8d/QJxTM1/H665S4/3mX28p/aYi4X4K2IuamsncDkFU8bnhzpzbqyfcKI9raFVwUIVIX7gpD7+i4s3Fyf1z6bCNgny8xNFNkFhH7iNvDEyrQBQxooa+clDQCUUhG9nZ19CSBVVmELMOt44vFrk3NzK00QVBVDK3jon7g9Vo2rcA/kuNp8eN2ot2zwcRFp5K2aD6n09wD4a4ynLLn9zGUha89/dF3WfQAnw39GRUlSZhv3NH+gEEm315cVd529YoLQvhqCw/40ELIRIgE2lu+bMrJnxHfP0OYBA5yWuF+DIDF4vwDPXblw9VP1cc2GNG7DhhMeG5NAVHQy9X7uMSJ4ZeGQIQ3WAfN8owGAUiqimJjSfvA9UQY3ewdVlb/Y05lw48B/bymvfHZ0B77piqPILYHOg8Sb3ecu3VmTND7IGTXJMs53AIwNzpeI/59sNsLBHWYu/UFiWLPEoeuzhwj4h7B7ASCwie90nrlybXXy0DU3b36Mjb4imBlc8oc0C1RcoI0H9oo9EzO6oI7FJTV+BMCwwJW9v7Y0P2lV6jR3PisYNqzp6vQhfVZkDMg2lkknsCHCYV3jHO7ztrPj2RZ9Sgyl1EVt16TMewg84f+aCF0xD//p2d81nTNm2DVNd9+0ETcQfMWfkIEM6zy7eoXuJ7dkX1JeZv9FhHcHZ6Yia/IlwIc62C3+EWkq4UM5o1vC2FsFoZ0bAYENPNF51vLv1PR+AGD/NSNyxMbTAJpHCQD8wcZe8UhKrwX54XPd18rOienTxGYuAPpHO8DGUQc9A/osXHuwLq5xthSmpiZKjKerx7a7UdDVNuhKQXsA7UXQEUBTwHeXIbEOgkaieH/akJRRhVvXn907OP84Tn+IUuoi1d/7SxBSxAL/7DUv/17Oy6/txDl3BVIUrO78evUK/w+uGzmopNR+iUBP7xA9BjLk+/J/wzid93Z4eVHE5W0F4CHaz0PQKXivr9Fg1ectjt1fy/tB19krc/fmuLaJx8wmcAUQsfAHgO60OLd47NisHosWlUZOrXp2j0vr6RY+i8BHCQDwkOaGPgvXnJOFf55rQEKMMX1sMZdR0AOCrkLpBkFXG+6mIgB9kSbDR1vUAIWpADQAOA0NAJRSkQnSJOjpWgSAkb9c9saqH9V2md69Oa7usOHyFryERXnktNnIybEO8osHbFtmEPAuvFPxvAsCh0Dce+lry+dVlc6ha7N+CGBixZk+xMFY25lT06aMcN1z8/ceyklJKfE0+icFt0X7iARIQ8ypZwS4pbaf4+aJAxp7xOR6JznypQqANh/ou2jVstrdQd1Z5xraWSxeRkgf2LhMRC4Toje8/SGClluIdvs1/lj+B8qnFPkIMBvtUnmmtnm/mGgTgFKqkqJxrja05GMwuOafAsoaA7MCBvN6zc17u6bpFk8Z8XtD/NS39u72rq+vuKqqQvDA9a7O9DheBJAWvN+XJw+M/OPUqZKHTjf3wAfXj0wXmysR/NDjvepJsZHW+fXl22p6L1UpnjL8+wAeBWCC+xkE9xSg4MGe8/J/W5v0d07MeB6Cb1Q8JAsEfLbfW6vP6lC4tSkpjawmJtn2eK40QD+hXAFBPwFbVGQtNOAK7U8SuTo/LEj7VAT7QNlLG/ttykcU86kN+4hlzMdfX3LsyLhFe8+oNuVipQGAUqqSnRMzbzBAoJ2e/g1U9AUQyC4L5qnyGHm2OuP/N989wNni8+YfAGhDAGJ4Q/fZK2ZGO37/tJE3k/gHgOYMbegHgK2EubtT7tItp7vu/htGJllubgXQLni/t7+g3NAld8Vrp0ujNvZOdk22DV+C4JLQQk78//VAZNRl81fl1STdnRMy7wLk3yEFqcgq65L/ZSfnFtVoNEZNrB87pBlsxwDLYw8UylUivAJATxH/0ENBxGCnegHAJwLsEshegvtg2/soZq/b8fW+4flF583aBecbDQCUUpXsmpT5bwi8s8eFlL2VOwQa4JhNPhLbQh6rai6AvVNHTAEwx/+ym9Xqskgd9Q5MdrWwHdaTBrg+/D0CXwn4UGfGPx7p3HCSk2MdxLFlAIZXepP4TedZyx86XRpnYs8010Dj4VsAEsMKf79PPOXon7ww/5PqpLdrYvpVtrAQQFzQ0/8+R0zMkOqsvVBdmycOaCwlzv4CDiQ4EIJBQvSAiPHdBYJuByE/qw4A/ic2dsJIkUB2ClAUa7hzyIqNdZZ3VX3aB0ApVYkIRgEVvcsq+gKEdggEABuIp8gfyr7A3e9OcX2z19z8gihp3lUROPDRSAV48TVZLhF5geKdyjcs+Jjvdpjvdp+59FB17+MDHPsNIhX+kLmd+qT/Elhe3aRq5bLX8zfvmTQ8gwbLEHnZ5DbGIS/LjBmjTjei4p3xafEinI2Qwh/HAU4808J/+7i0nm63pBBIESAFpZLs7aLhfV+CuhmGPM2Hb1fsKAewQ4CtJIqMzZ3lnvKijDVbqlwaWp1dWgOglAqxa2L6VQKzBQjurBX8q3ItQGAvxRaYGb3eyPtNcNv+vpysS223Zz8AizCHpSSmS3Av+KKcnJg4+fxhCH8EwDDoq0mAjywj93bOXTm3JvdxcNqIiULOk8rfc++cpGdYTaYtPlO7J7s6G2AZBN0jV4fLD3vPX/WXaOcLwKIJGfMATAwqaMshHN93Yc06/W2eOKCx8cQOhNukguIt8IHW3qf5oF4K4XM/VK69gHg/3FIBdgD2FtjYCmBL04SvdtRnc4SqGxoAKKVCFI3P+A2In/tL+OoGAaHHmZc+/sK+bXh+vhsA3p06YoYR+SUACPCTnnPzAgvwvDclq7eh/TL9ww4r0vQQ/GdZecmD1V1gyO/gtKyuNrEZkPjQd+QzOOzBXWbmv1+T9OrCrqnpbY3HWgngMiD4iVkA4JTYckWfN1cXRzq3aGLGT0XweyBQMAsgt/Z9a81Lp7vu5qys5pZVmgYjGRRk2JABEO9oitPMWYCQY7wHlNjEOxRugW1v9RhuiTlWtnNZthT1AAAgAElEQVTgljMbQaEahgYASqkQOydk7ALQ21u48xSALwnfNLOn6Q8QHAQI+EovZ8KtAFBc/vl+EJcS+MLjKbv0svmFXwrAvVOH30PwUQCNgtMgsE3A6d3mrNhU0/wf+KYrDl9bhRBc5d/nK8TKAGR1nb1iTU3TrCt7Jo1qR5avEqB7hAK3oPeAVZmcgZCmgJ3jM4eTskwAy/9UTvKBy99c9cdI19g80ZVguT1pBsgU2JkC9oOvo17wk3zFa/+uiE//e21gHYn1tGXdV+7YHf6gTp3/NABQSgUUXZ3eRzwsAvxV+lzYZ8CqiTu3uq6yYF8N4T0gWlUVBFScC0DwCGhWE7LQd+Bve85d+eD+SSOT3MZ+lsQ4hI41/ErIX3541PNYbQua/dNG/Btg5eVvBXd2nbOiwceHF03MutTQvQqQzkCltvPv9FmwKjCV7Z5Jw9q5bWsrgKTAccRjfd9cfZ//mOKxQ5qdNLEuCEYC9ggRJCPou/20w+4Cx9hfE9wskLUiZr3lMOuuWrTms7q6b3Xu0QBAKRWwc0LG74H/Z++846sssv//+cxz00MggAhIETEIhE7oLQlNAoiKZHVd2ypiQf26NnR/62arZXft4OJaUdc1iCggRXqvIi0UQVBQaVIEQtp95vz+uCXPvUmAJDcJhHn7ekFm7jwz57lqzpkzZ87BOH+HYFybL5b4C/Vsv6ZXDVtcD5B4gvAloTmjESAAdwNoTuC0Ylgz0e5uouRNv1fB/wCnK0uNbT553t6yyr/n+tTbhXwnuF+Al5tPmV/mTH+h5puhva+wLWuJAJcBcCrlo8rlatFq6vwjC5OTXZfE6gUA+gD+8/bJJ6ILbos7Hd5dIP1F0F8gSfAFdJfuHP9bCFZCuEqLvcLs7i8+jAFgMBgAAAuTk111Y/ReEg18fRrs2W7G4pXBY7el9W4hLusTAm09PWfxBAAg+DZE8kGO8TT9Y34UwUMtPls4pTzy7x7Zv51AVgKIDvroy71H9NDzTbltG9G3rQiXQFALKNyRU2R86xlLxm4e3vefFDwC+BW5DWC5QLoAiDqrGz/gQ2gR2SSQxUqsRQr2ivZfrjhUcW9nuBAwBoDBYAAAbBnWb7iITAP8ijw7d392fEkBXuuGd46OYey7AEZ5es5gBAAA5QSg4hx9mpAJyIv6fcKsWSfKI/u3owbUhK3XAkgI+ugbV15+96ZfLDtWnvkriqyh/fpQYY74YiA8d+bdAP4E4M8ISokvQVo/0I3vbMEGsEELFlvEIiosa3eefgeGqsMYAAaDAQCwaWifzwiO8LWVwheJ05cMO9Mz6+7uHBZzIHaaAFcH3Rk4ozcA4AaAY676bMGa8sotAL8dmfoJBNcHfXRcWdL9iskLd5R3jYok65p+oyDIDM6YBwS68EvMtOcZ6BZiPSGLta0W56n8pd1nrS6XUWWo/phEQAaDAeuv6dUQNoZ6SvR4tLQt+OhszyW98VXBxkGDbgiLyFsgRFcWOrI9Z9YOI8CrvLIVkPHjL/JSyqKFIXHJf3t9/99By/VB2xlbKDeer8p/36geUSdzIwYL5HoIhpdB+RdAsI6UxQIsjgiT5aW9KmkwGAPAYDDAVWA9CIrLV2WPYLYVpc5YXc9HWGRBMgSNissYWHhtzTdafjlx6amXUz7/KiTKf+d1/XuI6Gf8S/ogH02YsnBOKNYIFeuGd46Okdj+Qow6kYtrAakBoEiufG+Xs+VT/rshnAel5xXkRX6ZNG/eL5UjuaG6YgwAg+EiZ+OgQTHCnNH+bK8eI+Czs2XK+/ra5Frhtjwnou8GAtMGe9qB3gBPDgE2jD0Qey2AyeWVe/c1/S91Q0/2lwj2IsB7LT5d8FJ55w8Fm4b2jne51HBqDhMgTYiYINf9mZT/zwQWasg8l+g5rWeu+L4yZDZcPBgDwGC42HHl3gWgtldHe4wA0R+e6ZHNQ/sMpa3/A0ED3/Y+4HkAQtgU3gXK7wC0hXhMApIPoJwGwMLkZFeBZX9E4WVBCnRZQVjdu8szd3nJSkuub7lwrYaMBJAMDZegyJm956/AR3MhWC7AXFEyt13npRuCkwIZDKHEBAEaDBcxC5OTXbWj3d8AbObrI/BN265LWxWnfNYNGFAzIjLvRYJ3OMYHR/iBgAjlrsRpS97OGtGntRK1Fv7reYTS7HDVjIUbyyr3jhHJz4Ac5/wFJsD3FsO6Xjn1y0q/3rY1LbUpLH0dKCMB9ASgnNq9pF0/ic0iMpfamptjnVySNP2r05UmtOGix3gADIaLmPhI+0YRNAME9O3kBS8Vp/w3D+87CHb+mxA2RtHgPm/OH7834P8Spy15GwASP1+6Neuafi8TeBLwjLOVjAFwX1lk3n5NyjWgPBF4652nQIyoTOW/7br+LaDt6yEyErA7izP8wUsxu/5jAs4BZJYqkLmt5yw11fEMVYYxAAyGi5TMUaMsnNr//3xtEQHJo7CjJjnHrRveOTpMYp4RLQ/QayUUDe7zHgGIAMLfJ36x+BXnHMpy/Uvc7rEAanhjBK4V4H4W8YKfma3XpzaFrd8WCfA5iBB3tpxado/CuZI1PCWRkGGkHg7b3QsITMRTzI8AZDcEMyhqukQfXtLGVMkznCeYIwCD4SJl/dW97iT5ZsAvAeKvHWYu+4OvuWFovxQl+m0AlxdXDdD3o68l4DNtZyx+qrj1tl7T93UI7/E/ZqmkVp8t/Opc5d2TnByZWxMr/FUDfQj+0HLaor+e6zylQQB+c21qFxF9vYiMBHClt98/IGg8AORDsIRKZtgFrhltZy34tiJkMxjKi/EAGAwXIVmjEsPzT/IPvrzw3p38Sbflehnw3gwIy3mWou/3O/YLg/sAR74Af255Ja+2nb6kWOUPALZWHyvKPYDXYHDbwwCcswGQVwOvQtBRvBN4V//4qmmL/nauc5wLMmqUtS3vSC+KPXIHcZ1ouzEQ7M4PegY4BOALgfrCxfwvW043d/IN5z/GADAYLkJyT8SPVkRTX1sEoMLLSdMX/bzh6t69NU+/S43mzgh/wBHl788X4O0VeafN9KUP4Qy0SVq0ZOtX/Q4BqCcARHE4PClvz8q24cm3C+Uuf4fHCtlwSmr8trTHCMWx7u7OYTH7Y1JAjtyed2gEgUuFJe/0vV1fC+UL0prRuuPCtSZi33ChYY4ADIaLjHUDOtdUVuQ3IOr5a/IIjouWRFh8RBH/B0D5xtPp40fQLw3Pw5nboxv8On3yZPtsa28Z1m8yITd4nqWEu/WlCWcpObv9mj7tNNQq+PLle5Y9DMWurT5b9N3Z37h49iQnR+bF6UEaHAlgOIB4/4fFKHy6XLbr0gY78n/c+4rbrb5oP2vRD2Vd22A4HzAeAIPhIoOuyD9CUM8btec9AlAraGEBgKuKpvD1+PhZjDdABDMKDub8Jv2rsyt/z8N6uZAeA0CEeQqdAJSYsW/7Nb1qaFGZcCh/AAUQpreaVnrlnzUqORa5Oo3kyBxIGoSxZxrPqGip0bUna/Toi9hOXS0VGXkpyYmlXddgOB8xBoDBcBGxblCPlhCMDUjaQ0Cg0+jY2xdm7oOjTwK8AULMj8u2RjUroVpgcSjheu30JvDMBoAW10QBrgrqfqT1jEWLznXNTUN7x7uohhMcKbkyCGBkCcF7AAArJlZqdOvNGj37IrZjFzIsINFgbRGJJJl7rusbDOcrxgAwGC4iBOpFX+rcwvrz3s/o0fqFafsDAgS9XV5vANQq12l1bbNFi0qlCJXL3mXblt+4ELJjSWOzhvcdIyI3eYT0eh+ISW2mLX71bOtsu65/HSkoGApylACDBAg/U6CAVSMOsUndEdcrGbGdupCusJKGEsClAExaXsMFjzEADIaLhLUDe11DyNUidF6iLxAgrNAb4D0SOKM3QL7WEWpI4qwz1woojqumLd+/ZWjfbIg3J75Ip+LGZaUldxDRhfn8PdnzVkW6Y0pM87t5RN/GSvM6ACO1290LpFV0VGE5PVeteNTo0RdxPfshum0H0CpmePE0gDEADNUAYwAYDBcBy67pVYO58pqn5a33J4CAT5NyswBtgGBvgMMQ8F31I7YK1OBOny06XhY5CMgmyC4C7T0mBa/YOaRbXIKjdv3OId3i8pTOBBDpeHB/GO2RCTNm5Tnny7om+Uqx9UgQ18NGF/GXIioeV+06HqXfqx9iEtuDSp1peEk0LMtDBsP5hjEADIaLgIgc/XeBJ4WvL5RPgFW7azb8x5UnforyGQBFC/oE+AO+FbcM7DR32Rmj9s8GBbuEaO8zKXLDwi8HsMn3ea6KmABBguORAi38VZsvlv8EAFnDeyWKtoYBGC5a9zrbXSZXnUtQo3tv1OiVjOhWiaCy/AGNZaRBeR42GM4XjAFgMFRz1gzq0RNCT959b7leAjmieHv65Mn2moE9p1rk047NPgBnkKBAgH1E2IBOcxf9VF55BPg2IG1ugb4MXgNg49De9wnk5qBsg/cqYc6WYX2fgeB6rdHCOVlxuC6phxq9klGjRx9EJbQESI/S99c7kHM1AvIBhAf1GQPAUC0wBoDBUI3ZOWRIxDH38f8IoAKC+0Se6vLlih0A0HXuig3rBvXYA1HNAhLse4dTcNAiBrafXfY7904E8mNg5UDVCAA2Du/TiTZeAAqzDQI4KcAfSLtpoLIvqrxVjTjE9uiD2N6p3p2+AklnzkLP+mdW/ocArAGwDMA8ABEAlgeNMQaAoVpgDACDoRpzrODY/wPY2rOL9+6rBQuTeq98BfMcA8mpEPmdJzCP/sh/AkeFalD72Ut3hE4q/hjU0WjdgAE1YedlChDhPIIAUINADX+X04oBwIhIxHTtidheyYhu1wl0hXlkL6xsCNJ/sFF4xFHIjwAWAVgCYAnJ7c4PRSQKgBuBvytNDIChWmAMAIOhmrImtUdP8ZXgLazZe9ii+k2RtLW2mgqlf+dpCLw3BU7a1EO6zF6+CaFE9I+FSYQJgI3CIvLehKC5V8oiOPU+XWGIat8J0b36ISapO1REpMO9H6zsg1S+yH6QywDMI7mcZNaZRCWZIyLb4Y2R8FKn1O9sMJyHGAPAYKiGLOvVq4ZQvw/AAgrz/Yjwjk7zlhc5x+/ce9mKdSt6HSCkvqdHTtsiw7t+uXJNqGVTtvWjbXnsD/H8kw6NWMARbhi0TRcA4Vdehdg+KYjp0ReqRhwIBuQoKLK992z/d8Pjwl/mdrvnRkVF7SmDyOsRaADUKsMcBsN5hzEADIZqiCtSXhHgCjjS+grwUrd5K74o9oEMCAbqrwUcAiJfUUZ2/XLl4oqQza3c9QHl1NX+dLziuKcPAK669RDdOxkxvVMR1qAh6Avm8wYn+nf7ha5+AZApIlNFZElMTMz+EIi8AcCtjrYxAAzVAmMAGAzVjBWpPa4D9O2eFr3KkV/Fxv8yrrjxq/p3u3Stst4gMASALZq3dJ63YnYoZdo4qG8zsXQ6BLcL0NKfV8CHI9EQw8IR2TEJ0b2SEdkhyXttr3BokXP9wDZFcAOJBiQb5+TkTCnjrt/JzqC2MQAM1QJTDdBgqEYsT+3ZVEGvB1HbEWd/XNvo0nPRyl3B49cM6J4OcAKAOiA1gNu6zl3xQShk2TiobzOt7BtF8CsQ7Qs/YdFfPFSISGyLqF4piOrSHSo83BupT++u31eMiELyOxLNCj9HoWeA3qiCwrYQWKqUeicsLOwTkqXOXigirQBsDeqOJZld2rkMhvMJYwAYDNWEmUOGRMTnHVsKoIu/k3ATktZ9/uq5zrFLh/aOD8+zxwO4yTMMIpT7us1d9e/yyLB+YK+GopAO4EYA3QrFCMLboeLrILpPKqJ7p8Cqd6n/XL9QmRdpf1u7dvyVx48f7yzkrQq8kUS9EpR/QJvkSQDvhIWF/ZPkvnN9JxGJBJANR4lkAI3IIrcZDIYLCmMAGAzVhBUpPV4D5X7A4U4Xub/7wtUTnONW9e82EFBvE2jkHyjyRLf5q54vy7qSAbVuZfdUwrobgmvhqy1Qwm8XpRTCWiYiqt9ARHTqCuWySlL2RdpKcXJ8fHy6f22RsJMnTw6BUndTMISE8hsAwd4B+H/OJ/mhZVl/PFdDQET2Amjs6GpzthsEBsP5jjEADIZqwLKU7ukK8jEAZ/m+13ouWPWAr7GiR48oK0b+KILHACjf//4Uyei2YNWfSrvm+oG9GmrILSDuAXB50RGOfH4ErEvrI7Jbb0T0ToGrdl2/a79Q2Qe3izUGxtWuXfu54uTJyclp6na771JK3QmwQaDyL9YYyCH5olLqOZInipvTh4isBNDd0dWbZHCCIIPhgsIEARoMFzhL+3dtQS3/KczcJxDh3HxEPuwbszKlezdQJmmNFs56AABfLo3ylwyodcu6p4LW3TbkOgCuwNzBAVUDwbAwhLXrjMi+qYho1QZQyhEBUFiUyJd3WARfE+wYeJ2vcFIRWV+SbFFRUd8D+IOI/Dk7O/smpazHASQWHzToeQTAU1rrW0VkNMkzBT4eC2qbQEDDBY/xABgMFzDrBnSumeN2rVREK0f39nzJ65GyaMPxrFGJ4b8cjc2A8HF6cwL4IGVit/mr72WJGfWd6/RuomnfBcFvQVzmncHxZyBW42aI6NMPkV16QcXEFLvTdwT5HVWKH9q2/XajRo02HDhw8DiJmsUEAWrLsurWqlUrWBkXi4jwdF7eUCUyjmSvs8QJCMk3ATxcXHCfiHwI4NeOrhtJfnwuchgM5yvGA2AwXKBkjhpl5R7e+xGBViJ+V/t+bemhKfM2HF/Rt0fbX37WkwB0gEPLexX2B936rL6P88+s/Nf079lFE4/YsEdCPL8v6H/Cs6g/q190NCKSeiCidzKsJpd7lGzJewytgZUKnETigwYNGpwu/Eh+BFizmJx+W89V+QMepQ5gBoAZubm5AwD8AyIdirlT6PtaRgPoJiIjSH4XNF3wusEFggyGCw5jABgMFygNDn3/vBBDfPtwERxVWg3eX7fJ98tT+LjA/jPACMBzLOAZRggwNU9H3lEkHbAXyYBatbj7MCo+oiF9i2TTdYylAFbjpghPGYDwTt2hIiIK9avTte919VNhr4h+17b1O82aNfuuhFf7SYDWhXl9PAl9FbCiLN8TAERGRs4Tkc4FBQW3APgLgMbBRYG87XYAVonItSRXOaY4HjRlRFllMRjOF4wBYDBcgCzr2/U2AX7nL+8rchrkCFJOXnb4+/kC9mNxSlvL3F+iat+UNmuWO3jOmUOGRNTKPf6rVUtlHBVaOX0GfvvB94flQli7jgjvlQxXq0S/a7/Yc30wXwFfkpjUuHHjqSSLrB3EyYBzf3jsAIGUK+iOnjwH74nI5Pz8/KeVUo/Clyo50Bi4FMA8EUkjuaSE6YwHwHDBYwwAg+ECY1lyt95a5A1HgZwcoYwA2doWPQtgLAA4Nv0+lkTUcF+bNn1WnnO+Vf27Xaqh7mfesXtB1PVn6fMH9RXu+VkzHmG9+iG8VzJUzVqeMcUoa297s5BvRYSFfdCoUaMjpXhF52z+v7TWZfYABExOngYwLj8//zOl1JsiSCymOnAMgOkiMojkahT9XWkMAMMFjzEADIYLiKW9u7bQWqaCCPeq5RyCY0TwMEXSxLvrdobniQAiWEO3a1jS9NX+s/alA7pcoTSf1FpuASUiKEbA7wAQAFbzBIT1TUVYu86gywWSnr290KGuBRSeoMJHSvHtK664okyFhLQGlfK6/v1H9PJDvXr1imQyLA/h4eGrRKSzbdsvAbynmCFxAKaJSBKAsODHQymLwVAVGAPAYLhAWNKn4yWaMgNAXXo0fR7IjwXyAoC6AAqVdqAhsDncJWndFi8/CQDLBnRuQtv1CGwZAzDCs2sPiBHw/OhywerQBWHJA2E1buKIlfM7+n2iiUCWUfBmbI3YTxo2bOgI6Cs9pCif38ERBLioPHOWvBbzANzrdrtXkXxdRKIY6A6oB+ATeAoCOTExAIYLHmMAGAwXAAuTE2NFu2YCSAD8VfNOUHC702EO+I/ePX3EjjALA7vNX3NkeWrPplrs38ON2wUICwiA8z0rAtapC1evZLi69YKKifVuwX3BBgGxffupMElEv92qZatvQvi68YVHCT5PgCwK4fxFcLlc74nIRhGZBaB+0MddAWctAwDGA2CoBhgDwGA4z8kcNcrige8+FCAJCDjTv0S8B/YEg0/OAWCfUq7BeQUF4Uv7dXtZa/fdBCKdRwPO+Xh5c4T1TYXVrqO3Ap9vF16o/AFogSyg4I3TOac/S0pKKgj1+wpQzxFH4DFORBaGep1gSG4QkX4A5gNoFPRx8I4/+EjAYLjgMAaAwXAeIwAXH9zzBsBr/H1Fg/u85+8A4Nuly09QuEXb9uOKvBOQCJ8ed8YIMDwCKqk7XL2ToS6t7wjzd0jgPOcXPbZtm7avV9wbAxDULXRjEAT21bv00t0VuqYXkt94jYAFAJqeYaj53Wm44DH/ERsM5zELeyU9R43f+lzhAapZgo0Az58UaIDboTFHIJ48AIGDgJo1YfVMhtWjNxgdU7jbLzmi33fu/3RWVtbHiYmJRyvifbOyssIBxDuS/wBSMef/JUFyt4gMAbAKnkDA4rArUSSDoUIwBoDBcJ6yoE+XpyHyGACfH9y7GXcmr/H8HWQIKEBSAz0C3nH1G8DqmQyV1A0Mc6FIrr2gNsl1AJIcdkB9rfFPAL8N/RsDcXFxTX0uB58BQlXx7v9gSG4TkVsBTEXx2Y7PlsvAYDjvUWcfYjAYKpv5PTs/AJE/AUGJ+sWTtEaCMvh6r/ohaKhnnAjY9ApYt46G66FxYLeegMsKuOYH/+X/gPbanJyc/gIccH4O4vasrKz+IXxdP5ZlXeGXwfuH1npRRax1Nkh+DuCdEj42HgDDBY8xAAyG84z5vTrfBeJl8WhwAD5l7sCTGe/MhoBlgR27QD34BNSYB8FWbSB0RtYBAmSXoPw1ibHdu3c/IZC/BC1OEUxct25ddMhe2ovW+opC5Q8A+L5+/fp7Qr3O2RCR1iIyBcAdJQwxHgDDBY85AjAYziPm9066CSL/hi+Uz5dWFwh05QOOq37i7fMq9/BwoHNXoHcKWLuOf+7C63sCEMsBNZ5gS4g8XbT8Lt/p0KHDGgCwCwr+o8Ii/g9AgiP5T/PIyOjXAdwW0i9AqSud9wxJVanufxG5XGudISK/IWmdYajxABgueIwHwGA4T5jfo/Mo0TJJxFm217HPF2evo+ltSGQE0KMP+PCTwLDrwfjafneAd+xp0fKm1qpj9+7de8fGRk8R0aOd03jHHwP0k75+z1U//ZQ4PAUAAMqtWVnb7g7V+3uWlzYOaSrN/S8il7rd7le01jvgMWrOpPwB4wEwVAOMB8BgOA/4skfnUUL8F97/J4sG9/mMAAbc1BMAiIkFu/YEevUFIqMgLFKEdxfB17XtfqdPnz7+srYnT578Faka+OYpDAKUJzt16nzYOUH79u0/2bhp0+cARhSOBwB5eevWretat269PgRfAyho76wAiApOACQitfLz8x9zu90PkYwJrhDoGwagAIHJf4wHwHDBYwwAg6GK+bJHx5sIeV/gcTkHX/UDSjAE4mtD+qQAnZIAV1iw0tcQzKLC+F69es7xVsILgOTDnhkDkv0s7NSp0xvFyemyrHtsW/cWoI5jfKQIJ2/atCmpXbt2x4p77lzZvfvgpYD7Ur9Mgt0NGzb8vjxzloSIRObl5T2Qn58/jmRtb19weWAhOR1ABoB/w5MR0IfxABgueIwBYDBUIXO7d0oXYBIAy++up7OUj4cAQ6BWPKRPCqRTV0+gH+lMCnCUwNuKeL1Pn94lJs9ZsWJNfxHp6E8g6LECTgMymqQU90xiYuKBjRu3jCXlI2dyIFCucLnCP9+3b9/gxo0b55T1u7Asdztn3AMVFpV1rpIQEZWbm/ub3Ny8v5BoUtgfeJUSwAySGSS/8j4XnPEwDwbDBY4xAAyGKmJO9043C/EeACswuK8EQ+CSerD7pgBtOoKKgM/V7wnaWy/C8RERYR/17NnzHJSw/qO/nI9f+/H3SUmdvz3TU+3bt/nf5s2bRwC40bO0LyhQ+pw8mf2RiIwkWSb3OGm3Fyh/8iEJcfrfU6dODcrJyXkeYHs6Mhx5Xt/fnmnbKiM8nGuDHs8Pap8IpWwGQ1VgDACDoQqY3b1TOoB3RWAVOdNHoCGg612qpWc/Je07glRgYUGePAg+Edjj+/cfsPJc116+fHUqKX3gW8NjaKxMSur0yrk8r7W+SymrpUA6MNATMGL79u2vAyhTYCDJdoUtgdahOf/Pzs7uKCLPkRxYUsIjEcwBkBEWFraqhGmCDYCToZDNYKhKjAFgMFQys7p6zvwBWIXBboFp+AWA1K2Xp5MHREirREWlvOfTAgH3KXAiIW8OGND/YGnXJ+WPQYrwtFL8bXFxAsXRvn377K1bt15ri6yF4BLA77gHwNHbtu042bJli0dLOkooCQHaOzbmOxs1avRDaZ4P5tixY00ty/qL1vpmksoTVxDk6xeZoyzrz2FhYStKOb3xABgueIwBYDBUInO6dbxBAM9VP3/CW8BpCKBmzZM6eUAN3bZjBBR9gWkiWhYK1PjISNe0lJSUMgWhLVu2LEUgfemo6yvEY0lJSdtLM0/r1q2/37Rp6w1UMleAcEccAUj87ptvvokVkXvP1ajIysoKh6Cl40xjUenerJDjx4/HA3iKVGMBRPo/cHr9RWaIWH+Njg5fc47TBv+uNAaA4YLHGAAGQyUxu1vHkRr4iL7/73zX6n2GQGTUcXfKgBjdqWsNUvnS+J8kMMl2q/HDhg3cVp71RYTLVqx81nnuL8DM7l26lKm6X7t2rZds3rz5JlJ9DKHLWTQIwrt37NgZu3DhwtvOxViJiYlJBBDu8yWI5pLSyrNnz57I+Pj4sQCeAhgfqPEBUjTAz0TkrzExMV+Xcvrg35XmCMBwwWMMAIOhEpjVpf31Io9+PvsAACAASURBVPIRSFfAOT8AcbkOu5MH0U7qWpeW5XWlyzYC490FBZNGjBgREmWzdMWKXymwq0P5H1KQ35bWVe+kbdu2n27ZsuVWkO8DsByZAkHi1w0vu+ySrKysG89ePVB1DLgBQH2uO3OIiDp27NivAfxVRJoCRFCQnyYlUwR/i42N3VLGVzUeAEO1o7gqVwaDIYTM6tL+eiH/ByDMH9dPAFRH3F26/Wz3G3AVwlwgCYIgOX3YsLQR5VHMwcycOTOiRlytbYQ0Iz3HCiSu6dGjx/RQzL9ly7bbqOQtkpb3HbxGAEFwF4kRCQkJW0t6fu/eva8BuN9zs4FHGzW6rO65vP+RI0cGAngeQAfPmr7vECDpBvkRgb/HxcWV6ogjGBHZAKC9oyuaZJmvPBoM5wMmFbDBUIFM79r+OoFH+QP+BLe5iI79R84jT8a6UwdfJa7grLP67VAqfwCIqVFjLCDN/CuAE0Ol/AGgTZtW7xG4AYLTgD9dke+FrwSwcteuXb8q6XkR6ViY7phrz/b+hw4d6nDo0KE5WsuXItLB/6jnjwIAb4lIy5pxcbeWV/l7iXf8XGCUv6E6YAwAg6GC+KJr+2FK+D8BwgoL92Cem2yX88DDH8JyRQRU8/NU+MvPycmZF0o5lixZcgnB3zvqAuzIjol6JJRrAEDr1q0/A6Q/gMO+heD9QYA4Efxv165dk3bu3BnnfE5ELAHa+8aTUqL7/8CBA80OHjz4vgBfARzkqF8I0cgD5HUACbVq1bqrVq1aZ8xpUEqcBkC5Mh4aDOcLxgAwGCqAmZ3apUIwGZBwABDgqBaMSVu9YdDw1Rt2ilg1i1H+AGRTenr6qdBKw+cgEu9dpoCQWwa3b58d2jU8tG7depXWdk8INvv6ggoZ3UKlNu3evfsaX8f333/fAoIY32g3sDp43kOHDtXfv//AqwC2C/AbSMDvrhwIXgF089q1a98XHx8f0vTBIhImIrGOrgOhnN9gqCqMAWAwhJgvOrfrphU/E0GkAALK+1pbVw1bu+ENX0VfEanpf8CpIcldoZRl8eLFPUXkdv8KxJ969eoVnOUupCQmJu7Kzj7VncS7wRUEva/aVASf7969Z9r333/fGkAn36cCIMKy/B6APXv21Prhh5/+5nbbuwAZCyDc4Vk4BeCftm03q1u3zkN169b9sYJeKR6B8VKlzr1gMJyPmFsABkMI+aJz27aanEmgBgQ7lZZ70tZvWhA8TpQOC7iLD6+G0QiZAZCZmWmJYDzpz667bP+PPz4bqvnPRFJS0mkAd2z/5pslELwMoEZhsiAPAhluaz2U4D5Hbp49DRo0OPzTTz9F27b9AJV6goD/Sp/3PU6J6FdtW7/QsGHDnyvhdeKD2sYDYKgWGA+AwRAipnfokKChvoQgSsA/qV+y2xan/L348+U7jwJEEDL3dd169e4H0MHbPCHavjU9Pb1Sy9i2bNHiHa3tdiLak9ffERfg/UsBaFpY5VDW7927917btneBfBZSqHwFyIbwea3tZvXr13+qkpQ/YAwAQzXFeAAMhhDwWZc2jUXruYBsJ3Dv8HWbzxZ5bnvy5Th2xQKIkpCUmZ0/f35TCv7q9y4QD/Tr229PKOYuLa1atfpORPrv2rXrHgB/B6SW776/L/NfYZvXARjpLQfs+/w0wH8r8rn69S89VNny27ZdWynlLBdsjgAM1QLjATAYysmn7drVU7b6gMTTw7/anDr8q7Mqf1iAu/ggQATfCSw1njL2aiKAGp4VmNmvT59J5Z23PJCUhISE1y1LtRRgkvOeYGCQoChHOweQl/LDwpo3bNjwkfr161e68vfSUEScbeMBMFQLjAfAYCgHmZ0711SSfzMZPnL4uq/O2SXtdvOosvw60L/dVcJyG+ULFiy6jcRg7wb6B0vhnvLOGSq01kLPNboCAOFBO32fJyBfgImAfrZx4yY/VaW8ACBko6CMacYAMFQLjAFgMJSDmgUF7sGbNr9Y2ucsSx+UYoIAReSS8sizcOHC+lrLC+LJhqe1jdv6JPep8nvrWVlZsVZ4+P1a5CmCcZ6SxoFBgQ7ClIKcOHGyss74zwhFGgdUEDQGgKGaYI4ADIZyMHjTpjLdp7dt2+/ODjgKgFxVHnlsW78h3qA1Cl/o379fSUGIlcK6deuit2/f/oTL5fqeIs9C4E0C5Pd+nPT94HD9U0QerBEXt3Tv3r3NK13oojTy/eA9CihXmWKD4XzBGAAGQxWQnp6eQ+Dn4DgAAC3KOufcuXNHAxjubW7Mycn+f+UQsVxs3769xrZt28bFxMTuAfisALUd5/wiwGyIpJF41qH8C7yf+9pdSa7/4YcfbqmKd/AhIo28fwPAEZK/VKU8BkOoMAaAwVBFaEFhZTpvEKAArRcuXFjqo7n58+c3B/iCV8fmEnJzWlpaXsiEPUc2bdoUn5WV9bRt6+9E8AyAeo5kQCdJvGbbdquEK68ccuWVV84SkU6+nb8IniIxToA8h10UJ8CkH3748ct9+/YlVPb7AADJRo4YwCq5SWEwVATGADAYqghCPAZAYNmbuGPHTvYqzTyZmZmWbev3BIj1zvdEampqVojEPCc2btxYb/PmrL9Rqe9E8CcAtT2iCCD4EZAnXC6rcUJCwgMtW7bcAXhuKwjQ038aIGpR06ZNn1NkEsCvHccEADBQKbVp//79f9y5c2dEZb2XiMQJEOevOSCyu7LWNhgqGmMAGAxnQEQoIhVSNlsEW4IuwwECWBbTSjNPzZrx4wTo5Z10Tv/+Ka+GVNAzsGnTppYbNmyaSKrvBfIUAH+hH4FsIXCH1vYVLVu2fL558+YBrvM9e/a0BdDA2zy+d++3GwCgSZMmWw4fPthNRP4sKDwWABCpRTJiYmK37t+//1YRKfeVybORn5/fGIFXAI0BYKg2GAPAYCiBSZMmxQCeO+wVMb+IvRQIDgIERPQ152p0zJkzp69AMrzNn23bfUdFyetkw4YNKV9v2DBda9lK4m4BIuF39XMRiaGtW7Vq16pVq3cTExPzi5vDrfXgwt2/np2SkuJPgpSUlFTQtGnTPxJIArAKCCiZcAWA9w4cPLhl//5D6SJSYb/HLMtqEtRljgAM1QZjABgMxTBhwltXARWn/AEgPT19q4gU3nMvjANoOW3atMFne37OnDn1tOAjeK/zEnLP1Vdfvb+i5N25c2fE+vXrb/nqq6/Xa5EFEAyD9xo/IDaEkwHp0qZN65TWrVvPPOt3pzHK84MAwPTihjRu3HhTo0aX9dLkWIgv+M4fJNiSlI8PHTq04cChQ3fu27cvKiQv6hRRa78BICLQWhsPgKHaYPIAGAwOMjMzraNHj6aS7uW33nrn6QpfkFwAT3nbgLTAIupxALNLeiwjI0Nprd8HVUPvA58MHDRoSkWIuHr16mZKWWN++eXEb0FeQgog9NXHOw3R75DqhXbt2pyzcty1a9eVIugCAALkEPiipLEkNYDxe/funepyuV4W4AZn8iCAbSl4MyIi4rnDhw+/5XK5JoSqJLCINCEJEYAEXC6XMQAM1QbjATAYvLzzzjuRh48evaF27doLxowZU/HKHwChpwdVzPU2dMrnn39eYjBg165dnxRwkHf8EctSY0Mpl4io1atXD1u9eu0XpNoF4AkAlxTKh8MAM9zugqYdOnQY265du1IpRtuWWzxTCUTj0+D4gOJo0qTJTw0bNhwlmqmAbPQH5hUOqQPgcbdtf/vzz0fmHzlyZPSJEyfqlEauYEg2caziBrCvPPMZDOcTFRLcZDBcaLz44ou1wsMj73C51GtjxowpqKx1MzMzo5Ry7QdRkyQIegrOECC5Iz8vt2N6enqO85mZM2f2E3A+ScvjMeAtQ4YM+iAU8qxevbqZbcstSvEOkJd7RPHJRJD4FqJeAOx3vSV/S83ChQtdl13W6DsQl5GEIgc0b958fmnmEBFr//79d1GpvxC8xCOeV0ZPFkRfu4BQ85TCpyIyLz4+/rvSrJOfn78YQF9vEaAdYWFhLUvzvMFwPmMMAMNFz6uvvtpQKddDtl3w9IMPPljpd+c/+WTKmyDv9BkAXuUPr3J85Zprhj/kGztnzpx6Bbb9NcGG9OTTnZGWdvXwM81/NlatWhVXoPUNCuo2QvrQszgClb9aqyj/2L1796flLSm8Y8eO60h+Cs/7fde8efPmXjd/qdmz51it6Oj8JwGMBRkdpPyDjQEQ3EVinlJqvsvlWhMVFbX3TPPn5eXtIXm599/HFJfLdUOZXtpgOA8xMQCGi5rXXnuthUD9C9A3VYXyBwCt+a6ycGdx5YE15IHPP5+xdsSIYR9kZGSoggL3ByAbegoH4BSg7y3LmuvWrQvLzc0dIMJbCtz2tSSjAA2QcByvayrMsIkXe3TpvChErwsAj/qKAAn4blmVPwA0axZ/HMAThw8ffklr+b0Ao0lnkSH/2/iKLl0J8EoRuaegwI2TJ0/+THK9UuprrblJKdkjIt/FxMTsFxErPz//Mt9aIrKlGBEMhgsW4wEwXLS88NpriS7hVEUZNnbs2G+qUpZPPpmyHGRP384/wBOgWKCAMYC6DMRfCo8KZFxaWtpz57rG9OnromPisq9WwutIDCUZD/96jl0yeQyCtyyLE7p16xbSa2/bt29PBTnf61nQtu1q3qpVs+9CNf/+/fsvtywrg1Q3k3T5d/8OT8A5tnNJ7CXZwve5Ukx3uVyTQyWrwVDVGA+A4aLkX6+91sLSMpeUe8aOfaBKlb8H61lATwNQWBrQh0aYEG+DoukvHSjfnDp16qxVCBcuXFhXaw5RSq4TnhpMYbTvs8Kdvvh2/psV+Fp4mOuDsp7vnw0Bfu/blJOYFkrlDwANGjT4DsDt+/cfywgLs38H8E4Bop1fp2f5wi+5hHYkwBbOz21bGw+AoVphPACGi44XX3zxcirXUpLTH3pw7H1VLQ/gyTg45dOpGwi2cwQBBgcF+s+0lWJaWlrarOB55s2bV0dr3RdQyVRMIdmG3u0tHbt9RztHEVO0Vm/27dtzcUW+47Zt23qCXO57J6XYMyEhYWVFrnnixIm6BQUFY0neT7JuCXEBQe1CT4A3+A8k88LCwmJJus+8osFw4WA8AIaLimcmTIiXfPcXBMK0XfBUVcvjg6R8+umnD4tgvsARBwDPVbmANjE9LS1t1vTp06OVimhN6o602IFAb9vWbUgq/3DfBXYEtgl8JZC3tNv9Ud+UlOOV8Y5C+nf/Ilhc0cofAOLi4n4GkCEizxw7dux6gneD0s//pRQbJ+CQufDr22GUv6G6YTwAhouGjIyM8LiateeQSIbCbx5+8MEPq1qmYD759NOPCaYXdyPA0f6GZA2CDTzH0wzwDpTcxs8APwKst1JT+2yszPfaunVrd4Ar6AEk0q666qoiHozK4MSJE1dprX9LqhtIXHGOcQH/DQ8Pv7kq5DUYKgqTCMhw0RAbV+tlQJIFsuL/Hnjgv1UtT3G4lHoUYG5QeYCARPgAWkDQIKCKgPfzom3ZD8EEiO7/88+H66emJj9Y2crfU1AJL8J/uUA2tmjRosQshxVNXFzcjlq1aj1Rs2Zcc6VUBwB/EmA9IP4dfnCKISHN+b+h2mGOAAwXBf944YU7CNwDAND4Z2UUzDlXMjMzrwSsVCr2d9s6hWCkJyjP6/r3uc3hzH7rOBgo0uZ3AvmMxJTly5avyMjIKPM1u1CwdevWXwPs7hFVQMHz58v3HxsbuxHARniOCWJyc3OTNDCOIlc7j07EttdXmZAGQwVhDABDteef//xna4ia4PGgy7eXNWo4rSrlef/9KQ2scHd/BaSCKhVgU/j1oe9o+ixxAHCe38kPArVSQRYocv6gQQN2VsZ7nAvr1q2LFsGzLDRgtrZs2fLjqpYrmGPHjtXKzs6+XSl1DwRXBcYBiERERKytOukMhorBGACGas3EiRPDTpzKft9zrQuwoV4ubya70vLhhx/Gi6hkWkilsD/obuWJO6MnGU5Q8p9StL8npHdaWtoPlfk+pSEiIuJxAI08LYFo9RTJSv3+z8Tx48eTlFL3krwRQLTW4t34+4oyASR2kTxalXIaDBWBMQAM1ZpfTmY/SaATKBChDV3wUUWvOXHixOiIiJjeSqE/yFQt6EiKBU1vEb1Cn35hUT2U0D6jMdBUCwcDeKui36ksbN68uTHAxwC/6395YmLLz6taLhEJO3HixEgRPEyia2E/QMeNAF9bBGuqSlaDoSIxBoCh2vL88883h8iT8JVzBdY8+uijP4d6nYkTJ4a5XFHdaCGVkP4kuxMS7lHVwcq+xPZRIVYC0ohg+yLJgIpPawsQz8+ZM2f64MGDD4X6vULAeADRHuVPgBhXlcIcO3aslojcffz48bEgGxc9Uik+ORBJ4/43VEuMAWCotgjUSwQiRcR7lQshuXaWkZGhGjVq1F6EqVTsT6g+oI71b99L3Nn7lb0IZQeAlSCXK8jKUaNu2LZo0SLryJGjux3DziUIsHZBgX4BwG9C8W6hYtOmTb8WwXAUfg/TEhMTl1WFLIcOHbpSKddDWuvbScYG1wkIsq02CfCTMwhQa208AIZqiTEADNWSvz//fC8Aw5yZXEgpswEwYcJbV1mWO5VUqUKmaGEd+jfjPrd8ifvI0xSsJblcNFe67fCVt912/ZHgNT7+5JNhCmzMgDkBABsFyCMc7moUGhgkbp45c+aXaWlpk8r6fqFk48aN9UT4MnxGjyibCpWedOngwYM9lVKPAbwG0CpQ2Qco/3yB/hTg+Bo1aizLzs4e75imICoqakNly24wVAbGADBUSxT45yA1ap84cWLTuT7/yiv/aWRZdiqI/opMBe1GAv9RQqEC8dsXAdv0fRBZLsRKiqxo3LjxhpSUlLNmkaPIfQCLVgQU/B6wtlhh9noIahcXFwDw9S+++OLroUOHbj73b6liEMEroNT1XkmEQP6dmNgmq3LWFh48eHAYycdB9nae6xdTIfAHAhMtS70ZGxt7wDFNu8L5uJlkTmXIbjBUNiYToKHa8cwz/+pIpdcDATnd9zz26O+uKOmZ1157rY7WTAGYqhRSQVzlPf/1HR8guO3JzMcCkl8rYqUIV2jtWjF69G9KHZX/v//9r4VSru3wJMpzZv5bNvL66/oAwOeffz5UwOn+bHpFM/99A+guaWlpJ8r41ZWbr7/++lpSTYX3+yF50LbdLTt27Fih6YazsrLCa9eufRPAx0gkFmbyc+T597QFkAVKqQm1atWaFpzeV0SYnZ19jGRNgFCKr0dFRZ0X9SIMhlBjPACGagfpvl+ksJALAIiWXc4x48ePj83P130ApFJJf7ct7Uko/331ksPzf4bISoArbSXLabvXjRkzJgSV81wP+GvyOYIERdHvOh8xYsQXn02b9v8A/K2EZEAtQE7OzMwcnp6enl9+mUrH+vXrLwE4wbnJJvFYRSr/w4cP18jLyxtNqodF0Chgtw/AcQzzC8FJInpC3bp1t5c03/Hjx5uGhYXV9D0lgqUVJbvBUNUYD4ChWvHCCy9E5eYVHCIZ66zmBvIti9YkQPcHmUqyG8mwYqrjOdua5DZCVgqt5RRr5X333bkj1DJ/9NFHDZVyfQsiMrACIGfeMPK6ocHjP/98+lskfwuHpyDQE6AyV69ecVNlZgAUEa5fv2E6FYeycPe/uF27tikVkfVv9+7dl7pc4Q8qhXtBxp+hwt9mISdQ5IN69eqdOtu8J0+eHAnyE8/XSZBsFB0d/WOo5TcYzgeMB8BQrcjNLRgMItbfUVj97k6BvrOIxSsC8Sl94BQgazS4XAlWFhTkrnz44YcrvFIeaT0pkMigzH82RT9Z3PgDBxrcU7/h/iYEBxSOd1rzOr1r955HAdxbcVIH8tVXGx6kwlCHt6RARN8fauW/b9++K7WWR0jeTkqkgMXdjswHZSqpJtSrV29JaeYXke6+oksisjMmJsYof0O1xRgAhuqFQpqzkE5QytzghLrfCblCASsVZfnRo0c2Z2RkVGrJ1w8+mNJIYN8VnPxHgW/ccMMNxQYtjhmTVDBnzpxr8woK5kDQq2hQIEDIPbPnzJFVK1eOrWhPwNq1azuC8pxnffquML7YsUOHkAX+ffvtt0mWZT1u2/p6kpb/36XjbqSAPypgostlvXnJJZfsL9tK7O77r4bk4lDJbzCcjxgDwFC9EPbx13Lz3v/3ki8a66GwUoHL3QXWyieeeOCnKpPTCy33OACRgcmBeCw/P/zpMz03ePDg7JkzZ6bZtswD0AVAMcmCeG/Pnj3rZGZm3lJRMQFZWVmxp3Ny/gcgAoXn/ttPnz6dEYr5d+/ePQjA4yD7O29cOJS/ALJQU01o1KDB58FBfaVBRMJOnjzZuTAToBgDwFCtMTEAhmrDs88+W1MLj8F3U89xrg/hgCeeeGR+FYsYwPvvZ15pufQWkhHeGwUgAUX14KhRI189lzlmzJgRL+Bsgl2DbgQ44gIwNzcneuSIEb1Phvod1q5d9x7IWx1n5m5tqd5J7duvLuucCxcudF12WZNRloXHAXZw3CjwnvEDBE+QnKS1PeHyyy/fFop3+eWXX7qSXO2LI7CUahIdHb0vFHMbDOcjqqoFMBhChZtMQDFGrYhAKR1XBSKdEVr2S/DtnAF4PRdbjx79+d/nOsewYcOOhYe5Ukn5MvCwXRwnIRwYFZWzbt68ea3LLbSDtWvXjhXgVjhWEsHzZVX+O3fujNixY8etjRo1yiLlvyLo4Jzbu8IOAuO0tps2adL4gVApfwAQkYGAd0WR3Ub5G6o7xgAwVBuUjSZFOsV3HKBqVrY8Z+K///3vcAL+CH+vuhZN3D9mzJiC0sw1ePDg7Ojo6BEEPvNOFqg2RSBACy1Y+eWCBdeEQHysWbOmnxa84FxMgM1xcbF/Lu1cO3bsqLtjx44/aq1/APmeCFr4ZvR8KygAkAlI8uWXX96yadOmzzVr1qwigjMHepc15/+GiwJjABiqE0WUvE8RCnWtSpalRN55551ILXgJQKCyFrx906hRi8oyZ0pKSm529qkbCLzq3PsHbaDjaOvP5s+f/0xmZmZ4WdYBgOXLlzcVwWQAYQ7lXyDavi0hISHvXOfZtm3b5du2bXtFa/lOBBkC1A0S/ScCGZalml5xRbNfNWvWrMKU8qFDh2JJ9hCvxQFgUUWtZTCcLxgDwFBtIBHlbIs4XdOMr3SBSsAVHv4EgCsKlb8AwEGl8Hh55k1PT7fT0oY8COFYAG7f9jnwhAHUgnG169RZtWDBgsTSrrFu3bpo5XJNFeASv3fFs8pTXbp0+fpc5tiyZUv7LVlZH2otO0XwAIAYCXRbLAIk/Zfjxy9v3rz5ny6//PIyRvSfOxEREf1EEO47ACA5t6LXNBiqGmMAGKoNGiwxIx9FJ1SmLCUxadKkNtB4Mkj5g5D/S09PPxqKNYYOvXq8aAwn5Xig8ncaA+wognXzFiz4XWZmpnUu84oICwrcb0PQEU7jCvi8S+fO/zrb81u2bEnZtGnLLAG+huDX8N5C8ir/kwBfV4ptWrRISElISJiclJRUqqOQ8qC1HuT7WUQ2xMTEVLjRYTBUNcYAMFQbFPhLcf0iAg2WercbajIzM8NBTgIQ4VT+EMy88cYb/xfKtYYOvXq21joJwEbfIsUECUYS/FfdS+qtWrBgQeezzbly5crnBfhVQNAfsCc/IvyOkhL+ZGZmWl9v2jRq06ZNa7SWBSCuRkCSZdkGkbEul9WoZcsW9yUkJFRK0aBgSA70G2Pk7KqQwWCobIwBYKg2aC3fF+317bBxVUZGRpXmvTidm/s0wI6BvTxOyj0VsV5aWtq3kRHh3Ql5KzgoEIHtJKXUmgWLlkyaN29eneLmWr58+X0CPuoZ7+/OE22P6tOu3bHg8du3b6/x1YYNdye0aLGVWjJF0MVv9Ag0wBkkBrZu1SqxdevW4xMSEqqsgNGRI0caiUgrR1eZy0YbDBcSJhGQodrgcslOW0PDYdgWJo9BRHhs7JUASiwEU5FMmjSpm4BPODL1wZv8Z+xNv76pwq6bpaSk5AK4a/aXX64C8CIEsYVVi+H/grRAkXKLyxU2eNGiJRki9n98JYyXL19+o4CvOsd7c+U91L1796+c661evbGZy6UfyD6dcyeJOO+lfS9yAKL+Y2v3xA4dOpxPKXYd7n/8EhdXY1VVCmMwVBYmEZChWvH3Z57bCEc9dwCOZEC4e9y4x/5T2TKNz8yMjcnJ/YpgC1+yH2/Rnsm/+c1N6ZUlx+zZs69UynofZPfiiwg5iukobqfIOACnqKyZJMODPn+hR7duj/jmXrt2bS9APUziWpIWHPORXEZivMvl+jQxMbHSqxSejWPHjn0CYKQn/S+m1KpV64aqlslgqAyMB8BQvRBZDLJd0W4BiGEAKtUAEBG+O2nS2xC2CNz5ywFlSaXWmb/66qt3LVy4sE9Bgf0UgD+A4gosJ+zwDGi0BPkZSBuA5XSlgJjcvWvXxzZu3BiTk5N/MxXuFUGHgFK8ItlU/FBra3znzm2LrWlwPnDgwIEYERniM1gAmPN/w0WD8QAYqhV/+9tzKVRYENzv3Ylm5+Zk183IyMitLHneevfdR5Twn4XlhuHNYs9ht95688zKkiOY+fPnd9WC90m2KKkksn+372yDy0h5kLTuIHEryJqO8r8AuYOQ1wG8m5SUVGxQ5vnEkSNHbgA52ecN0Vo3rlOnzg9VLZfBUBmYIEBDtSIhodkSQEo6X46JjI1NqSxZ3n777X4Eng2Imff8/VJVKn8A6N+//xptuzsJ+O+AhAkAnPf7g9viOdf/CpAHBKjpDeqzSXwGyKCkzp1aJSUlvXwhKH8A0MANviuSADYb5W+4mDAGgKFakZ6ebhOcWOIAW26tDDnee++9ywT8GNp3zOa/jbA2MjJiXGXIcDYGDx6cPbB/yr0k/lGcsi+uTZF28NYcBGBD5FnLUld06dLlui5duswt6Trg+ci+ffuiLGft9QAAIABJREFUKBjqeNvPqlIeg6GyMQaAodrhcqmJAE4F93s3utc///zz9Sty/UmTJsW43fZUCC4Nuu9/HJBfVVRp3tIwd+7cmnPnzh87b978LVq8GQgL0/p6fzizMQARC1CdAVRawp5QEhUVNRhArKNralXJYjBUBcYAMFQ7HnvssUMQvubsc3i5wwXq0YpaOzMz08rLd39UeO/dJwCgKaNvvfXWPRW19rkwe/bsTnPmzH1DhD8C8qoAiT75gtIG/+zvBorLHeD7YaDb1htWr179axG5oGKKRHCDIx/jd/Hx8eeUythgqC4YA8BQLcnPD3sOwIHiPhORe1944YXLKmLdY7+cfBkiwwPO/QUQ4Su/ve22TypizbMxY8aM+FmzZt03a9actaD6CsRoQGKKyQz4PcFnFdFORMYXN1eQD8DXrgfww7Vr1y1YvXp9+4p6j1Cyc+fOCECGAf7s/2b3b7joMNcADdWSjIyHjz/zzHOPCvBB4CcCgNEFBfoFAL8K5ZpvvPHmo4Dc779a571Up4GldkFOhXkdiiMzM9OKjq4xQCncDvBaASJ9t/iCrvQdhujJVOq/KSnJK3xn+IsWLX4jOFlQ0RxGCL5CmExlf7127dqpSqk/de7c+by9/lerVq2BAGp6riwCVGIMAMNFxwXlsjMYSsvfn3nuvwBuAnzX2ByJgRSue+LRR0MS+PX6G2/cqMAPASr/dT9Psp0ftXZ3Hj169MFQrHM2pk2blkhaN4O4hWSjosl+CBKnQPUZLP43XKm5vox/PpYuXRrvtvVhklbAdUCoMUqJAHwaZKMzXhckBcQCinpt9+6d09PT0+3KeP9z5eDBgx8qpX7tSf7Dg3Xq1L6MnpwHBsNFgzEADNWajIyM2PCI6LWAtAQKlb/XGDjistjxkUceKVcq3gkTJ16rwEyCYUH3/fNEmDx69B0Vmlp26tSpl5OuG0ncRKJdkLL3Ked8ArMBfuR2508bPnx4iZUTFyxYnE6Fj4OU+/fRUZEJSUlJBQsXLowMD4+6H5BxSrFusPIvNBj87f0ApwBqcseObZeR1BX5fZyNQ4cOxQI4ADCGJJTif+rUqXN3VcpkMFQFxgAwVHv+9rd/tKHSqwFEO5Q/SEKRG7V293niiSdOlmXuCRPeGEIlnxEMD1L+EKXuvvvOOyok8+CUKVMaKOUaqSE3KbIHQXoUL5zKPw/EPMKaYln4/Oqrrz6ncsMLFi6eTWBwoOdA7uvbt+/rznGrVq2KE5EHQeteQhoGKP/A5ECOttoPYIpS+OTIkSPLg70PlcHBgwdvBvmBz0CyLCutdu3apgCQ4aLDGACGi4Jnnnn+JoF8QFIBQZ4AwfzTp2OvycgYU+KuuDhee+3f/ZWFGQQjg5U/yVdGj77zoVC+Q2ZmZhNa1vUKHAmwJwhVmLnPr/xzQM5WUFMiI8NmDBw4sFQJeb5cvDjBpWWHZyrfTp4/ZmefbJ6WlpZX3DPr1q0LKyjQ1yslY0HVu2TlX6R9iuRyKC6G1ovz8vLWJiUlVfiVwoMHD84EOMR7TPNL3bp165Gs8quZBkNlYwwAw0XD/2fvzOPjqsr///mcO0laSumWZu69MwmhtGwBBAoIyL5TpOwFQdkUEFkU0J+7IuIXFAQUkF3cEKiAILRWQMsuCgURu9BSCO3MvXe6l7a0Teae5/fHJOkkTTJ3kpks5bxfr8CcO88955npzDzPOec5z3P99T+7CMRdaDFurQa7xRy9EIZNJ37rW9+KZDB/+atfHWRB/ZXEsJZ95Px9/+kjR24zuRT73lOnTt1RhCeBciqp9s7N8/Nm+rnx1oKcpiiPDRkyZPoxxxyzrqfj/f0f/7iZ4JXt9/V58SGHHHRPlPtff/31PQFcBPB0kGOKcAZAch2If0L4hmXxTcuy3hw/fvz7pUwuFARBDcA0yRgJQKnf1FRXn1+q/g2GwYRxAAyfKH5y/c+uVMTNHbcCWszqu6RMvvrqq+d318ftt991FKj/TDLP+Lc5E+80bRx64BVXfL5H9e0feOCBIVVVVYdCqUkEJxHcHu2di1bjv4qKT1Gsx1avHv63888/rNf1DWbOnLm11rKI5Ki8ff05IvpTxS7Vv/HGGxUi6khSn0mqk0Bu08HYt1QKLtherRTfAvgfIWYrYHYsFpu73XbbrerJa/R9/zJS3db6fopYx8TjY57pSV8Gw2DHOACGTxzX//TG7xK4DtgsKBAk10Lhyq9feeV9nd17222/OgnEwySqcsa43dJ/JhtTn77sS1/6sBh9HnzwwW1DkeMUrONBHE62xCogb5aca6eEnEaLTyCb/UepMwo+++zfr1GKP8wP6gOsEw477KCne9PvzJkzh2yzzeijSH0cyWNJbhfR+HfXThOcS3IOiTkA5mWzQ+ZMmOAs7U4X3w9eJbF/S2GjTE3NWBP9b/jEYhwAwyeS66//2UVUvCO3FNxhJYCEgM8hxq9+/Yor5rTec+ttt31eQT1AItaJ8f9YKRx+8cUX/6vQ2NfMnBkbt3jxZ7RWk6gwicSunRh7gAwJ/BsKT1vk9ClTpvynXO/HzJkz7TDUC0Bu3Tq+UvjHoYceekSpx3r77bd31MBxCjya5Gc6rg60D2Qs3G4LVsy1l5OYQ3IuyblKqTkA3nVd98NMJrO91noBW28S/tK2a0oap2EwDCaMA2D4xHLDDTcdA4WpCtgGecY/t5JPkGym4u8ltK63LH0kyDtIqrznW41/llQnX3LJRV3OlO+7777xtKzDCHUUiaMAjsyPG8iLI8gwF7k/AwhnnHXWWcv64r145pnn7qLixXlxBU1aqz2PPPLgOYXv7jlTp061GhoadtMaBymFAwF+BkQiorEvpr2W5EoSta3PA7KfbdsFHTaDYUvFOACGTzQ33HDzblR6GsnadkGB7ff1Q5KKLSftOj4vUBde9pWL220Z3HvvvUlAHQ7ycACHkazrMLtvNf4fE3wJCs+KUs+e87nPvVPKoLcoPPfcc7uI4G20rIa0rIf85IgjDvteX+rRyrvvvpvIZmVvEvtQYR+Ce5Mc3Qvj31l7YTxeM6Gv32uDYSBhHADDJ54bb7yxRqB+S/JYAB2Nf7dtgtdceuklP7rzzjtrSB4mVIcR6nASE1qXtTss7a8D+S8CL4nFF9euWvXKFVdc0enxur5g6tSp1ogRo16i4v6bZtpYOHTokN0OOOCA9f2lV0fmzp1br5TaA1B7KMU9Se4Boq6nzgAgP3Yc5wf9+6oMhv7FOAAGAwAR4c9+fstVCvg/kpWbxwUAnRj/+SBnkDycRANbLH3e8wC5TJGvCuVFaPWK1k2zLr744gFTPveZZ565SsCf5xl/AdTRRx552HP9rVshFi9ePLqpqWlP0toDCntQsBfJXToz/h22WSAiu7iuO7e/X4PB0J8YB8BgyOOmm26aCGU9BMGE/KDATvb9O2t/RPIdkLMomKWUzLrwwgvnDNRl5ueee25cNtT/JTmsxfiDVHcceeThl/W3bsWwYMGCbWKx2JkAv0Zy5+5n/wDJNx3HmdjfehsM/Y1xAAyGDvz0pz8dHotVXAeqS9lSEKeLIMG2tpC3XXrJxV8dqMa+IzNnzoxt2LhxJqkO3PSa8J5ovUdvEgn1JQsWLGhQSl0G8gtsyesfaSsAuMp13Vv6VXmDYQBgHACDoQtuvvnmfUF1N8A9osQFgOpZhfD8Sy65JN2/mhdm+owZNxD8Zt7SfyiWOviYI454tb916w4RsebPXzhZKVxG4vBuZvprlFIzBDi9w/NNikw6Tvf5AgyGTwKqvxUwGAYqV1111b8/Wr1qH5D/D8DHgEDaze/btwl9lED9984775nSx6oWxbRpM06E4P8BACT3HxFcN5CN/7x583ac++6718+fv+BDUh4HcHiL6i0IBAgh/Bsgn6+oqLC11n/q8DxE42lj/A2GHGYFwGCIwE23376tFeqfEPxc7khgl3EALW15KmZZl3+pyKyA5WbGjBnjQ43XSYxs3RMX8h9rVq86uhS1C0rJwoULRzQ1NZ0B8FwQBzBv5aVDZsD/CfG7yljswbq6Oq/1/sbGRQ8pxTPzgwAB9dlk0pnWf6/KYBg4GAfAYCiCX/ziFxOF1s8UWpafuw8KXEelfgSdvXUgRP4/+eSTw2OxipdB7t5q/EEGFTFrjyOPPDLT3/oBuWOJO++88xFQ6hwFnkJyaBeZAJco8iER+d2ECRPe7NjPBx98MEQptYRUw/O2BrxEwt2WZJ+XIDYYBiLGATAYesAvf/mr40H5KcmG9nEBmx85Izkbor510UUX9Cqnfm944403KvxgyVMkjtmUjAhZRRx97LHHzuwvvYBcQOKYMWMOBdTpJE4BUb3J2G9yqEhuVIpPkfzd6tWrZ3RXOnjRokWTRfBkflyAUvxpIpH4Vt+9MoNhYGMcAIOhh1xzzTVqzJixpwv5HUXuXjB5EPCCZfGbF1xwQZ+nn33qqafvB3lBnvGHorrquOOO6Zdo+JkzZ8ZGjhx5GJQ6nYKTSVZ3srQPECGELyqFR5qbm6fuvvvuK6P0/8EHH/5WKZyTFyQoSnHnRCLxbrlfm8EwWDAOgMHQS0SEd9xx92RSvgdy7w7JgjpuDYgQT8BSP7nwvPNm9YV+f/nLX34Aqh/lRfwDVL87ftKx5/bF+K28/PLLw6uqtjpaKR5P4oT8mX57469Cki9B4U8Sho/ttttuRW1PzJ49u3LYsGEByFFtKwmQV+rq6g4s00szGAYlxgEwGErIHXfcdSyV+iYph3YfJAgQ+BtgXX/BBee8UC59nnjiqUupcFuujEGr8ce/h2211SGHHXbYhnKN28qrr84aX1GhPytQxxNycFuWxZbcA5uMP0NFvCSi/hSL8fGGhoagp2M2NjYeL8DTHc7+f7Guru7XpXpdBsOWgHEADIYycNddd31KQ12uyLNJDOnWGQD+BfCONWtWTS1lXYAnnvjLxSDu3GT8CSgshtb7n3DCCWXJVfD2228PW7du3UG0rKMoOJ7kjh328fP39TWpXgL4p8pK67HeGP18GhsbfyfAF/Jm/2uGDh3q1tTUrC1F/wbDloJxAAyGMnL33XdXQ6mLIPgKqRJdBAm2tpcS+DUpd59zzjkf9Gbcxx9/8gIq3Js7sti2778KEjtw8uRjZ5fm1eWCCzds2LCfCI9QioeD3I9kRevsvhPjrxXxEoA/hWH42L777lsSo9/K4sWLhzZnswHBbdry/pN31tfVfaWU4xgMWwLGATAY+oC77767gox9FgpfJHgsSavV+G9aDWhrC8mXAP4+m9346Pnnn7+qmLEef/yJ80Hc18H4byTkmMmTJ/dqu2Hq7NmVNUuXTlRKHQjwcJAHERi2ydhvWtrPa68h+QyJ6WEYTttvv/3KduRw4cKFp5DqsfzMgJZSu9fW1r5TrjENhsGKcQAMhj7mzt/+NhEL5TxCzlfg9h2Mf0dnYAOpppH6sVgsNn3KlCmru+v78cefuFIgPyfbFv4BQivic5MnT55arK7PPvvsCKXUAYD6DC0eRME+ubP5XRr71vYCRTVNhNO22WarFxsaGpp6+n4Vw8KF708leXre8b+X6+u3PagvxjYYBhvGATAY+gkR4a9//btDqXAuyZMIjCjgDDRBcSYgf5aKihlnn3rqh/l9Pf74n68D+J2OiXNE4cqTJ0++tZA+11xzjdp33wN3isX0vqTaB+CBJHZF3kpCm2Hd3Pg3K+JFETVNKtS0gz796fnlfO86Y968ecMrKioDkltteg/w+fr6+gf7WheDYTBgHACDYQDwwAMPDFFKHQdYnwPls0TeLLtd0GA74/6ukM9S4RklPJ7kxZtlzQNuPvnkE6/ubMynnnqqTqmKfUjsS6X2JWQiyOHMM/CbdOiszQyJ6YCaXllpPbPffvt91Hfv2OYsXLjwEoC/ypv9L8lmm+smTJhQssBKg2FLwjgABsMA4/777x8ei1WdSMUpJI4iOaQzB6DN2HfRJvHI22//56wf/vCH8vTTT48XkT1B7klae0KwJxVqur4fmxl/kutBvkLw76T8/ZBDDplFUvfz29XGe+8tfKdlxaI1n8AN22237bf7Wy+DYaBiHACDYQAzderUrTduzB5D8iQqHM+W5DYFtgoA4mOCv6fiLgT3ADG8g3OQt5TfZTsk+AaZM/hKqVf7IndAT5g/f/7BSlkv5GUS1EpxfH19fa9OUxgMWzLGATAYBgkzZ86MBUFwiFCdSMjxpBoXxRmIaOxBsiln8OVFki9ls9mXJ02a1K/L+lFZsOC9R0BMad36IDFt3Lhxn+1vvQyGgYxxAAyGQcqDDz46oaJCHyO5Y4WHEhzWllI3Pw6g2zaWArxfLD7z8UfbvDZlygHr+/t1FcucOXOcWEXFh7n8A62xD3LC9ttv32/FlwyGwYBxAAyGLYDp06dXrVu37kDSOobE4SD3IGgVihNoaWep+D8K3iAxSyn1xqpVq/47ZcqUPjm611vmz59/Lcjv583+F44bN26HgRSfYDAMRIwDYDBsgUydOnVry6rcj8SRSvFAQO0LSkUEZ6C1nSUxH8QskLMoMqu5ufn1SZMmDaiI+g8++GBkU3PzBwRH5uX9/+r48eN/2c+qGQwDHuMAGAyfAJ5++ulRYRgeJOQBCmp/EHuT3KrIOIENBOcCeNeyOAfAPJLz1q1bN7+/HIN58+ZdR6rvtjouIFaH2WztTjvttKZVZvTo0dsMraw8puO9ITDbsqxKZLPJdCbTtl0wfvz4qvVr104OgeeDIFjaV6/FYOhrjANgMHwCmTlzZuzjjz/eQ4T7k9gPuRz+44oMGmw9HhiC+ABUcxVkLmC9S+o5zUOGvHfY3nsvK9drmDdvngvwXZJbt8U2QN0yYcL2V+XLxePxGou8Cjm1zwfkzyJcRUueFa0mE3JpKBgfBEEjALhufDKFTyjw0MW+/2K59DcY+hvjABgMBgDA9OnTtyG5O2lNhMJEBU4EsFOXmQC7zheQXwRoI8A0FXySHoQ+qTxYeN8CfBHx9t5778ae7NfPnTfvDwTPzgtsDCGyww477PB+V/cknPhblsapizKZ9wHAdZxfELK7CKZ5QXATACQd548C2V6B3zAOgGFLJtbfChgMhoFBy5G/l1v+AORqAQCyJ8hdIXo3gdqVQAOAERBB66Y7ALS2BS0zi9yDKhDjAIxDqzgFFEByyXow6823Nsx6880UwaUklwNcoRRWiHAFqZYrJWtIfqyUWk1yndZ6vVKqFoKz8geCyF+6M/5dIYJHSZ4F4CbXdbcS0SNBfAjp8VtpMAwKjANgMBi65KijjloN4PmWvzaeffbZuoqKigaAu4KYAJEdQO4ogJ2zyZ06A120ZQiE40GMFwCkQIRtzoK0yGstbSsQ+b6H5MQAomC9g05RsgzCdbU1NduHCPeB8CkQh/WoL4NhEGEcAEOvSCaTQ1U2O07IpAAUrVexomJ+KpVa0d+6GcrHUUcdtQjAIgB/zb/+2muvbdPc3DxBYO0AYAIV6gmpF+G2IGoJVHTlHOQQQNhlWyBgJ20B3txxxx16vFxP6qmhUqcQ2CcrclkMNA6AYYsnlnTsNzpeFIGXDoLJvek4YdsPkxjf/ipvSfn+ZpW5XCf+uALrciKYmfKCb/RmbEP5mQhUBI59g4TZL4fEVmhdL1WEhFk4jlPv+/6H+fc0NDRUzp49e1CcLTf0jJaCQLNa/toxdepUq76+3hWRegDbgoxDdBJkHGBCBHECSRDDgK6NfWdtUn7RK8VVxeNKss9AZHEmk1mScO1edWcwDAZiAkzc7CoxsTYe33VxJvO/nnRaF4+PC4kpsnmQYbwzeYINAuwAACKyqCdjGvoUBq79OARdpVpd4/t+279jMpkcCp395qqVy2sAfKVvVDQMNKZMmRICWNzy91JXcq+++urQYcOGjQkta4wVhmNIVmvIGEU1EsIRIhgO6K0U1TCAIwGRbDZ8OIoOhJqrK6xNRxZFllO4NuWlViQce44Q03NyWCIiA7LugcFQKrrcAtAWpwDokQMQKpwBc8JgiyVh26d2ZvwJfCTA1hD8Dy1LAol4/LMSZn+BXBDYA32tq2HwccABB6wHkGr5Kykp3z8rv+0FwbWtj9N+cE6bnBdcVuqxDYaBRtcxAILTAfygR70KzzTmf8tFyJPZLkRabq2oGvqjxsbGVQCscaNGbd32lMJdABLFjpG07X01eTKgd6TQErIRDJ/2vCXPASY+22AwGHpLRwdgDYDhLY93Ssbju6UymXeK6dC27V1A7N7SbBfe0xVCfT7ArQBAKVlSzHiGvoeQCXnNRWk/83UAYUs7fH/lytU97bu+vn5k88YN92sIQfmNiLqLlgqJ7I6irTNdx/6egOd0jC8wGAwGQ3G0dwAEz5M4RIBtAEAsng6gKAcgpnCGtM7PBK+B2L/QPZ635NVixjD0O61OIgSYi03Gv1eMHj16m+aNG/5G8GdQ2qO2dgMQl2zWr9D6jcalmQsT8fh+JP7iOM5k4wQYDAZDz1EdWhsEeLKtndsGKAoRnNn6mEoiBeYYBhlERdtDwcpSdTu0qvJ2grelfP8xaHWaUK7R0MdB8fvNMeuDhG2fm85kXhOlL7Egv4eJMzEYDIYes3kMgJapUPxCS2unZLJm91RqyX+jdOa67l4QvUOuxQUa+g2W9zfaSsbju0CpHUBdpYF1KsT7qUxmDno4K43H49tVKLWnpv6osln/r3Hp0qDQPbZtj7VEdhMLY6kZKnKJVmp2Op1e3hMdgNaTFNxZlGwDWOtFZLlSak5v+gQQS9r2XlqJDWCY0lwVko2+789DD/fVSZZkP762pmZ7AepTvv+HvMuzPD9zCgAkXftnAvwYwG89b8mrCdt+r9Zxjl7s+38rxfgGg8HwSWMzB2BkdfUzq1YsXwlgFABIyNMBRHIAFPSZbdaA0Wf/Cdt+DsR2Lc1n0n5wSXfyjuNsa1G+IYIzBKhuTRZCAKKAhGOvBOQ3Quv/PM/rtBhJwnFeAcTO6c3zF/v+y0nb/oUQlwjEohDNMUsnHPtxS8s3W3OHtzIRqAhs+2wQlwPYE2wxhQQ0BNBhmHDt1wXyC8/LPIIIBnbcqFEjNg6tuhqC80KgFkDunDN0zo3SoU469lta8OtRY8bcF/VMfTJZs7uE/AbAEwUYnuszl19FQZBwbR8ijzSHcsOSJUsynb9f9jygbeZf23pdICckHHtha5uC5zXwJonWgiybjn4SpyUc+5C2phUem0otXQAAYUwdpyB/6vpVyAqAza0tRT4SihwPwDgABoPB0ANUxwuzZ89uouDPm64w6jYARTCltaGFD0XWgqgFcvnCBdJproBWXNe+TEHmiuBSANVdiI0CeCVFz3Ec56DORaRu05jYyrXtW4W4DICVJ6QAnJa1rIr8O13X3TFw7NdAPABgL3S+FG1BsB+FDyUc5+Vtq6ud7l5XnW03bBxS9Q4E30eege2AEmAiiTtWrVj+juM423bXJ4BYwolfJ6F6E+Dnkbd33w6BA/BrFZZ6z3Xjn+uir+2Atpzu+e/H1m3XgXFC2CRH5V3LdzKH58uqrFXZ9sKAbSFqQYcxd3Zt+4aEE79LwCsguKL1iSat5xOoL/D6DQaDwdAFmzkAAEByal5zx2SyZvfO5PJx3Zr9AbQYJL7t+/7cUiiYT8KJf4eC2wAMbbtI+AJ5EJBbATwKIH8GO1ZB/pqMx3frrl8BDmbO+G8O8Zrnee+26ZBI7EDRLyNn+FvJAngekLsFci8grwDIq24mB2QrYv/qymCPGzVqRJhLQJJn+LkAwGMiuC3XL/4GYH3ebTso4NmGhoZKdA4TTvwBgN9Fe6emEZA/UHA7cu9XfsrerSl8MOE4X+ukvw8AvA/gfRDNedfXtl0H3qcgEJGVedeyebJr8mV1LGxbwdDCrGi92YqUAoYR/Bw0vpYOgmmt1ysqdEwo2Y7yBoPBYIhGp3kAFvv+3xOOvQwtM2wJOQWFtgG0ajv7T0r02X9EkrZ9aMsecCsbILgq7Qf3IG+/Px6PD4tZ/BEEV7dcGiaKvwGwN7pahqd8HQICWEHiNg15S4mKA/pUEdW2GjJ69OhtqMMZkr/yQDwtUJd6ntcug2EikdgBOrwHQOuSd62C/Gn8+PEHvffeexvzZTdUVX2VQF1LUxP8csr37+2oZjwer4kp9WdADshdkQmrV6w4D8A9HWVd2/4+gM/nXVoKwVfSQfBovlxDQ0Pl6pXLrxTgxy0zewJyUyIRfyedzvy9VS7tBzu1vTbXfg/A9rmXz6c6Jldp4Q4ASDjxFMBcHgDBo+kguKATWYAyHwq7AXg67+rcVBBcnnCc/5FybzKZfCWVSqUBAGFsdwDvdtaVwWAwGArT6QoAgCwgj21qFtwGsMC2EwOS1XikBLq1QxM3YpO+muDJ6SC4Ex2C/TKZzLq0F3wdkLvzLu9V6zhHd9m5oEKAQIV635QXXON5mSdTvn9Pys8ck/b9u1rFhlZWflXQFqsAgg+lveCkjsYfANLp9PyRo8ccjfbFUvbZsG7NlzvKkjxlkyp8uDPj3/LaloQiJwGbIu815OSOcttWVzskvpV3aaVQHdzR+AO5LZ+UF/xUoKZg06qFBa3uRPuVg7KSzerpAKagE6c07fv3CrEUOvvt1mtCOd8Sebyv9DMYDIYtja4cAEAjfxtgh0Si5lNdiSbi8UMItFTP4D+DIGgskX4AgFrb3oe5GXwLcm/K92d0e5OKXYe8ZXgNvZmhbIfgusVLlizs6un6+vohoFyVd2nxhubmi9HNaYPZs2c3hYJzkbfMLuDV2MzISdvSP6G7rWceBMFSEA8B8h8Aj0Hwz44yYWXsSuRvk4Bf9TxvXnf9ep73BIk783SakLDt7t+zEpILPlTTk679vU6e1hS5TQRf3La62mmJU/h4cRC83lf6GQwGw5ZGlw5AOpN5QYBNR+B016sAovLO/lOX/Oy/ppyY36bOLS/tnpjuAAAgAElEQVR3RzqdTgG4lYLbRXApdfd56CvD8LHunm9ev/6AXOGRVuTOZcuWrSmkRxAES0n8Ou9SbSIe37uD2NJND3lubW21212faS+4NO1n9kz7wWn5uczbNBMcl9dMpX3/j4X0BICsxk3Ic5qE7DMHAADSvv9D0dgz6do/Wr+x6UdNzWFbQGLKz9xOK5bIxmInUfPy9RuavtSXuhkMBsOWRtcrAECoiILbABOBCoKntt4Ta9bdHOXqIcL92h4CQdT0xGk/uDoVBJd7QfCrVCbzr25E3y943t/ioflNpfFUFB0AIBT+Jb8tFg9uJ0D8I69Vq7Oxd1zbvqHlBEPX9Ro6IR6P1wBoyBttOiLmRGhZuXl7k1r6kK6ly0I2HQSnAMDQqqoXKyzrKteNn+i68RNc275SdHYaiN2zIketWLHioz7WzWAwGLYounMAEArz9/J3SCQSe3SUCWz7aACjcy3OjJI4p2gId9NDFpWaOBKCDwqKiIzLa65fnMlEPuWQzWbfym9TZPv8tsrqnxPIN2ijSXxTQV5MOPaShGs/krDt8+rHji1YpLwiF6OQdyxRvdWlcCdQkCfPRH19/ZBi7i8BYcoLfgiljlDkQgXuSXAfKFlJFTst7QeXZDKZdX2sk8FgMGxxdDu79H3/lYQTT7dFcWt9OoD/tBMizmh9KNQlj/5voabtkUhvMuF1DqOks+WYTY9lBYrINLh06dK1CcdeB2DY5n0Bi5csWei6NadR1MNoc6baGAXBFBBTmmOWuI49i+BDKtb88OLFy7zN1WzfN4Giiitpckl+pb8wXDsawObjlJmWjIcP9vW4BoPB8Emh2xUA5PaD85f0220DJJPJoQRa9+c3xmJVf0bpUWhvFNd3JdgLCvZJwYi8Vk9moB/nPd6q45Oet+TZimzYAMgt6NpoMxcMKT/X2dj7Ccf5CTo4cVrJNu1uAIrSlSL5ekKEm+lqMBgMhsFPIQcAaHekTya02wYIw0mtlQMJzli0aFHJCsO00wDYkNce2pVgWSHX5rV6YhTzs/B93JlA49KlQdrPXGX7QVKojgFwswCzu+ivCpDvJBz7/nZqhsjXE9K26hAN5jL7bWpTOtXVYDAYDIObgg5AOhc819h2IbcNAAAQStvyvy5D9H8bxKq2h5SOS+R9AyXfuRmDIs7Ijxs1agSAvL106bQ+QSuzgGbP855J+8HVnh/sKlR1pFwI4DG0d4YA4Jxax2kLKhTLaueECTA2qp4AIER+nIG2rK1XdClsMBgMhkFL4RUAQMj8bQA5FQBc190KgkktF9eFYfSo+KIRtJ3PF+GuUW9LOs6xCce+07XtbyRs+7Tx48dX9UKL/KxzQ+tse6cuJTvQVFW1Z35byG7P+nfE87zFKS9zX9oPThOqWrBdtjxoStsxzDAMF6BdxkPdbuyCEPnyXmNjY0eHw2AwGAxbAFEcgI6nAXass+0Gaj0JLcvLBP9SzshsCl7d1ICbSCR2iHjraQC+TOJnULjvvffeay54Rxco4Sv5ba3w2aj3CnFCftsSvtb6uM62G1zb/nrSce5LOvaLyWSy2y0Oz/OWVa3f+Hnk59iXTUVxMpnMEgDzN93BSYi4WhGPx7eD5B8hRHdHJw0Gg8EwiInkAPi+PwuC91rbIXAK1KaAQF2+6H8AAMlp7S5IeFGhe5LJ5FDBpgRCFJmJdgV6iiMkX0J+Rj/BJfF4vOD+eiKRGAPg3LxLy7YZPbrNAcgq2Y3EjQL5ogAHSXPzEYX6fH/lytXISwdMcFX+8yTy8w7Uum58CiJgkVci/zMh7VcaegY31T1Q7eMLDAaDwdB/RHIAAAB5FQJJnAnB8S3NlaNGVZe1Jvti338RyD+fjiuStr1vd/dIGH4feUV7RHhfb3TwPO9jgHflXdo2ZvF2dF4KuJWY6Oy9yMUMtGpy9+zZs5s2ta3nkLevL4o/7KbCHwDAdeNHIm9vX1PaHc3UULflV+yj8Je1NTXtcg90pNZxjiFxad6ljCg1tcsbotMWRCiCbks9GwwGg6HviOwA0ArbtgEE2AUty/8CPtbeoJUHCq5E69l7QYUoPJOw7dM6yjU0NFS6tv0DQPKL4TyfDoLpvdWhoqrqRnBTPAIE5yUce2pnCXpc161zHfspol063febsvqGfDnP85YJ+IfWNoG9V61Y/sS21dVOZzok4/FPU5if2ncdabU7CeB53mLR+EnepWodUy8lbXsSNsdybftSDXkSeZ8HoXwt5/T0DrZbqcABCds+13XdujrbbnBd1xwxNBgMhn4icprZVGrJfxOOPQ9Au+A3qjJG/+ePHwQvJF37uyLIGVDBCBB/yukkL4hwFRXiq5YvP5p5mQMh8ELgfHRVCrgIGhsbV7muezoR/iOvLsBpzTHrswnXfg6C+YBQwJ0p+nAA+TP5ZUrLiUuXLl3bsV8q9S2E4aS8jIfHZStija5jzyTxPwJaBDaBXQSYmHerELwylUua0w4vCH6cdJw927ZBBI4Q05KOPUeAF0Wwmgo2RI4EkOig0f95XlCSf1cNvkXIQS3NGIjfUDRCAioXR/LX7u43GAwGQ3koKs88iUdE8MNNF+Cn05nnS61UV6S84KcJ2/4IxK3YZFx3ArgTiZyJb78gP1eTpwa+31gqHTzPe8t13f0p+gkAO7ZcHgJpDQpkZ3sCr9MKz1rsL31v86dyWe9c1z2comcAbQF9lQSOgeCYVs+lgweznpRvpryg09LBAHTK909NOM7PAbkCLe9My+rNLm3vV3tt1wH8en4J5N4iwF0ELkK7Y5Btz+0C4wAYDAZDv6CQW6Jt/es2kr/lNECbPIE/oJuUuEqrbL68iHR6pExyefBb++xWh3QQ3Glp2RnEb0Gs7lRI4AHyHaHa2/f9TnP2C9AaSLcSKC7Zjed580aOHrO7CC4D8L8uxATEvyA4N+0HB6RSnRv/vD7fzWrZtcXBauxGdBkED1hadk15mdsKqBqmff9rQrW3QP6MLhIQAVgCyK1CtXMk4y+b3jtd4N/L9/25FBwCyCvo6MOQtZ3fZTAYDIZy010A24BnIlARxOMTxbJshbAaopYrkfmLgmAOSrDkH5VEIpFUWjcIMFYAKmDJxjD8T67Gfc9wXbeOWu9GJSM0MIQhlohlpT3P+y+KqEOQT319/ZCmpo/3UmLFQT0GolZA6wWpTGZOT/sscvyRGzZscJVSYWVl5Ycmx4DBYDAYDAaDwWAwGAwGg8FgMBgMBoPBYDAYDAaDwWAwGAwGg8FgMBgMBoPBYDAYDAaDwWAwGAwGg8FgMBgMBoPBYDAYDAaDwWD4ZFDyVMATgYpMMlnDbNYFOVqLbJM3lijyo5A6ZIi1IflRGIaLOquQN4ixHMdJWlrb2sJwAEOpOQQASGY19RpS1mlteb7vLwag+1ddw0CmoaGhcuXKlXGGYYJKjRSR4Wj5LgGAKLUaCLXS/Egr9RGARaUo42wwGLZ8eusAqEQisTu0PhSUA0SwC4kdIKgorhtZBTBFcKEAr1PklWaR1zOZTLeFZvob13WrgXB/itoPwL6AjANRW8TrbwLwgUDmEOplJfLS4iB4C0C2fFoXTzKZHKqam51CcmMzmcWzgOa+0GkLJZa07b00cAiJ/QDsCmAciqzaCWA5wBQgC0XwGpT6Z2Vl5Rum9oLBYMinRw5AIh7fT8izCJyaV8O+1GQBzoTIPXYQPDlQDEsyOXa8hGoKoKYA8qmSD0CshsbjAH6fDoIXMABWCJK2fagQMwvJCdVOnue92xc6bUEwaduHaMpZBE8GUF2mcZogmAHgnnQQzEAfFH8yGAwDm2IcAOW68SkUXgVgn3Ip1CmEn/aCcjkaUYi5bvx0Cr8GYN8+HHcRITdrWvf257KucQDKQsx14+e2fKZ27duh+Xba9/fo2zENBsNAI9LSouvGj6TgRgj750dDEO+PYScCFb5rX0zB1RDU94MKdQLeStHfTtj2jXYQ/HKgrIQYeo7ruidR9A0Q7NgvClBq+mVcg8EwoOjWARg9evQ2Q6qqfk6RL6IMAYMDmaRtH5IhfkXBLv2tC4A4iJsCxz4voeXCdCbzWn8rZCge27bHWgp3QPTp/a2LwWAwqK6esG17l6FVVW8Q8iV8goz/2LFjt0649gNCzBQMCOOfz65QfCXh2jeh+MAwQz+SjMc/bVHegsAYf4PBMCDo1AFI2PZhFvEaIBP6WqH+xHXdnSpj1r8hOA8D1+lREFydcO1nbNse29/KGAqTdJxTRPEFgIn+1sVgMBha2cwBqHWcg0E8BWB4icYQAAP+nL/rxk+k6H8D2Lm/dYmE4DCLeN113Z36WxVD17hu/EShPAygqkRdagAD+niswWAYHLRbRnYcZ1sNeRzAsKJ7EnhCTofIW1Dqv5XNze+tA9bmJflRdXV1I7Bx46isZY2wRGo0sLMADQpygOQMb7/Mul03fgaFf0DvltU3AHhNBP+CkgWWqAVihatUM9dKZbiBTdaQMCbDGapRWsn2FLU9RPYFsT+ArXo45rYQPdNxnMN935/bC90NZSAZj+8mwj8CxebFAAA0gvgrhf+B1m83iTTGYrE1eadBYolEYoSVzY7IWtZIau0IsDMVdoXGZ0CML+FLMRgMWyD5Bk8pyiMQjCnifi3gw0rk3lQQvIjuz6zrRYsWrQSwMu/a31ofxOPxGsvCCRSeCuBoAFYRevSYpOOcLSK/7eF4GyF4guRvYlVVzxeRaOX51gcTgYogET8Yws9DcCqKXHkhYBMy07btw4MgmFPMvYbyUV9fP6R544ZHUZxzlxXIA9T4dTqT+Rdasv11JZtOp5cDWJ53bVrrg0QikZQwnEyF0yA4FAN3S8tgMPQTbT8KSce5SCB3F3Hv80J1led5b5VaKdd166D1V0hcCmBrADrtByV3CJK2fZzktjuK7ftjCm7XSt3oed6yUukzevTobYZWVV0OyFUARhd5+4ehYJ8gCJaWSp9WTB6A4knY9vdBXBv5BsFTotQ3yvH+JRKJHSQMLyNxIYAhAyCvhsFgGAAQAMaPH1/18bq1jQTsiHf9PO0F30SZs4m5rlsNrX9AhS+nvaCylH07jrOzovwTghFF3vpYrDl7+YfLlvml1Cef+vr6kU0bN95IFHf8ksBLI0aPOXL27NlNpdTHOADFUVdXNypsblqEnPNaCA3I99J+5gZ0P+PvNYlEIgkJr4PGUekgMAGJBsMnHAUA69etmxLZ+EO+m/aCr6MPUol6nrfMC4IrtHD/UvZbV1c3Son8pUjjv4aUs9N+cFo5jT8ANDY2rvJ8/0KhOhbtl3i7RYCDVq9cfnMZVTNEINvU9EVEM/4QykVpP3M9ymz8ASCdTqfSXnCeJieXeyyDwTDwaT0F8IUowoQ80zJT6VN8359Vyv7CbNMtRQZJLaalD0x5mT+WUo9CeJ73DK1wPwCRZ9Ui+Irrxo8so1qGAjDi9wmQP3he5v7yarM5pf4+GQyGwYmKx+PDADk4gqxoWldgABSn6Q1J2z4OgnOLuGV+rDn76VRqyX/LplQ3pFJL38tqORjAvIi3kMJ7q6urS3WM01AEiUQiCWK3CKJNYa6uhsFgMPQLqlKpiYh0RlleHez7u2PHjt1aiHuKuGWRUB1V7iX/QmQymSVQ1lEAPox4S31VhfWjcupk6IIw3B/R4jaeLkfApsFgMERF6ciJb9Rfy6tK+amMxb4GIBlRfG0oOM7zvEXl1Ckq6XQ6pcDTAGyMdge/4rpuXVmVMmyGRPw+kTLov08Gg2FwowBEMxIii8urSnmpq6sbBeiro8oL5UsD7Vz9Yt9/Q4ivRxSvUlr/sKwKGTZDkZG+TxQ1qL9PBoNh8KNEJNJesSIz5VamnITNzV8HODKKrEDu9bzMI+XWqSd4XnAHBP+MIivEOfF4fLty62TYhDDa90krNai/TwaDYfCjyGhpSrVIseflBwz19fVDAPlyRPFMrKLqm2VVqHeIKHUZoh3DjMWUurDcChk2ISKRvk8Mw0H7fTIYDFsGMQFXMcIRZFKcPtCnLGSb1p8CMFpmPcH/a0lZPGDxPO/NhG0/CuKMwtJyQUNDwzWlTg5k6BwKV0UJAdRq8H6fektDQ0PlmuXLJ2hyRwHqAD1UhCNIaSa5FsKVmuEHYcj3MpnMB/2tb28ZO3bs1kqpsUqp0SKyvqIiu8qytl5RROpwQyfU1NTEK5XaWSsZp8CxAgwTjUpSPgLUBogsVuQHTVrPzWQyg72AVqx+7NhqbVljmskhFVqvRFXVyt7aqhhElkfMNXcogF/0ZrD+QsAvRhR9Nx0ED5ZVmRKhyRsVJIIDgPiq5csnA3i03DoZACoslwgpfZjLz/9wufUZKNTWVrthc+wskkevWrH8MyC22pT7iCBz/8+9dwKKQkwBCcfOAHiF4OMbs9kn84qLlQXXdeuo9ae7kyGwNhUE3QZxuq67l4K+AILDBNgld1UAAjobg85uyCZs+3WI/F86k3l68/vjJ1KzYPbTrMj0vjZu8Xi8JkYeUkhOaf3m4iVLFpZwaCtp20cL5SSQR0CwvQCgbJrCtn6O2t5rCGKK2YRjvwXwOWr9UCqTeaeEOnVK0rYnSYGieqLUa57ndRkLNHbs2K0rLOtcEpMAHNTcUidGQRAqAs1NSNi2B8o/0n6my9wjyeTY8dBqkghqhHifjD3ZUkcEMQKRotwFPLK6unr4smXL1kSRHygkEokkdHhYNGn+BH2Q4bAU+L4/y3XsFwkUzuFAORHGAegjZFG0U4A8fiJQMQtoLrtK/UgiUbM/QvVtncUkElYPEh7GAZwikFMqY9Y613HuB3lTdz+cvUGJHCTEH7qTEXABgE4dANd1d6TWd0D0EQVeaQzE/iA+DWAzB4DCL4A4tZC+FVSfB9CnkxaLvATENQXERFdUlKRUeXV19fCqioorAPmyAEmAxX6MYgD2AWQfUfy269hvKPD6lO8/gXLltSFuB9Bt/BW1PgNAZ59jK+naXxfBNwGMKjCOC/BsdJF8LOE435MQYmn9UKypafmGoUPHQcJrXTf+jOdlnlSMxV6J9oqw9ZDKWNQI9AEDtZ6EaL/IS23fH1QzMgVG/OLzOPRRdcVPOhpW1O9TMrDtL5VVmX6kLh4fl3Dtp6DVqyBOQGk+f8MIuYKi5yds+/sNDQ0lrQ/SW1w3fgFFvwniiF53puU3UcSEcmavxyoSkmdHEHshnU7P7+VQynXty6oqYu8Dch2iH+HuFgJ7C+SxhGP/M5ms2b0UfZaKbaurnYRjPy+CG1DI+Bcg6cavoMgsoQ5CxYc2Dq2aAZGvDN1q66sUuFfStvdVqVQqDeD9KB2K4OqB9oYVRh8XTU4eHHSzMct6FECUvf0xruuWtJ6CoXM8z3ubwEeRhIkf2bZdX16N+hy6tn1pqPhfCD5bpjGGgLh21Ypl/xoo71/SiX+VwvtQXPnnLklnMjMECAoKCo7OHXHuG5K2vS8gEwrJkXJvb8api8fHJR37eQpuA1Ddm766YV/R6o2E43ytTP0XRW1ttZutiD0P4MDe9tXQ0FApwp1TQfBXao4U4vdpL9ifIsPXr117wohRY34ilC8qACDxWMR+h0monnJdt7a3CvYFDQ0NlQJGyosvtH5fbn1KTSqVWgEi0oyTIgX37AwlIRTgiYiyYxXxdCKRGFNWjfqI+vr6Ia7j/IG55c9u9z9LA/ewiNcT8fh+5R+raxKO8wUBb0ERlTsjkFUFtiJaqMxmN55cwnG7RUeb/S+PVQ59vKdjJBLxI0LF1wU4qKd9REZQAcgtSdu+H/24ShqPx4dJNvYsgB1K0d/KlSsbhPJ6a1tp1CZt+1CQtbCs/86ePbuJwiYFAM2h3InoeyF1EP1vx3HK/4/TSz5asWJ3RKnKRvie571Vfo1Kj2g8H0kOemKZVTG0QMEdkWWBBurw9USi5lPl1KncjBs1akTzhg3/IOSsPh66GhZn1DrO3n08LgAgmRw7AZBfobTGHwDAUH4bRU5JlNNAJSHGSIHH8vuennBI2PY50JwBINqprRIhxAUJ174Pmwrk9SkV5C83BYv2HkvrGEW1rWgLuadQbhHqX7ZuzWhAFABkMpkPBPJk1M4J2Iry94TjfG8iouUR6A8E2DOi6N/QB+VYy4FFPh9FjmC//EB+EkkFwb8BvhpVXoDtoNWrSTd+OfrpB6g3VFdXD99YVfVXED3dZtoAIAWgZxH+ghEaMi2RSJRkj7iooUPr14hY+rlYFmcy/wPweiE5AQ+3bXtsOXTIJ+k4RyIXlNktobBHy/9JxzkbxK+RC9rrCUtbtk16FsgtOC/h2tf0cOwek7Tt44S4oJR9NonMAdA26RPKX4TWZII/yeXFAUEZ0vZjE2pcDeDjyCPklk5+HNj2G7W2vU8plS8VQonmAEScRQ9E1jc3v4VozkttX/xIGHIIeTmAbBG3bCXCXyYc5yXbtks2E+gDYlWx2J+LNP4fAnILBYdWVA0ZlfaDoWk/qE37wXBasa2EameAV0Lwd0R3zGsg4Z/6ckLiuvETUYL92u4QQZRVgJhFFjwx0GtdoCMs/8srPUmhnrTt4wTyG0RdhieaAUwneFEo2M72g8q0H9R4fuCk/aAiFNRAywkA7ooUS9GmPr6btO1JxerfC5QAN5S609zRUL0mkaj5lAAbFGSD53mLIXi2ecOGMxOOc5ESPqHybvhAiOIryBG7a+KfruPcWz92rF3SV9FbNPaIIsaYHpTL/wDQciwz0lHOWIFjKYbS4XnemwB+WfydcoBFvJVw4jf3ZXBXT0na9i1FRL0vgeAraT8Yn/YzV6WC4IXGxsZV+QKpVGq953nz0r5/azoIjlSCTxN4KVLvgv182+6rgC5C+JOuVcFsED+GlhM0uDe17A6lD4BgCiA/Afh2lEFULPYQIhUAi5QTpMfkysbzpMJqFD/7d113R6H8ERFn/gL5M1XYkPaD41O+f28QBI0dArglCIKl6Uzm6bQfXAKq7UXwQwBR8iUoodzTV+XUk278TBBdBdZ/DMHDQvkSlD5AadlNg3sL5SghLif4ELpZNbP9zLXQvEQpWTliVPXvAKCiasi3AdSSuioVBNM77lvFXMd+msAxPXw9awHeQMu6OZVKre9hHyUj4dgBCi9ZbbT9YPigOwGQR8KxpwEo6LUSPC3l+1EDPttI2vahQswsJCdUOw32ktGlJJlMDpUw+wKAnq6QrSDk2rif+dVA/Hy6bvwMCqMdnSWmVa3fePb7K1eu7slYCde+FoLvRxBdB2XtlE6nUz0ZJ+k4ZwukQPAdF0DkYhD/2PwpLBTIlZ6XeRoFVi9aciQk00Hwp27lXHsqBKcXUF2rWLZ28eJlXgG5HpF042eJFDp2LKuEVsLzvMgryePHj6/6eN3aWQQaIoivEcrZnpd5Kmr/+SQSiR2gw2cAbBtB/Oa0H0QuHteRpGO/L4UmXIIzQH4VkAM6PKMp+FUWuLZQyfCxY8duXVVhfSPlBV0Wfks6zrECOQqgBcpHlsYji4JgNrD5fmN2yIaNZwD4d7eKd83WgFwnYfMC17a/0p/ndFvGjrLk/f5A/HEtCuLDKGIStfKjoSSkUqn1FdlwMoB5PexitIC3Bq49N2Hb52AA5XKwbXsshbdFkaXg9rQXnNhT4w8AaS/4ASRSJcxhovU3ejpOEVzU8QIhT2RD+VSLgSq4dZFOL/lnIeMPANT4TQR9lGStQk5CjxEpHP1P8sFijD8ArF+35vsRjX8KSh/UU+MPAOl0ej6UdSByiZwKcUlNTU3BeIfeQIWGzYw/sVqojksFweWFjD8ALF26dG13xh8AUr4/I+0HV6d9/2tpL/hBq/EHOgk4en/lytVVGzYe3bL/1kOYIHHHqhXL5yfd+Jf6I1Bw+fLlLiIFVDFddmXKjOhoe1yDuZ7DYKVx6dKgIhsehgjBXF0i2B7EbxOOPdt145/DAAgUtIibEMnBlntSQXA5SpBhMx0EPwcxtZAcIV9yXbdcZ8cBSALEKe2uAH9L+ZnTy5GWNxUEf4Og4MxehGXZBojH4zUAji44PnVRy/+5WBdGKby2UqiOTKeXRNo26Y50Op0S8syWGILuGFphWV/t7XjdIYLLO1xqUsLJnuc9U85x8+n0h+T9lStXp4PgGOa+5L2Jjt9WhPcGrj034ThfQB/OYJRS0SKCKYPeAVBkJAegUG5qQ3loXLo0qKgacjAFv+5lVztS+MeEY7+ddJyTUYajZ1FIxuO7Afh8BNHnbT9zWSnHFqhLARQqpbyVQljO44hbAWhb3SQwp2XltJigz2IIiQg5AYj9HMeJsrxdFJbFKSi8P//vYg20olwXod+sUJ9Ryq1Fz/PeJHB9QUHKeSivzWoX4yPElxf7/otlHG8zuptJhCkv+AYEZ6Knx3NaEWwPyO8Sjv1OwrZPRx/8cFHrqOVWl5VVkT5ARFZEEtQYWmZVDF3Q2Ni4IRUEXwT4ZUQK6uqWXQXyeNKxX+/jiOUcCtei0CoEsbo51GeWenvN87xlgBQMrtTCLoujlJhsVnB6b7Y3ohCSv4kgRopMKfXYBCIs/xeX+a/WcfZmlKBCyA2et+TZYvqOwsbm8MaCGTsFTm3u6GNf8DvPCx7oo7HaKLiUmA6CqRrcFcD0Eoy3M4ipCSf+ZiIeL1eaUAAAySGRBEX6PVixt4iSqAalJGlKDT0n7ft3a3BPAC/3ti8BJgoxLeHEX07a9qG9164wtm3XCzi5oKDw2iVLlhSaqfeI5lDuR4EU2AQm1tZWu+UYv904grt6cuytWHzfnwviXwX1IUpaGyCZHDsegm6rIwJYs7FZF1VHRUMuR+GJYCqrS39EDsjtnYMomP1VUwp/1nvPOlqx7/TBOJsRaS/R9/0P035wvFA+h8LLbxHgHlB8KuHY0+LxeLmOpkWc7aotoCa3RHoNQhlQxVM+qfi+PzftBwcTvBiQVYXvKAQ/I8TMhG0/tG11dVnjPCzyQhT63RC8N3L06FicoLsAABseSURBVNvLpcOSJUsyEMwoIEbJVhxeLh1yyCqxrGvKO0b+cJFWAfbKZScsDTprnYWChloeKqZMczKZHA0UPNUAgN8pZ6lj6gg5FqQEhZ0KDSH4WUtNnj6nqGAiz8s8bFVU7gziVxGCKKIwKab4v4QT/3bJTwxQR1oBEMrgPgEAQGkVpSAQKIwkZ+gTJOX798Saw10A/A6lKEtKnJmtjM11bftSlC1QsHCqXwHunj17dlk/a6IK18DQ0IVLZfcCkg+21lXvCyqqqh5GLmtit0gYK1kwIFl4+V9BFXf2XzefgsITtKUjR49+pKh+i2RxELyFwsnvdmwJgiwXWQ3cWcb+u6XoH4lFixatTHvBpVThLhA8jN6n0N0K4P+tXrH8rUQiESlxTyRERXpt1Kgq2Zj9hFY6mvOkCv94GPqWD5ct89N+cC617AFiWq87FIwgcXvCsV8r5UwQaAv+q+9WiGjOal32wlpKR1kO527l1EFDPVTO/jvS2Ni4ChKl0FRpkgK1ZHgtVJzmrcW+/0Yx/YrmCRGk/lBuJxK5oM03CwlZVpeJekrBs1GO+5WLHs8SUqml76WD4HNCtTchvT62IMAu0OGrrhsvSU5kAaLt7UeNFRjQRI536G3wmaFMpDKZd9Je8FkNHlxMHYFu2Ee09XrScU4pLBoRi4UDDgXPlmvvPx9VWfnfCLrsivIFHDd6nleKf6eiUNGCAXets+0oZ+u7JVLlP0FRs/+GhoZKEAUD64RWlEqIvYco+DmiqF3LqECfOpEd6fUyoed5b6b8zDEUHIbeBzYNpfD+hG3/OplM9ipinZHrGuhBHxlPHc0BoLAE+82GcuL7/ktp3/9MSx7z3qWoFowQyKMJ174JPS+w0oYWKRQMBhJ9coxp0aJFq1A4t8DWruuWpdQyBf9APxQQW+z7zyFXOKlbQtXrCoExQAoFFK6r2rjxj8V0umLFit1QIBiZwEee5/2nmH57CiOdAtMlP1rZioo19yLfTgnGL1VHqSB4Pu0HBwnVQQBe6FVnxPkSZp8ZO3Zsz6tsRYzuF6iyZnvqIyIlPZGI+QIM/U9LHvO9hHIUIixTdgMhuNp14lN7m5CLYMGUxqGUZPUiCgJgZSEhFYblCYpU0icGqhNCgFG2WHqVByFS5T/B1GKPP6pIabHlNZQiJiYCIiz4GQJZrtMkS8qVujkqvZ4VdMTzvJcBHJqw7eNBXAtgrx52dWBlhfWk67onFJtesoVI5/sJSfSg74GFghNlLkJgSfmVMZQSz8s8B2Af142fTuEPAezck34Inhw49kPwgzPRg4Q19fX1I5s3biiYXEsBE5OO0yMdi0UifOi1hTiAd0o9NkX1OitdTxHytxT5dvdC2N513b1ailIVP0aEYE9YxWX+AwCKNEihMwVQTDrOZqmWy4EgQsVYQVmCAIl+cyLbKLkD0Eo6CKYBmO667okUfQOAHYvuRHC4Qvhn5ArdFJVKNBaGi5pjEZI4EX1eQ7zUiNBhhB9DEelXb9PQY7TnZR4B8GjCcc4C5Dr0rK7Dqa7j/Nbz/QhlXduTzX5cF23BUG7p83Xx7ilL7ouQLPvZ/67wPO/dhOO82kkRmXYorc9AD1aPXNfdCqJPLiD2v3R6yT+L7TtaPRI5SoCjiu27jJQlg6oA/fYZaqXcOcXF87wnbD/YLXfmufisewIenbDtopMkNC5dmkGEIzMQ1LuuO6gT5BASKdo7ls32tCiNYWAQpn3/97RiO5H4FoA1xXZAyFk9mV1JMwdlIamo8TFFIp7nFV46LiNE4TPskksKVHQQpEJ4EoBut1+LzfyXd2PZ9tPLhpTnpFik7Ycy0ydFRWYBzSnfvyerpUEg96LY/R3iB8l4vGAAUgcEwKIIcpalda8jZvuZwvoTqz9ctszvA10MZSaVSq1PecFPhaqh5ShuUQjkZtd1i1uRI0cXO86AgCzHj/fHKEFxo95QuWHDIyh80qkuUfzvJgQstPy/Aaqih1H6Mvg+R0RZToqR7D4VcR/Qp1XFMpnMEs/P/P/27jxKrqrOA/j396q7k5BOIJjueksldKDJAA2ICmhAJIIcFkEckcXxREVxnaOODs44LkfHQXEcFT3jYUYRhNFxBHFw2BdlCTjIEc54kChLiJ10vaXSTRZ7SdKp937zRzUxge5693UtXZ3+fs6Bw+n+vXdvNfWq7nv33t/vA6I4FwYLePbSpjm5BllHswKjeToVSZ8HalETmd9MFgH+odF9oeYKgmCgshVX/wpAloxpCwXJ1ZkaE5mdT8k0bcZ5GiQlh3wTbNi6dbtC/zs1MONuANu2u5Ba+U9vLhaLZvVHXm7W77qqFxVtaP0IEzNSVrQYRXdZcXICNH0P5h6KY1w3nykvsyZmJVhVtcEpQxsnbm9fZRSokpo4hWanICj9l+SSkyB43vggxWlePv+6DM3wg/tFSabBVuMIrjeIuhAZPuct4CJo9d0imTP/7YvvownSAu+jGasrPrB58/M7xsdPEeAJ02NEJdNaAMu0BnslMcWM11ifDhU1y1Wtmpo6lWavYnHzk+VYTwJgXjZVpPpKcpqcSEuscwyC0v1IneYUr2Dbp5ieU6zUMs/PDIThw6bno9Y2o196W7Zs+VNud/k8mBcYOtF13SNMz78rjh+HWenVV7hud5a7odah6Vm1AAC5XOYVuzS7lEqlzZKLz4Pp4kDBuZ7nmSbKmfVVM/dDCaCpOQHUcBpgWXf3YamV/yqZ/2oZADEdeQtp2DZAUxuHhkLXzb9fVG41ibcQnwHAaDX74ODgiOvYDwhwVlqsqLUGQNNTe9bC87zjkMRpuboBxZO+76dmD6PZr1gcfK7g5j+pKiaPaS3E8ekAbkqNVN1psgKnnGhnIyu40b4kl1yvce4zqLY+SnEBgI8hJf9DYllplf/G40rhqhrozvSlXPIVPww/W1s7ZKIlHnsHQek2CB4wiVVIygKVfYnCaGAB4OKenp7ZVRcgidcYxVn4nwb3hFpIMShdBzFLfiNidj2ppUaLduelZY+juioWB9cDqZURu123+42pJ0ur/Ke4pfbCNelb30TVrq0NMtUSAwAAQGJYElFxVKbz5nK3wWzb4ZLdu3a9J9O5Z9BErYS0+ToAgMK6pcHdodaSKPA9k0BVNbqecokYJZEq5/jh3Wwqen1ajKW5qtMAyxzneKQka1NLv5+tZy8nSE9GpgK+h5qkZQYA7fPn3wezL+pMaRknHn3fbRIr0L+rNV96syTl8nth8rdQPBkEQW1FZWjWsaz4HrNAs+tJ29qMBgCW5vjh3WTj4/FNSNkGqtC39fX1TVk2PEFS/e5f8HwQlGouXKNiNJDke6hJWmYA0N/fvw1miXs6s2buU9F/N4oDVkS2fVmWc8+E3t7eeSL4lEmsWtnKddL+YeLRcPrCPcM858ViMQQwkn666dUqoOkbGhoaBpCWE2DJtqGhqaZ7cgqpXvlP9VrUo/qh6nMGUSsBGORxp1q1zABgglFyiY6OjilHspMJgtKdADYaBQu+nM/nG1L8oV52jI5+CoBJSs2Rjo75zamrTa1GATW5nkyvpQSCp1KjRGfnbprZLkmfBpgqKZDruqdLtbtuwe72cvKDafdtb4lR7pfOQqF7tmdnnRVabQBgVP63v78/9U7kJWKBfMUwdkm7ZX0r4/mbZll392GAGuVDEMXVE09WaC4SMbmezK8l1fTMmorVvb29DcmdTlPzS6UHAfRXixHIWybWDu37c63++F9Vb+8fHKxLKXHN5YyysyZl68x6tEfVtdQAoOoo9M+GMY1ypsUwvA7AsyaxCn1Hs8pRZtHb2zsvyVk/hlk2rdEy8PVG94laU6FQWADFgamBap6SWwUPGoR1jo0NZ9qpQ3WRiFTfoqfAYsTx2Xv/bGI6tWrlP8tsS6mRIAgGTDJWioW31atNmlrLDAB6urpsBRYbhJrMIU2mDMXnTYMV+u1pFCBqqB1jI98EcKJZtF5V+5Ydmq1Ux9PzQwBQwXrTcyaJ/BIGC3UF0nKD57nAivUGpMzTq+hLpgHitwBYVOWQjcUoMltQakpxn0HM6wqF7mPr2i69TMsMAHa3tb3VJE4h0y5p60fRTwV6r2H4fLXkjuW23RJzUZ7jfBaKjxiGb1TJXdnQDlFL09gyup4EalwkqjKglF+nN45zPK/7labnpfrYVCptALC2apDi7L2naARS9U5bFdcha/XWFKK4zSROy1bmMvCUjVVw7S/atp1tb31DJEZ72i3goRoa0URy7xcYV/N6RQzcO9ODAM/JfwbQK0zjVfTjQRCMNbJPNDnPtb/uOM5M1zxvE8E7TAJVMl9PJpngLMTWNzCNWvRUI00tELRo1+jo6on/boPqGVViY8nlrqtLv/ZSjKJ7FUhfUyC4yHXdk+vdPv2ZpQmOyAke82z7w5ihJwKebb8bEJP/0VpW4zv4SQVBsAmQy40PELixhV+5bt4s534d9fb2zivY9rWAfNn4IMUPgqDEzH8zRXG8BX2i4ObT0qo2jOvan0RKUpcJu3bu3G2UgfNFufb2mwCkDy4Fp7uVz5SmqrbXfS4Yj+ObkbKwU1XPBQDHcVYBctCUgYK7GpRCvGwJUmsYABDR5Lquri6jxeF1JLMlH0ytXvzC74TgatexH3Mcx7hyVD0st+0+CL5hGP5QFEX9tbZZDMNrILjB+ADFgaJyl+faX2rWG6OQzx+zY3TkYRW8N8NhT5dVP9qwTpGpV6jKf3qOfb/ruq9uZsOe171KFF80Clb8fMuWLZlq22/atGkroN81iRXBVQXbXp3l/LUoOM47t20Z+tdmtdeKBgcHRyC4uVqMCs4FgJxo1ZsahTYsh4jkyt+CWWGglR253I/RpLwAhyxd6riOfWep0NXTjPZm2j53/AIcb0HXFhx7bcG2z3np7+vN87pXxYK1AMwqkqlhumAD7R3zPwTBYxkOaYPi85FjP1aw7VPr1Y+XKhQKB7uOc6Xm5AkAJ2Q4dGusuICFWFrKatHkCc+x75z4ImzoE4GC45yFxLoPhjXXBdO7nqy2+Osw+/DuUMFtXj5/2nTaMeU4ziEFJ3+LQn8ElfSdD/s5SVKnAXoKhYIHlSrrNNSfyJ/SEAMDQwEEZtMLgvM8x/5Jg5/uWAXHeX+5ve13JsXj9heTfsErcIoK7vAcu99z8v+UpQSvie7u7rzn2lcjsdYCONjkGAUe96Pop/XqQ39//04rV34bUvbOTuJVKnjQdey7Xbf7DNRpkLSsu/sw13Gu1LjcL9BPQzM9adhlQd4aRdHv69EXqruzVfCA5zjPeI7z2Xw+v6KeJ3ddd7nn2P+h0DsALDQ87K5iFE1rPc3AwFCQYVqqEzm527Xty1HnGwrXdZe6jnOlBf29QowWPc4FxShaC2BD1aA4PkZVq61t+gGmsd06C4X1BQBDhuFv37blhUcqeVDqq2Db57iO/ZhCvwfTm9H9RFo54GWAfE40+Zxn2+shehsS3B+LPJZ1i5nrugdYqmcDuECh50HNkv5MKEuiH0U9UlHuZWBgKLBt+425yv7mTAu3BDgTap3pOfZGUdyYWMkvgLZfmS6+6+3tnTc2NnaCaHwKRM5PFK+V6b28XSp68UAQVV/92wyafMtzbbNa9HUiVtsnisWi38w2p08PB3BFmyVXuI69DorbLZEHrfb2xyqP1s0dumTJgeMLOt6sKhdAk3MAZKlkOapifSJT11/ioIMP/trWLS9cIkD6AllFuwj+xXPsd6gknw6Czb9ADdey53nHQeMPQJM1MEweNseoKm4QwT9OFZConiiCQ6f6daxybYP6tkcQBEOebf9thunYE5Kc9TvPyX8TVttVvu+/MN22u7q6Oue1W5eoyocVePVcXa0qnm3/BDJ5isgUGwA8LYoNsNSHWlsAjKlqmwILLQudAJZCtVdh9QF6KKY9j6Of8cNSw7a15fP5FW2WPAhgeU0nEuyG4o9QPAOBr4rtIjIsoh1IMD8ROVigLoBDJ/6p9ZHWCCx9q+/XXqSjmoJtr1bDcs3NlkCOCsPQeCtbo3mO/SCArFNECsh6qD4NkQ0qGlgq2yDJSAKZB2ChBSxU1TxEDp+oiNmDad5Rq+j7gqBU8+ru5bbdFwt+jexfwk8B8hMVuTMIgt8h5U6zUCgcjDg+EapvVMF5qFZvQHGjH0XV89pXa8tx3qnQlPTZ8pwfhkZ5FmaKbds9uUrCnaneI0MAlk72CwXuCcKoaY/BPSf/Q0CMdoHtZQzAzwTy80RkbRAEaU8ScoV8/ii1rJOgeg4EbwIwZU0ZycUri8XB6eacQcGxNyhQ/Umf4mI/im6abhv1kPYEoJpDARyqAqDyr8pPpTLRqXvG93v9bhoEcm0xjL5aQz9TlUqlPy5btnRVUm67BcaJdiZReWy/EoKVACBS+aEqJv4udX2AsUHFenvgs9LffkAAPRyCwwGFKKBQQGXPogHdE1ZzU1cGQVSXrV2bomidZ9uXQnAjsg1Gjgb0ClG9wnPsMSjWA9gI0e0AxiDSUXlCqA6AHo3LXqXr9ej13BBFUb/n2g9CMdX6i0m//AHAQv0y/5mQXPsHNC4fBSDLgtkDAKxR6BpRhefYmxToF0FJVbcJoFBZDAuLVNEjwAoFDqiMtRv0QmahWgYADVf58g8/iDo/+p/MwMBQ0NPTc+ruXTu/B2BNo9urieLW9vnz3808/5SFQr4ahGFdk6v4UXRzwc1/UFW+i+k9kTgAgmMBHLvnk3mfmweatgQ3QKYcAEyllA/DWxux928qxWJxh23bZ+Us/BKKY6Z5muUCLK98v0+8bybuPfkumlrLZALcR+VR+uXFMLwMQNysZvv7+3f6YfQuKN4Dw8qEzaRAJKLv9KPofH75UwY7VPDeIAz/oREnLwal70PxPgDjjTg/TU9Z9Weo1E4xporrnwB2N6hLU4qiaLAc65sy7syiGlliGa/CbBL9rcJ6rR9FprkB6s6Pohvay3EfUH0/bRONiOJr83fuOqIYlH48052hqlrqehLgYVi544Igqk851yn4UXQ9rGQ1FEEj20nxSAx8aQbbbymlUmlUFFl2TqnVFn+/YR1KUSqVNi84oPNUQeMXIFYxCsgni8XB6rso9hNWMYg+KpA1Cqyb4b5shOJSPywdHwQzP6/dPzgY+WF0IRJdpcDdM9SNEqBfVrFWFKPo7zds3bp9hvpBhvwwugSKj5hUPGuwp6G4sBhGp/q+b1QFs1a+v/nR9vnz+yYSBdU1f3xVivUCWeOH0Ru4FXZfscj1xsGCB4rFQePiUI2wfv36XcUwvAyKc5F9i3YtygK5VsU60g/Dq9DEJ88zyQKgxTD8URBGRyeQN4jiOwA2Nan9BIpfQnGhHUaH+1F0PVrsD++XSr8OwuhsUbxWFNdlqCMwXcMAfqai59thtMwPS58zWOFKraPsR9G/+UG0UsU6U6HXGOU9r1PbUNwGxbl+GPX5UXQzmrB+Zm/9/f3b/LD0IVi510BwExo3EFAIHlDRS/woOrIYhj9Ck1/rbBCG4SMTiyxTNTLzX1Z+FN2hYvUJ9G8ADDSwqc2q+OdyoiuLYXhZEASNbKvlTLk+wnGcI3OSnKyQ10NxLCpbb7LsNZ6cIoDgUYHcMx7Ht27evLlU8zmbqFAoLEiS3eeLytkAVqPWrYN/tgmJXnrQ0qWPrFu3rqXmUpfbdl9s4Qsz3Y/JzJI8AFYhn+9LRE6ByMkiegwUf4Hat4ECwCaB/EqBuySXu6NYLLbU2hXbtnvaLL1EVS4CcBxqW5O1FcCjqrgTlnVrIz6sXdd9vSD5WLUYVQmDMPx4vdtuFM9x1kD0vGoxolKev3DhpevXr9/VrH6Z6uvr69i6degsqHWxiL4ZilqyPSYQrFOVB8RKbvX90kNoQMKjgmt/R4HuqkGSXOX7mx+td9tZZLkYc4VC14okaT9aND5SgRUCWQLFEhEcpMCSibiyAMMKDEMRKTBoiT4PWM/EwB/CMNzYiBcyU/L5/Io2kdeIhcMS1cMAWS7AEkDmAboIlQRDhvkP5Eq/zqu0qWW1ua7bK0lyNIAjReQQhS6B4CAolgB7PuTGBRhVwXZViQQYVNXnYCXP5nLJukpWvtlh+fLlS+Lx8ZMg8ipRXaEWVohisUIWA1q5RgSjAEaRYFCAQRV9HirPqmU9FQTBM+Bd/lyXKxS6+zTOrQJ0pUJXCMSDYAH0xSyYEgv0Tyr4k6hECg0BeVZUnx4bH/+/rPUv9mfcIdFgnuOsAfQGGP+t5fN+GBqX/iUiIpqOplRYmsuGR0aeXLxo4Tggpxsectqizs6x4ZGR/21ox4iIaE7jAKAJhkdGH1m8qHMxgFUm8SI4Y1Fn54LhkZFfNLhrREQ0R3EA0CTDIyP3LV7ceQgqC6FSieD1ixd35oeHR+4C5z2JiKjOOABoopXDI3cOL+o8QYBew0NOOHDRwld2zF9w59jYWEvtDCAiotmNiwCbLJ/PL2yzcA8gJ5seI8Dv1cr9ZbMSuhAR0f6vNWsB7MdKpdLoeDk5S4CHTY9R4ChJ4t94jvMhcNBGRER1wC+TGdLV1dXZ0Za7Hdlrxz9kQS4fCMPHG9EvIiKaGzgAmEGV6QC5HZWMgpkocI8k+p0FixbdlzF7l3iedzinE4iI5jYOAGaY67oHSJLcCoFpnoB9CbYDuFeAJ0Tlt0gSP87ltre1tY1YO3bM293RsRhx7Kmlh1pqrQL0NAWG/DA6sb6vhIiIZhMOAFpAX19fx7YtL1wD4F1NavI3HAAQEc1tXATYAtatWzfuh9G7JypfNa+MKhERzVkcALSQYlj6NhQXA9gx030hIqL9GwcALcaPopstyBsAeW6m+0JERPsvDgBa0EAYPj5eLr8agqvBKQEiImoADgBa1ODg4IgfRH+dQE6E4HawHgAREdURBwAtLgzDJ/wgOs9K9FgAPwTXBxARUR1wADBLDJRKT/lh9K5yol1QXATFjQA2Zz6RIFTF/fXvIRERzSbMAzDLFQoFT8vl4wAcAdGDVOVAC1ioFnZBZZuIbofKVqgWY5F1YRhunOk+ExERERERERERERERERERERERERERERERERERERERERERERERERERERERERERERERERERERERERERERERERERERERERERERERERERERERERERERERERERERERERERERERERERERERERERERERERERERERERERERERERERERERERERERERERERERERERERERERERERERERERERERERERERERERERERERERERERERERERERERERERERERHtn/4fuDOZNXVuSWYAAAAASUVORK5CYII=;" vertex="1" parent="1">
          <mxGeometry x="300" y="120" width="72" height="72" as="geometry" />
        </mxCell>
        <mxCell id="eu59SZ70gWTmcf9u2YT1-40" value="" style="shape=image;verticalLabelPosition=bottom;labelBackgroundColor=default;verticalAlign=top;aspect=fixed;imageAspect=0;image=data:image/png,iVBORw0KGgoAAAANSUhEUgAAADAAAAAwCAYAAABXAvmHAAAACXBIWXMAAAsTAAALEwEAmpwYAAAEpUlEQVR4nO3ZaUwcZRzH8X1va90Trbc9KbTQQsvVAuUo902BQi3SRo0xxjQxxhhjjDEmxhhjjDHVmPRuLUdpi9UKlJYC5WjBoqbsSWG3HMtNOYX2Z+aZndmZ3eWJbsbNxvBPPu+/v808r1YmW77lW77//KyV8hTrebllqFKBf8JaKTdbK+RJMm+5gQq5ebBCgX+lXNEr85YbKFPAHTJvuf5zCrhD5i3Xd1YJd8i85e6fVsIdMm85y0kl3CHzlus9roQ7ZN5yPUeVcIfMW+7eD0q4Q+apW+gsSlnsLLQ87CzCwzuFDvZhkfEbo4CYa81Ef+kGdH+vpPLcgI4CszCQ15EvkIcFTnseZpvTYDqipPLYACZwwSFwoX2vQC7rdi7+InIIw7cqKo8N4OIcA4lb2Q6yMM9oy4L+GxWVxwYsFTjflukgA/OtdrqvVVQeG+AqcK41XawlzUEqtF+pqDw2YK7FMTCV1ZyKWSJF7GYy0fWlispjA5YKZCVhhtPESOTd/UJF5bEB9jhx4ExTAmYaWdONe+wa4ok/P1dReWzAtDCwwR7IisP0jThM3YgViMFUfQz++ExFJVkgtK+loOuQBdqDgLYE0L4CaA8A2pcBbRGgKwR0+wBdPqDLw6O7OZhtTiCRU/W7iQfXGdECUfj9UzWVdAO6Dpqdw/cLwgtIOHR7AV0OoMvGo64MPLgWZROJSU7dLl7nJ2oq6QaQ8GJBeJGL8FwSDn0WoM8E9OmYrNuJyauMCEzwwjFRy7rzsZpKwgHMr77f9rlw4fmCcOZXt4dDnwboUzFRG8aqCcN4TahACMarQ9DxkZpKwgHcd86F57kIz+DDoU8B9Ekkcrx6BzHG+HW7QDDaP1RTSTdA8EDt4dmC8HRROPSJgCEBY1eCMXYliBgltmH0F85W3P5ATSXhAPEDZb9zx/BkPhyGPYAhjkSO/swIxAgvACOXWbfeV1NJOCDXRXiaIDxJFA5DLGCIwcjlLbzhnzYL+GO4yh9t76mpJBzg/ECdw+P5cBh2A4YoDFf58YaqNmHoEseXaHlXTSXdANEDtYWTz4ULjxOFwxAJGHdh6KIvhi5uJKzEBlgvcNaj+R0NlYQDnB+oc3g0Hw7jTsAYTiKtF9bBWrkOg8Ra1nnGGtw8rKGScECyi/BYQXiUKBzGMMAYSiJZL2GggvMir+ltDZV0A1w8UOfwCD4cxhDAuB0D5S/w+sufR38Z5zmi8S0NlYQD4l2ERwrCw0XhMAUDpiD0lz2L/lJWX+kzrHOMp4mGNzVUEg5wfqDO4Tv4cJi2AaZAW+hq9P24GveJp+zOPon6NzRUEg6IdhEeZg8nv7o9HKYAwLSFRLJ8YDnD0fCuv04n3QAXD9Q5fCsfDtNmwOQHy2m1jQpmximGknftVQ2VhAMiXIQHC8IDReHo3gR0+8J8SgHzSQV6CTnrxBO8ukM+VBIOCDU7PlDncH8+HN0bsahdi94Tq9BznPO4zUr0HFsJ43ercLXEZ0m1JRrp/uSDITgJpiCzODxAEO7Hh6N7PRa71mDwkgr3jq1gHWU8xjMcWYGmwyrUFPu4dkDTW12sTpRswPIt3//4/gZZWW7KPYf93gAAAABJRU5ErkJggg==;" vertex="1" parent="1">
          <mxGeometry x="1150" y="292" width="48" height="48" as="geometry" />
        </mxCell>
        <mxCell id="eu59SZ70gWTmcf9u2YT1-41" value="" style="shape=image;verticalLabelPosition=bottom;labelBackgroundColor=default;verticalAlign=top;aspect=fixed;imageAspect=0;image=data:image/png,iVBORw0KGgoAAAANSUhEUgAAADAAAAAwCAYAAABXAvmHAAAACXBIWXMAAAsTAAALEwEAmpwYAAABH0lEQVR4nO2XvQ2DMBBGbwHvkSY70GUIKOhpqIAmE6SAOqFIJglVZskWF1kKkgt+fNhgjO9JnyxZFPd8trABmGHK+hFVTYtyBB8pWcDRqvcp6nsut5Ac1XnYM1XT4lycFohPQJk1OpBebygDLgVMDnHKAhoE1QEqKQsMrDQ1QFhpaiAogTGCOgPf4ox9dL5PWUAD7sAWW6ic+IO66ECcvaMk61COxgIUqAJjhCFQLrzHq0UuDYwUrST/C+TqvJWX1FoCSdbhXI7VAe/PQDACn9MJZdYQEJcXyhgLTOFCwCosMIHgDljeQlSEzQ70hVJDKZQaCErA+y00RlACMfEPKlhAg8N3IDa4x4stBOYgv6T2htFLam9Yvce7gAUY8IMfuT9B6eZNKYoAAAAASUVORK5CYII=;" vertex="1" parent="1">
          <mxGeometry x="1200" y="292" width="48" height="48" as="geometry" />
        </mxCell>
        <mxCell id="eu59SZ70gWTmcf9u2YT1-42" value="&lt;b&gt;BI &amp;amp; Reporting&lt;/b&gt;" style="text;html=1;align=center;verticalAlign=middle;whiteSpace=wrap;rounded=0;" vertex="1" parent="1">
          <mxGeometry x="1150" y="350" width="100" height="30" as="geometry" />
        </mxCell>
        <mxCell id="eu59SZ70gWTmcf9u2YT1-43" value="" style="sketch=0;html=1;aspect=fixed;strokeColor=none;shadow=0;fillColor=#3B8DF1;verticalAlign=top;labelPosition=center;verticalLabelPosition=bottom;shape=mxgraph.gcp2.big_query" vertex="1" parent="1">
          <mxGeometry x="1172.78" y="432.5" width="54.45" height="55" as="geometry" />
        </mxCell>
        <mxCell id="eu59SZ70gWTmcf9u2YT1-44" value="&lt;b&gt;Ad-Hoc&lt;/b&gt;&lt;div&gt;&lt;b&gt;SQL Queries&lt;/b&gt;&lt;/div&gt;" style="text;html=1;align=center;verticalAlign=middle;whiteSpace=wrap;rounded=0;" vertex="1" parent="1">
          <mxGeometry x="1150" y="493" width="100" height="30" as="geometry" />
        </mxCell>
        <mxCell id="eu59SZ70gWTmcf9u2YT1-45" value="" style="shape=image;verticalLabelPosition=bottom;labelBackgroundColor=default;verticalAlign=top;aspect=fixed;imageAspect=0;image=data:image/png,iVBORw0KGgoAAAANSUhEUgAAAgAAAAIACAYAAAD0eNT6AAAABHNCSVQICAgIfAhkiAAAAAlwSFlzAAAOxAAADsQBlSsOGwAAABl0RVh0U29mdHdhcmUAd3d3Lmlua3NjYXBlLm9yZ5vuPBoAACAASURBVHic7N15fBx1/T/w13tmd3Nu7mR3ZjZpUkpLmxbaBgotLeUqlHIIgoKKyiGieH4VBLxQVPD48lMQv3KKSlX4gnIVATnkaqFAgQKlUCBN293ZpGmu7ubc3fn8/kj4WmuPJPOZnT3ez8ejDxAz78+7m2TmPZ8TYIwxxhhjjDHGGGOMMcYYY4wxxhhjjDHGGGOMMcYYY4wxxhhjjDHGGGOMMcYYY4wxxhhjjDHGGGOMMcYYY4wxxhhjjDHGGGOMMcYYY4wxxtjuyO0EGGNSUSAQaPJ4PDOFEFOFEI1EVE9EdQCqhRDVAAoB+ACUjF3TD2AEwBARdQHoEkJsB7AVQBsRbU4mk293dHS0ARDp/ysxxpzABQBjWay+vl63LOtIAEcKIQ4DMAeA36HmdgJ4k4heBrDa4/Gs3rJlS9ShthhjDuMCgLEs0tzc7Ovp6VkqhDiJiFYAmOFyShuFEI8Q0aOVlZXPbNiwYcTlfBhj48QFAGOZz6Np2vFEdDaA0wFUuJ3QXvQAuF8IcXc0Gn0SQNLthBhje8cFAGMZKhQKGZZlnQvgEgANbuczQVEAf0ylUrd0dHS0up0MY+w/cQHAWIbRNG0JEX0TwKkAFLfzsckC8CCA60zTfN7tZBhj/8IFAGMZwjCMky3L+j4RLXA7F4e8KIT4YTQafdTtRBhjXAAw5jrDMI4RQvwEwEK3c0mTNZZlfbu9vf0ZtxNhLJ9xAcCYS6ZMmaIlk8mfCSHORX7+Lq4CcIlpmtvcToSxfKS6nQBjecijadpXLMv6K4AFyM+HPwBMB/B5v9+fisViazE6X4Axlib5euNhzBW6ri8C8D8ADnE7lwzzOhFdEolEXnA7EcbyBfcAMJYeqq7rVwG4A4DmdjIZKAjgAr/fXxSLxf4J3nKYMcdxDwBjDgsEAnWqqq4EsMztXLIBET2jKMont23bZrqdC2O5jAsAxhxkGMaxQoiV4Lf+ieoUQnyGlwwy5hweAmDMGaTr+tUAbgVQ5nYyWaiEiD7p9/uVWCzGywUZcwAXAIzJp+q6fguAr4N72ewgAEeXlZVNnT59+qpoNMqrBBiTiG9OjEmk63qxEOKesZP6XOPzlKKipAkVxU2oKJmKipImlBYG4VVL4FEKUeCrgFctAgAkUoMYHulFwhpEMjWA+FA7evtb0dPfir6BNvT2b8ZIMu7mXwcY3TPgbNM0B9xOhLFcwQUAY5I0NDRUJpPJhwAcme62vWoxAhVzEapahFD1ItT4Z4FI3jECOwe2Ity9BuGuNdjWtRojyZi02OMlhHiJiE42TXNH2htnLAdxAcCYBGMn9z0GoDldbfo8pTgguALTtY8gWD4PiuJJS7uWlUR736t417wfrR2Pprt3YIOqqifwCgHG7OMCgDGbQqFQlWVZzyIND38Cob5mCWboZ6Cx7jh4lEKnm9ynpDWEzR1PYFP0fmzb8RxEepbvb/B4PEu2bt3ak47GGMtVXAAwZkMoFCqyLOsfABY72Q6RgoaapTjsgK+gtmy2k01NWldsE9ZvuQ3vta+CZSWdbm5tKpU6rqOjo9/phhjLVVwAMDZJLS0tXtM073dywp9CKqbrZ2B+08UoL57iVDNS9Q604dXWm/Be9AFYIuVkU6tM0zwDgOPVBmO5iJcBMjY5RES3EtHHnWqgtmw2ls/9DWbXfxKF3gqnmpGu0FuBprrj0Vh3HLpi76J/uN2ppqaXlZVNjcVi9zvVAGO5jAsAxiZhbJOfrzkRu9BbgcUHfRdHzfwBSguDTjSRFsUFtTjIOBMlhXVo730VKWvYiWYO9vv9Fm8WxNjE8RAAYxOk6/oJAB4BIG+d3ZjG2mNxTPO1KPRVyg7tqsGRbvzzrSuwZcfTToS3iGhZJBJ5yongjOUqLgAYm4C6urqAx+N5HaOn10mjKB7Mb/oiDp36Janr9zOJgMCbW/6IFzb9HJZIyA7f4fV6523ZsiUqOzBjuYqHABgbP7WsrOxBIpI6Dd9fZODk+bdiuvYREOVuTU6g0c2Kqhci3LVa9v4BpZZlzY3FYivBRwkzNi5cADA2Trqu/5CIPiszZm3ZbHzksJWoKJkqM2xGKy3UcGDwVES6X8DASKfM0FN5PgBj45e7rxuMSaTr+iIAz0HiuL9RdQSWz/0tfJ4SWSGzykgyjkde+yLMnrUyw6aIaEkkEnlBZlDGchH3ADC2f6rf738AgCYrYFPdMiyf+5v/O5AnH6mKD9P1U9Hbvxk9/e/LCqsAODIQCNzW3d3t6CYEjGU7LgAY2w9N075GROfJijc1cCJOOOR6qIpXVsisRaSiKXACevvfR0//B7LC1iQSiSQPBTC2bzwEwNg+1NbWBr1e7zsAymXE0ysPxyktt0NVfDLC5QxLJPDwq59HuGu1rJDDiqLMDofD0roWGMs1ubneiDFJvF7vryDp4V9dOgMnzfsffvjvgUJenHjIr1FbJu08pYJUKnWtrGCM5SLuAWBsLwzDOEYIIWVzGX+RgTMPvxdFvmoZ4XLWwHAn/rr2LMSH5CznF0IcFY1Gn5MSjLEcwz0AjO2FEOIaGXEUxYPj51zHD/9xKC6oxYmH3ACFPFLiERH3AjC2FzwJkLE9MAzjZADfkhFr4fRvYVrQsQMDc05JYRCq4kW4e42McA1+v39NLBZrlRGMsVzCPQCM7YFlWd+XEaex9lgcPOV8GaHyytymi9BQs1RWuKtkBWIsl3ABwNhuNE1bQkQL7MYp9FbgmOZrQTzVZsIIhGNn/wwFXinzL480DGOhjECM5RIuABjbDRFdKiPOEQdemnOn+qVTka8KRxz4DVnhpHxPGcslXAAwtotAINAE4BTbccrn4SDjLAkZ5beZxtmoKzvYdhwhxOmapk2RkBJjOYMLAMZ2oSjKhbD5e6GQiqNmXZWzx/qmE5GCo2b9AArZnq+sEBFPxmBsF3yHYuxfPDIeEtP1M1DjnyUjH4bRExOnBU+VEeoC8Monxv4PFwCMjQkGg8sA6HZiKKRiXtPnJWXEPjR/6hdk9KjU67p+jIx8GMsFXAAwNkZRlLPtxjggeBIqihslZMN2VVkyFVPrTpARyvb3mLFcwQUAYwCam5t9AE6zE4NAmN/0BUkZsd21TL1ExpLKM8e+14zlPS4AGAPQ09OzFICtNXv1NUtQVTpdUkZsd9X+gxCqPtJumMre3l7bQRjLBVwAMAaAiGzv1TtD/6iMVNg+zNDPsB1DCLFcQiqMZT0uABgDIIQ4yc71Pk8pGuuOlZUO24umwDL4PKV2w9j6XjOWK7gAYHmvvr5eBzDDToxpwZPhUQolZcT2xqMUYmrgRLth5tTW1gZl5MNYNuMCgOU9y7JsjwkfqNmaP8gmYIZ+uu0YHo9nkYRUGMtqXAAwBtgqAHyeEgTL58nKhe1HsLwFPk+J3TA8EZDlPS4AWN4TQhxm53qtcgEUxSMrHbYfiuJBsOJQWzFknPbIWLbjAoDlOwIw206AUBWfNJtuRtURdkPMAficZpbfuABgea2+vn4qgDI7MSQ8jNgESfjMy3Vdr5eRC2PZigsAltcsy5pp53qfp5Q3/3FBjX8mvJ5iWzGEEHxiE8trXACwvCaEaLJzfUXJVD721wVECiqKbX3roCiKvQCMZTm+c7G8JoRotHN9RQk/Q9xi97O3+71nLNtxAcDyXYOdi/nkP/fY7QEA0CghDcayFhcALK8pilJr5/qKkgNkpcImqKJkqt0QNTLyYCxbcQHA8l21nYtLCupk5cEmqLRQsxuCCwCW17gAYHlNCGGrAJBwMA2bJK/93QBtfe8Zy3ZcALB8Z2stmVe1/RBik+RV7S0DhM3vPWPZjgsAlu98ti7mHgDX+FTbn32BjDwYy1ZcALB8Z6sAsLsZDZs8CUMAXACwvMYnmPwnCgQCTR6PZ6YQYqoQopGI6omoDkD12JhxIUYfHCUABIBeABYR9QkhRgBEiSgshIgAMIUQ76mq+mY4HI649rdieyPcToC5JuV2Aoy5Ke8LgPr6en3sPPgjx06FmwPAL8Toc4Fo9LyQD//3HhCAyrGv+XBS0UG7fj0RwbIs6LreDWA9Ea0XQjyjKMqz4XC424G/Fhu/Ydj4PRhJ9qPQWyExHTZeiWS/3RC2AzCWzfKuAGhubvb19PQsFUKcREQrUqnUjDQ2XwXgGCHEMQC+blmWpev6eiHEP4UQD7a3tz8PfitJtyGM9uRMSiIZ5wLAJSOpuN0QXACwvJYvBYBH07Tjiejsnp6e0wFUfPhm7zIFwDwimkdE39B1vUMIcZ+iKPdGIpGnwcVAOgzZuTiRGpCVB5sgCZ89FwAsr+V0ARAIBJoURbmQiM4HoLudzzgEiOgLQogv6Lq+jYhu8Xg8t2/ZsiXqdmI5bAcAY7IXjyRtv4WySRpJcA8AY3bk5CoATdOW6Lp+v6qq7xPRd5AdD//d1QshfpRIJLbouv6/hmEsdDuhHNVh5+L+YVuXMxv6h9ttXS+E2CkpFcayUk4VAIZhnKxp2loiehbAR5Abfz8vgI8JIdbouv64pmlL3E4olxCRrSd4b3+rrFTYBNn97Iloi6RUGMtKufCAhGEYx+i6vkYIsYqIFridj4OOJ6JnNU37p2EYR7idTC4YW6o5ab39m2Wlwiaod8D2Z8/fPJbXsroAmDJlimYYxh+FEE8CyJsuciI6eqxH4H91Xbd1nC3De3YulvAQYpPUE7fdA8DfPJbXsrUA8Gia9vVEIvGOEOLTGF2Ln28IwMcAbNA07cqWlhav2wllIyGEvQKgvxVCWLLSYeMkhIW+wTZbMSzL4gKA5bWsKwB0XV+k6/orRPRLAGVu55MBSonommg0ujYUCs1xO5lsk0wmbRUAI8l+dMXflZUOG6cdsY1IJO0tA1QUhQsAlteyqQBQdV3/AYBnARzici6ZaJ5lWet0Xf8p9waMX2dnZzsAW8ssI90vSsqGjVek+wW7IboikQhvzc3yWlYUAPX19bqmaU8AuAqA6nY+GcwL4PJoNPrPUCg06bXteWidnYsjXbYfRmyCIt1r7YZ4EXwOBMtzGV8AGIZxbCqVeoWIjnY7lyxypGVZr+u6vsztRLKErQIg2vsyLJGUlQvbD8tKor33FVsxiIi7bVjey+QCgHRdv1oI8TgAze1kslANgL/run6Z24lkqkAgUKdp2tcAnGUnzkiyH+29r0rKiu1PtPdljNg8CEgI8ZKkdBjLWpm6FbCq6/rNAC50O5Es5wHwc13XZ2ma9vl169Yl3E7IbY2NjYUjIyPLAHwawOkYHTaxbZP5APTKXN6CInO8a95vN4Tw+XxcALC8l3HL53RdLxZC3ENEK9zMw1tQipLqKSipaUJpTRNKqqagsDwIj68YqrcQ3qJyeLxFAIBkYhCJwT6kRgaRTAxiqK8d8a429O/YjP6uNvR3bUFi2PU941cBONs0zXw8vUYJBoNLFEX5DIAzAZTLbsDnKcVnj14Dj1IoOzTbRTI1iD88s8huD8A60zQPlZUTY9kqo3oAQqFQlWVZq4go7Zv6eAtKUTmlBTVNh6O6aQH8dQeCaHwjJF7VC2/hLisSQ/++SEEIC7GOTehqewk7Wteie+s6JIfTfg7JKQCeCoVCK8LhcHe6G3eDrusHCSHOJaJzAUxxsq2RZBybO57AgdopTjaT91q3P267+x/AgzJyYSzbZUwPQCgUMizLegxAc7ra9BSUQm8+EfrBp6Cyfi4UJT31kGUl0bvtdYTXP4j2tx9Pd+/AOp/Pd3xbW1tvOhtNl2AwWKsoyjlE9GkhxGHpbLu+ZglOmX97OpvMOw+tOx/hrtW2YhDRvEgk8rqklBjLWhlRAIy9+T+LdDz8iVB3wJEwDjkNgYOOheopcLzJfUklh9HxzpOIrH8I2z9YDQjnVyYR0csFBQXLWltb+xxvLA0aGxsLE4nEqWO7Qi6HpHH9iSIQPrboQVSXznCj+Zy3I7YR975wOoS91XtbTdN0tDeIsWzhegGg63oxgCfg8F7+pKjQZp2IaUs+B3/dgU42NWmxjk1477lb0f72P9KxveyLiURiWWdnp+uTEyaJNE1bTESfwegs/gq3EwKAacEVWHbwr9xOIyc9tv4raO14zG6YG03T/IqMfBjLdq4WAC0tLV7TNO93csIfKSpCh5yGAxZ/DiVV2XFuTn/XFrz//K2IvLEKwko52dQq0zRPB+BoIzIZhjFdCHEuRmfxN7qczn9QSMXZRz6CiuJGt1PJKT39H+DuNSfLKIwXm6ZpbwyBsRzh5q56pCjKHbC5BntfKkOH4NBzbkBDy8fgK5I+8dsxvuIKBA86FnXTl2Jn+zsYim13qqnpfr+/KhaLPeJUAzIYhlHt9/sv8Pv9NwD4GYClyJA3/t0JCCSS/WiqO97tVHLKmk3Xoiv2jq0YRPSWaZpXSkqJsaznWgGg6/rVABzpivMVVWDWSVegecW3UeivdaKJtCj016J+3hko9NehZ9vrsJLDTjSzoLS0tDcej9veW1WmadOmFRQUFJxeVlZ2LYCbAJwKIORyWuPSE9+EKbXHoKSgzu1UcsL2vjew+t2fQMLOvT+OxWK8/p+xMa4MAei6fgKAR+DAToR104/GIR+5Gr7iStmhXTXS3431D3wP29971onwKcuyjmtvb3/GieATQLquHzm2dO/jALL2m1hXfgg+uuDucS8lZXsmhIW/vfQxbO97026oQY/HY2zdurVHRl6M5YK09wDU19frQojHAJTKjEuKBzOXfQOzl18B1VckM3RGUH1FMGavgMdXhO62l2VPElSI6ITi4uKV/f39ad+gIBQKTSstLf1aWVnZbQC+SUSHAsjqb2L/cAdKCutQWzbb7VSy2tvhu/B2+G4Zof4cDofvkhGIsVyR7h4AVdO0J2Qf7FNUoWP+mb9ARehgmWEzVs+21/HqvZdhaGe77NCPm6a5HIDjSxBCoVCVEOLssaV7ad/4KR0KvOX4xJGPochX5XYqWWlwpAt/ef5EDCd32g1lKYoyNxwO2+5GYCyXpLUHQNf1HxLRZ2XGLNdm4ojzfo/SmkaZYTNaUXkQ+pwV6Nq8FsPxHTJDH+D3+4disdjzMoN+aGxc/7SysrJrhRA3AzgNQL0TbWWClDWMnvj7mKadAnJ/xW1WEcLCP974Grrjm2zHIqK/RSKRGyWkxVhOSVsBoOv6IgB3QGKvQ3XTAiz41M1ZNcNfFo+vGPqcFegNv4HBXlNm6MV+v/+vsVhMWmWh6/oiv99/ZSKRuIOIzgNwENxdgZI2fQNt8KrFCFbMdzuVrPLa5pvxtpwee0FEn4zFYh0ygjGWS9J1E/b4/f4HIPFY3+DMZTj07F9B9Wb1ULEtqscHfc5J6N+xGfHOVllhPQDmxWKx38PGtOv6+voDSktLv+r3+28DcBmAw5Ad4/oCwGohxE+IqADAAXYDmt1rEapeiNJCPtV6PKI9r+Cfb18ha57L/aZp3iAjEGO5Ji39kpqmfZ2IfikrXnDmMsw/6xcgJS9eIvdLWCm89tfLEH37cZlhv2qa5q8nckFDQ0NlIpH4OBF9GsAiZMBOkxPwHoCVqVTqzo6Ojs0AEAqF5liW9RokFMqlhRrOPPxeFBdk77LUdBgY3o57XzwT/cNSXtgtIpofiUTWywjGWK5x/AZdW1sb9Hq970DSEazVjYdhwbk3QVF9MsLlDJFK4KU/fwk7Wl+QFTKWSCSmd3Z27m+moarr+jFE9BkhxJkAimUlkAa9RPSQEOKPpmk+iT30eOi6/jsA58torKp0Os5Y8Bf4PH4Z4XLOSDKOB17+FHbENsoK+VvTNC+RFYyxXON4AaDr+l0AzpYRyx+YjkXn/R6eQr6B7kliOI61f7gAfVE5N1AhxE3RaPSLe/r/NE1rGduH/xwA2bTjzTCAx4nojxUVFQ9s2LBhZF9fPFbAboSknQf1ygU4peV2qIq7h1BlGksk8PCrFyHctUZWyC4AB5mmKXWWLGO5xNECwDCMY4QQT8mIVVSh48jP/QUFJbykal+G4juw+tZPyFoimLQsa257e/sGAAgEAk0ej+fcsb34p8toIE0EgDVEtFJV1bsnuhmMrutfBjCh4ZB9mRo4EcsO/hUU4iEsALBECo+/8TW0dvxDZtgLTdP8ncyAjOUaRwsAXdfXQMIab1I8WHT+H/Jmnb9dPdtew4u/vwCWlZQR7h9CiHvHxvUXI7vG9T8AcKeqqiu3bdv2gY04qq7rLwI4VFJeOCBwIo6bcx1UJb+HslLWMJ5485uyH/4vmKa5GGnYz4KxbObYzdwwjJOFEKtkxJp5wqWYulDq9gE574PVt+OdJ/LyWNr9jutPhqZpM4noVQCFMuIBo8MBJ827CT6P1E0xs0YiOYBH138J4S6ph/MNKYqygDf9YWz/HOuDLC0tXUlEht04ddOPxuzlVwCUTS+e7quqn4feyFsY6N7qdirpMALgISHEt0tKSi7esmXLvbFYTNq6SACIx+M7/H5/AsAyWTFjQxFs2/EsmuqOh9dTIitsVhgY6cSDL38aHX2vSY1LRF+NRCIPSw3KWI5y5KmqadoSIrJ9ao2vqAJLv/xgzh3sky4j/d14+jenITHY53YqTnkBwEpFUe4Kh8PdaWhPNQzjSSHEUplBSws1LDv4l3mzWVC05xU8/sZ/yVrqt6sHTdM8HZJ6fRjLdY70AJSVlf0awAy7cWaddAWqGvLjpugE1VcEb2Eptm9y5ARBt2wDcBMRXWia5s9jsdjLO3fuHExT26KoqOgRRVE+BUDaUpSRZBybovdDCAt65WGgHO3tEhB4c8sf8eSbl2IkGZMdfnsymVzR398flx2YsVwl/U4TCASaVFV9HzaP+q0MHYKFF/yRj1O1SQgLq2/7FPrMt9xOxY4eIrpHCHGnaZqr4fIbnmEYx42daCm9gG6oWYpjZ/8s5w4QGhzpwlNvXY6tO5wpRono5ZGRkWM7Ozu5AGBsnKTfwMrKyi4lIltdpKSoOPSc61Hoz6bl5ZmJiFCuzcK21+8DRFb1jKYAPEVEPwTwOdM074vFYhkxoSEWi20uKyuLAzhRduy+gS14O3w3PEohasvnZH0BLISF99ofwCOvfxFdsXedbMpQVfXogoKCewYGBva5twNjbJTsAsBTVlb2B9jsHq2fezoaWj4uKSVW6K9Ff/dWxDrsn6yWBmsB/AzAeaZp3hyLxdbHYrGE20ntLhaLveD3+0MApI9RpawRbOt6Dtt2PIfaslkoKcjOQnh73xt4bP2X8NbWPyGZGkpHk/Wqqi4pLCzkIoCxcZA6BKBp2nIiesRODFJULP3SgyipapCVFgMQ37EZz/7P6bIOWJGtTQixUlGUOyORSFZUKQDQ0tLijUajqwCc4FQbCqmYFjwV86d+AZUlU51qRqqe/g/w2uabsSn6oFs/b88nEomTeDiAsX2TWgDouv57ALYW7OuzV2DemT+TkxD7N6/e801E35a64YodfUT0oOz1+umm63oxgMcwukmSY4gUNNQsxaFTv4y68jlONjVp3fFNeL3tNrwXfQiWSLmdzpqRkZHlO3bskD7bkLFcIa0AaG5u9vX09HTAzp7pRDjqC3+Fv+5AWWmxXezseBfP3fwxN+cCJAA8SkR3er3eh9ra2tLSL+y0UChUZVnWPwE4vlUlgRCqPhIz9DPQFFgGjyJtX6JJSaYG0br9cbxr3odI1xqIzKrjuCeAsX2QVgDour4MgK3Xy7ppi3HYp34rKSO2Jy+tvBidH0g7cGVciOhlIcSdlmXd1d7e3pnWxtNE1/UaAI8DmJuuNn2eUkwNnIgZ+ukIlrdAUTxpadcSSUR7Xsa75v3YvP0fGEn2p6XdSeIigLG9kFYAaJr2/4jov+zEmH/WL6A1L5eVEtuDyJsP4/W/XZGOprYIIVYS0UrTNN9JR4NuG+sJeAwSzwwYL6+nGFrFYQhVL4ReeThq/DOlrSAQwsKO2EZEul9EpPtFRHtfRiI5ICV2mnARwNgeyOwB2AjgoMle7ykoxfGXPg3Vw8ekOimVGMKT1x2DxLAj98I+AH+1LOuP7e3tzyEPD2Opqanx+3y+e+HgxMDx8HqKUVHchIqSprF/TkVpoQavWgyvWowCbzm8nmIAo3vyDyf6kEgNYCTZj/7hdvT2t6KnvxV9A23oHdicbQ/8PeEigLHdSCkA6uvr9VQqFbETo2H+mZhz6g9kpMP2Y/0D30P49ftlhUtidBLcnYqiPBgOh9O1K1/Gamlp8ZqmeRsRfcbtXNi/4SKAsV1I6SO0LOtIuzH0g0+RkQobh9Ahp8kIs0EI8fVUKmWYpnmKaZp388N/1Lp16xIY3bKYZZbFXq/3kdra2vw8fpGx3cjaZmyRnYu9BaWorE/b3Km8V9UwD54C26fP3RONRq/v6OjYLiOnXGIYxiFE9C2388hyUSJ62YG4XAQwNkZKASCEWGDn+sop6ZvBzABSPKist72BXYuMXHKQRwhxGwCv24lksQctyzpkZGTkWADPOxCfiwDGIKcAIACz7QSoaTpcQhpsImqabNVsABcAe6Tr+jfgwiqAHDEkhPi6aZqnt7e3d3Z2dsZTqdRyIcTTDrS12Ov1PlZTUyPtVEfGso3tAiAQCDQBKLMTo7rxMLtpsAmqtl906cFgsFZGLrkiFApNA/ADt/PIUi8IIeZHo9HrscuukB0dHf3JZPJUONMTsMjn8/2dewJYvrJdAHg8nll2rvcWlMIfmG43DTZBZcEZ8PiKbcVQFIW/cf9CqVTqVgBFbieSZToBXGia5pHRaHTjHr+gszOeSCROAg8HMCaV7QJACNFk5/qSmsasP/I0GxEpKKmeYjMG8Z7NYwzDuJiIjnY7jyxiEdGdAGaZpvk77OcsCB4OYEw+GQVAo53rS6ptXc5sKKm2VbsBAPcAAAiFQoYQ4qdu55ElBID7iGh+JBL5jGmaO8Z7IQ8HMCaXjFdvW+f2cgHgntKaRlvXW5ZlyMkku1mW9VsA5ZLCvYjcyAn8XAAAIABJREFU3EHRIqK/EtE80zQ/GolE1k8mCA8HMCaPjAKgxs7FpVwAuMZu8UVEATmZZC9d188BcKqMWET0iGmaC4lophDiJgC5sLHSIIA/KIoyNxKJnDXZB/+uuAhgTA7bBYCiKLYKgMKyvH+GuKaoPGg3RJ2MPLLV2AmA10sKFxNCfAEAIpHIpmg0+kVFUUIAvgbgDUltpA0RvQXgqz6fTzdN87xwOPymzPhcBDBmn4w5ANV2rpewIx2bJI/P9mdvq/jLdkT0S8grgq40TXPrrv8hHA53m6Z5g2mahwghDgNwHYDNktpzwhYANwJYHIlE5pim+eu2trZepxrjIoAxe2Rsv2dr2ZNqcykamzwJn33eLnkLBoMnCSHOlRTuedM0f7uvL4hGo68AeAXApZqmtRDRqQCOB3A45PweT4YA8CqAB4nowUgk8nq6E+js7IzX1tae5PV6HwGwWHL4D4sAPkCI5SQZNw6frQS4B8A1Ej77Qhl5ZJuamhq/oig3SQo3BOAiTGDiXzQaXQdgHYAf1NTU+AsKCpaObcd9GEZ3IXSqZ2YHgLVEtFYIsdbn873k5Bv+eHERwNjkyCgACuxc7LXfDc0miQuAyfH5fNfC5uqXDwkhfhSNRt+Z7PU7duyIAVg19gfA6PHcQojpqVTqQCI6kIg0IUQdgCCASgClGB3+K8focc4xAHGMFiM7iShuWdYWImolos2WZW1WFGVzJBIJT/5v6iwuAhibOD6Bh9mRi8vV9skwjIVCiC9KCveGruu/iEajksKN2rZtmwnABPC01MAZrrOzMx4IBJYrirLKgU2ZPtwsaPlY0cVY1pOxDHDEzsXJkQEJKbDJSA732w2RV29D06ZNKxg76U/G701SCHHBunXrEhJisTEdHR39lmWd4tCOgYt8Pt+jvGMgyxXuFwD2H0JskiR89nn1zRscHLwKgK2zL3bx32Nj+UwyLgIYGx8ZBYCth0ByJK+eIRklZb/3JW++eYZhzBVCXCYp3CZFUa6WFIvtAW8bzNj+2S4AiKjbzvXcA+CexLDtHvx8GQLwCCFuh5w5M0IIcVE4HM6FXf4yGu8TwNi+2S4ALMsa92EeezK0s8NuCmySJHz2O2Xkkel0Xf8mgPkyYgkhbo5Go8/KiMX2j4sAxvZORg9Ap53r411tdlNgk9Rv/7PfIiGNjGYYxnQAV0kKFx4eHr5cUiw2TlwEMLZnMuYAbN3/l+ydhIcQm6T4Dnu7yhJRq6RUMpUihLgV8nY8/HJ3d3de9Jpkms7OzngqlVru0MTAD5cI8sRAllVkFAC23gL7bT6E2OTFd7TZul4IkdMFgK7rXwBwlKRwfzJN8wFJsdgk8OoAxv6djCEAWw+BeFcbhMi7/WRcJ4SFgW57Pfi53ANgGEYIwLWSwu2wLOu/JMViNvDqAMb+xXYBkEwm37Z1/XA/Yh2b7KbBJmhn+7u2N2FKJpM5WwAIIX4LoExSuK+1t7fbmivD5OE5AYyNsl0AdHR0tMHmbPCutpfspsEmqGvzi3ZDmB0dHdtl5JJpNE37FIBTZMQSQvzdNM0/y4jF5OE5AYzJmQMgALxpJ8CO1rUS0mAT0dX2sq3rich2BZGJdF2vIaJfSgq3k4i+ICkWk4yHA1i+k1EAgIhsPU26t66DsJIyUmHjYFlJdG991VYMIcQLktLJNDcAqJURiIguN01zm4xYzBncE8DymZQCAMBqOxcnh/vRs+11Samw/enesk7GDow51wNgGMbJAD4hKdyzkUjkFkmxmIO4J4DlKykFgMfjsVUAAEB4/YMyUmHjEHnjIbshEoqi5NRBNlVVVWVjE/9kGCKii5CHxyVnK54YyPKRlAJgy5YtUQAb7cRof/txpJLDMtJh+5BKDKF94xN2w7yYa3vZFxYW/hRAvaRwP4xEIry0JctwEcDyjawhAAghHrVzfWI4jo53npKVDtuL9o1PyOj+z6nuGk3TjgIga7Leek3TrpMUi6UZzwlg+URaAUBEj9iNEV7PG6U5TcZQCxHlTAEQCoWKiOhWACQhXBLA+evWrUtIiMVcwnMCWL6QVgBomvY0AFtHA3d+sIY3BXLQzo53scP++v+NudS9bVnWVQCmy4hFRD83TfM1GbGYu7gngOUDaQXA2FuPvVd4IfD+87fJSYj9h/eeuRkQwm6YnHn7NwzjEADfkBRuk9fr/ZGkWCwD8NkBLNdJKwAAQAhxt90Y0bf/gf6unD9lNu3ina3oeOdJ23GEEIdrmnaohJTc5hFC3AHAKyGWBeDCtra2IQmxWAbh4QCWy6QWANFo9EkAETsxhJXC+8/fKikj9qH3n79NyqFLRHQ0Eb2s6/pD2VwIaJp2GYB5ksLdZJqmEw8IlgF4dQDLVVILAADJsbcqWyLrH0Kf+ZaMfBiAPvNtmG/9XXbYU8YKgcdDodAC2cGdZBjGdCL6vqRwW0dGRq6QFItlKJ4TwHKRjJnP/yYYDDYqivIBbBYXFcYcLLpwJYhk1yj5RQgLa277JHrNDU43tUoI8cNoNPqK0w3ZpOi6/gyAxVKCKcrJ4XBYenVlh67rDQBmADhICNGoKEqdEEIHEARQgtFTDglAxdgl/QBGMLqBUReALiHEdgBbAbQR0eZkMvn22MFftieRZLPa2tpSr9f7CCT9/Ozm+UQicVJnZ2fcgdiM/QfpBQAA6Lp+H4DT7caZc8r30dDyMQkZ5a8tr9yNtx7+cTqbzOhCQNf1SwD8RkYsIloZiUQ+LSPWZNXV1QU8Hs9CAEcCWAjgYABOvUnuBPDm2Nkfqz0ez+qxTcDyChcBLFc4VQAsBvCc3TjeonIc/aUH4SupkpBV/hnu78YzN56KxJCt05onK+MKgbE347cg5wG5HUCzaZo7JMSaCE8oFFpsWdYKACsANKe5/d1tFEI8QkSPVlZWPrNhw4YRl/NJCy4CWC5wpAAAAF3XXwBwhN04dQcehcM+cSNAjqWak4Sw8Mqfv4Tt77s+Ny1jCgFN0x4mohWSwn3CNM27JMXaH8UwjKOFEJ8GcAaA8jS1O1E9AO4XQtw9NiE4p4/45CKAZTvHnqqapi2XsTsgAMxc9g1MXXS+jFB54/3nbsO7T13vdhq7crUQ0DTtXCK6U1K4h0zTPE1SrL3Sdb2BiL4w9uAPOd2eZBEhxB1CiNvb29vb3E7GKVwEsGzm6Gu1ruvPY3Rs0hZSPFh43h2orJ8rIavc171lHdb+8XOwrIx8AUt7IRAIBOpUVd0AoEZCuD5FUZrD4bCt5a77omnaEgBfJaLTAXicaidNLIxuHnVdri6V5CKAZStHp9hblvUdGXGElcSr916GoXi6h1uzz3CsE6/99VuZ+vAH/rV8MG37CKiqej3kPPwhhLjcqYe/ruvLdF1fQ0TPEtFZyP6HPzB6jzkdwHO6rr+gadpytxOSjfcJYNnK8YF1Xdf/BOCTMmKVBQ/CEefdAW8B/y7sSXI4jjV3fDbbzlNwtEdA1/VTIWn7YiHE09Fo9FhIXgqnadpRRPRjAEtkxs1gayzL+nZ7e/szbiciE/cEsGzjeAFQW1sb9Hq9G/GvNce2VE05FIefezMUj09GuJwhUgm89OdLsKPV9mE/bnlCUZTvhMPhl2QFrKqqKissLNwAOePng4qiHBIOh9+TEAsAYBhGCMA1Y2P8+WgVgEtM09zmdiKyBAKBEkVRVhHR0Q6EXzMyMrJ8x44dMQdiszykOt3AwMBA3O/3DwI4SUa8wT4T8R2boc08njcJGiOsFF7962XY/t6zbqdix1QhxOf8fv+hpaWl78XjcdNuwIqKiuuJ6FgZyQH4biQSeUhGoMbGxsLi4uLvAbgLQIuMmFlqOoALSktLB+Px+CvIgU2G+vv7E0VFRX9VVfUoAA2Sw9erqrqksLDwnoGBgbxYbsmcla61daqu668AkDaLT5u1DHM/+lMoan73BFjJEbz2t8vRvvEJt1ORSQB42M7QQDAYXKooyj8h52d8nWmaR0DCsrZQKHS4ZVl3AJhpP62c8joRXRKJRF5wOxEZeDiAZQPHewDGiLKysjcAnA9JRUe8sxU9W19DYOZxUPN0OCA5HMfLf/kSOuWu9U8CeApAE9JXIO6OAEwnoosm0yMQCoWKAPwdQLWEXBJEdEosFrO14920adMKCgsLfyyEuB1AnYS8ck0QwPl+v1+JxWLPIct7AwYGBkYKCwvvcagnoEFV1aO4J4DZla4CALFYLOz3+1UAS2XFHOw1sX3TswgcdAw8BSWywmaFofgOrL3zIvSG35Aal4i+b5rmReXl5fcJIWoAzIL7hcDn/X7/4vLy8nd37ty53xn4paWl1wA4VUYCQohrTdP8i50Yuq43JBKJvwM4Bw6vvMlyBODosrKypRUVFf/YuXNnVo91DwwMjBQXF/8vES0iokbJ4RtUVT26oKCAiwA2aem+sSu6rj8G4HiZQQvLAph35s9R1TBfZtiM1We+hVfvuRQDvXJXoxHRM5FI5DgAqQ//WygUOtiyrO8COAvuFQK72udkQcMw5gohXgLgldDWuz6fb25bW9vQZAOMrUL4A4BKCfnkk04hxGei0eijbidiF08MZJkqbT0AY0RVVdUTlmWdC0DaWr7kcD/MN1ZB8fhQVT83d7cNFgLvP3871t93JUYG+2RH3+71epf19fX928EBO3fu7IjFYveUlpY+TEQ6gAPhbiGw18mCLS0t3lgs9ncAuoR2LABnbNu2bfMkrydd168G8FsARRLyyTclRPTJsSGBrF4uyBMDWaZKdwGAvr6+uN/vfx3AuZD4IBHCwo7WF9EbeQu1ByyE6sute+5wfzdeu+eb2LruHghhyQ5vCSE+Fg6HX9/bF8TjcTMWi/0lQwqBPc4RUBTlSkjacwLAb0zTvHkyF46N9/8BwJeRGb0m2YoAHO33+6fEYrGHMVqUZSWeE8AykWs3J13XfwDgKidie4vKMePYr6Kh5aysXyoohIWt6+7Bu0/e4NipfkKI/4pGo7+ayDWaph1KRFcBOBnuP+QEgMcAHAOgQEK8LSMjI3Mm063a0NBQmUwm7wdwlIQ8Jq3E40F9YTHqi4owpagEocIi1PkKUaSqKFQU+D1eFKmj9f9gKoVYMoFBy8JQKoXtI0PYNjiALYMDCA8NYtvQAPqTru8suQrA2aZpDridiB28OoBlEjdv3KTr+q0ALnSqgXJtJmaf/D1UGHOcasJRfdGNeOvvP5Y+0W9XRHRLJBK5eLLXZ+AcAduEECdNZuw5FApVWZb1GIC0bHG8q0JVRXNpGQ4tr0JLeSUOLCmFInEozBwaxCt9PVjX141XensQT6W/IBBCvEREJ7twBLNUPCeAZQq3b9geXdfvA3CKUw2QokKfvQLTllyE0pomp5qRKt7Zig9W34bIGw870d2/q1WmaZ6OXSb9TdZYj8D3Mfq9dPvnatKEEH+MRqOfneh1YztePgGg2YG09qhEVXFMTQAn1AQw218ONU1zX1JC4M1YHx7rbMcz3Z3p7h3YoKrqCdu2bbO9UZSbuCeAZQLXb9S6rhcDeBzAIifbIVIQnLUM05ZchLLADCebmrSd7e/gvWdvQcc7Tzr94AeAtYlE4njZNwlN01rGhgaysRDoIKLmSCTSNZGL6urqAh6P51mM7mznKAKwoKIaJ9YGsbiqBgWKu0Ncw5aF57s78VhnB17q7UrX4v0NHo9nydatW3vS05wzuAhgbsuIG/RY1+mzSMfbExFqpy6EcchpCM48HqpHxpDx5KUSQ2jf+ATC6x/Ejs0vAiItt9AXCwsLl7e2tkpfSvChbCwEiOjsSCTyvxO5Zuy8gacBzHMmq1EqEY6ursO5xhRMLc7MPS8+GOjHynAbnu7uhOX8z/FqACfwnIB94iKA7VPG3Jjr6+v1VCr1D6SxC9VbUIrAzOMROuQ0VDbMg6Kk5/RVYSXRtWUdIusfRPs7TyI53J+WdsesGRoaOqm7u9uZGYW7yaJC4IGx4ZBxa2xsLBweHn7EobFcAKMP/hNrg/iUMQWhwuxY2bJtaAArw1vw+I4OpJwtBFaZpnkGJGzR7CYuAphbMuqGPDaD+iEAR6a7bY+vGJUNLaiZejiqGxegLDhD2goCISzsbH8XXZvXoqvtJXRvWYfkiCsvLs+NjIyc7MYEoQwvBPpUVZ01wXFl0nX9LgAfdyqpZn8ZvtE0A9NKsvP46039Mfy/1k3YGHe01rzDNM0LkeVbB3MRwNyQaTfiD+cE3AVJW7lOlsdXjJLqKSipbkJpTSNKqhtRVB6E6iuGx1cMb2EZPL5iAEByZACJoZ1IjgwgOdyPoZ0d6O9qQ3zHZvR3taG/a4tbD/xd3Z9Kpc7t6OhIa3fD7jKxECCiayKRyHcmco2mad8mop84kU+Zx4uLG6ZiRZ0mdSa/GywhsGp7FLds/QAx5yYLXmWa5tVOBU8XLgJYumXq3cUztkTwPLcTyRG/ME3zCmTQRioZVggIAKvGTh9ct78vNgzjFCHEA3BgX/9FldW44oCZKPfK2Mk4c/QmErj2/Y14sXdC8yvHyyKiZZFI5CkngqcTFwEgTdMaVFVtsiyrCUATETUJIZoAFAKowOheHyUA/AA8APoBjAAYIqIuAF1CiO0AtgJoI6LNyWTy7Y6OjjZkeU+RbG7fePeFdF3/HoDvw4UdC3NEAsAlpmne5nYie5OhhcDVezuGOBAITFVV9VUA5TIbVolw8ZQD8HGt3vUPwSkCwN3mVtyytdWJuQHtiURiXmdnZ7vswOmWT0WAYRjVRHS4ZVkLABw+9sepczN2AniTiF4GsNrj8azesmWLrVM+s13G32sMwzhWCPEnjB4XyiZgMl3bbsnAQuDhsR6BXQsBj67rzwJYKLOxYEEhrprejFmlZTLDZqy3Yn344aYN2D4yLDv0k6ZpnoAM6umarBwuAkjTtPlE9BGMDvPOdSGHXW0UQjxCRI9WVlY+s2HDhrzaStntG+24jG2yshLAcW7nkmW2+3y+GW1tbb1uJzJemVwIOLF99fQSP34+82BUen0yw2a8rpFhfOudN/B+v/RnUE7MBwByqwjQNG0JEX0Cow/9UDranIQeAPcLIe6ORqNPIstXl4yH2zfYiVB0Xf8ueEhgon5tmuZX3U5iojKwEHgSwNEYHXOUYn5ZJX5y0GwUq+lZfppp+pNJfOfdN/HaTqn1aYqIlkQikRdkBnVLNhcBuq7XENFnhBAXATjIiTYcFBFC3CGEuL29vb3N7WSc4vaNdcIMw1gohLgVadwvIMsliejQSCSy3u1EJiPDCgFpllbV4nvTZ8Gb5YdV2ZUQFn703kY807VdZtgNlZWV83OlOzfbioCx39lvAvgo5BzO5SYLwIMArjNN83m3k5Et696kY7FYuKGh4bahoaEUgCMg8Y0sRykAmmOx2O/dTmQy4vF4tLy8/AMhxAVwYNa9G5ZW1eKq6c3w5PnDHxid/HhUVS3aBgewZVDaCtW6oaGhVCwWe0ZWQDdly1HCmqa1lJWV3UxE/w1gDnLj3kwY7b24wO/3Ly8tLY3E4/H33U5Klqx+owoGg41E9AsiOsvtXDKdEOLcaDT6J7fzmKjm5mZfT0/PKxi9oWS9+WWV+Pmsg/P+zX93CWHh0rfX43V5wwFDqVRqVkdHx2ZZAd2WqT0BudpLtw9rLMv6dnt7e9YXmFnXA7CreDzeG4/H7yktLX2KiKYBmOJ2TpmKiI4oKCi41W6Vn25er/c7AM52Ow8ZPpzwV6hm9a+dI1QiHFVdh7W9XehOSPkR9RCREY/H75ERLBNkWk+AYRjVfr//BiL6H4y+JefDwx8A6onoPL/fP72qquqFvr6+jFhSORk5cSeKx+NbY7HYHX6/fw2AqZD/y5EL/KqqemOx2ONuJzJewWBwFhGtRA50JQYLCnF98zyU5dgGPzL5FAWLK2vwz67t6E/ZPqEaRDSrtLT0qXg8vlVCehkhQ4oARdO0iwDcj9HeiHx58O9ujmVZnystLR2Mx+OvIAs3GcrJb5xhGAsBXCqEOB3ZP248AuBNAC0SYiWEEIdEo9GNEmI5TdF1/XlIXnPvBpUIN86enzfr/O16M9aHr214TdZmQc+ZpnmUjECZxK3hgEAgMNvj8fxOCHGYA+1ms9eJ6JJsW32S7Q/HPYpEIi9EIpEzATQBuBpA2OWUJoyIWgFcmUwmGyorKxcB2CQhrJeIbpAQx3Gapn0FOfDwB4CLpxzAD/8JmOMvx0UNU2WFW6Lr+jJZwTJFZ2dnPJFInATAiZnpi71e7yO1tbW7nkJFuq5/SVXVl/jhv0dzhRDPj+0VkjU96znZA7AHqq7rx2B0LPkMANUu57M32wH8LxH9ORKJvIhdupQ0TTuRiB6V0QgRfSwSidwrI5YTgsFgo6Iob2F0v++stqiyGtccdHDe/KLJIgBcsXE9XuztlhFutWmaTrwpuy4dPQGqqhYpivI7jE7yY/v3T6/X+6ls2GY47+5LLS0t3vb29iVCiOUAlsPd2eUWgPVCiL8rirIqEom8hH1sY6rr+n0AJnRm/V5sBTDTNE3XjyjcA9J1/TEAst7argSwCC7MUC7zeLFy7uE5d7BPuvQmEjj39RelnCJIRIuyrXt2vJwsAojoZSFECIAmO3aO6wBwrmmaT7idyL7kXQGwu0AgUKcoypEAFhPRAowWBFIPetlFN4DXALxKRM+qqrp669atPeO9eOzN+G0ARXYTEUL8JBqNftduHNkMwzhPCHGHpHD3mab5UcCdpUqXTZ2BUwJ6OprKWQ+2R3DdZvujX0T0t7FhwZzkcE8AmxwLwI9M0/whMnSCYN4XAHuiadoUADMVRfnwGMp6AAGMDh1UAyjG6Mx0/9glOwGkAAwC2DH2pwPANiFE69h4/jumaW6zm5uu61cB+IHdOACGFUWZHQ6HM2ZTi7EzHzYAqJIQrtfr9c7avRsuXYVAs78MNzbPh0L8K2aHJQS++NY6vBOPSQglpkaj0S0y8spEXARkrN+bpnkRMvBsAb47ZZlQKFRkWdYGjE5wtOth0zQzZlxP07R7JG7q9DnTNG/fR1uOFQIqEW6ZcyimlZTu/4vZfr0bj+GLb62TsSrgatM0pR7mlGlypQjwl6horPdiar0PU6f40BTyQqvzoqRIQWEhUOH3oKho9Nd2cFCgN5bE4KDAwJBAdHsCrdsSaN0ygs3hEbRtSyDWb39ZqU2rAJydacOuXABkIV3XP4LRNbgynGaa5kOSYk2apmkfJaK/Sgr3pGmayzCObjcnCoEVdRouPyDbzj7JbNe8vxGPdbbbDbPNNM0mjPbW5axsLAL8JSoOPbgQi1pKsHB+EaY3+aAoch5PliXwbusIXnh1AGvWDeCVNwYRH3DlxOg1Ho/nlIkM+zqNC4AsZRjG34UQJ0kI9YHP55vd1tY2JCHWpDQ0NFQmk8kNkDPRqD+VSh3c0dHROpGLxgqBXwA4xk7jKhH+OPdwhAptT9Ngu9g6OIDPrn8Jlv1egGWZPjFLhmwoAkpLFKw4xo/TT/Bj/uwieNT0PI6SKYF1bw7h/sd24tFn4unuHdigquoJ27ZtM9PZ6N5kzXpF9u/Ky8tfEkJ8HvZ3yauyLGskFos9KyOvySgpKfkNACmbtRDRFdFo9JGJXhePx6N+v/8g2LxhHlsTwKk88U+6cq8XbQP9aLN/YNBILBZzvcfLaQ7vGDhpRMBRh5fgvy6swTXfCuLEo0phBL3S3vbHQ1EIoaAXxy8uxXlnVeLApgIMDglsNRPpaL5OCLG8srLyL319fa69dH2IewCymGEY1wghrpQQatCyrFlunHttGMYxQognIeFnUQjxUjQaXYRJdvHqur4RNs4tJwC/O2QBphZn/fYFGemDgTguXP+y3enUPZWVlcFcOSp4fwKBQImiKKuI6Gg381AUYOnhJfja+dWYPaPQzVT2alPrMG69qwcPPRFDMuX4pP21qVTquI6ODmlHYE5GTu4EmC+SyeRPIGeXwyJVVa+TEGdCAoFACYDbIKcQHbEs60JM8uFvGMZ02Hj4A8CCimp++DvogOJSHFphe4FIZW9v75Ey8skGHR0d/clk8lQ4s2Pgfqkq4WMryvGPO5tw60+NjH34A8D0qQX4xbeDeOQPU3Dm8jKozg5JHK6q6l1w+ZwTLgCy2Fj1eKmMWEKIj2qatlxGrPHyeDw/FkLI2vP1mo6Ojrcme/HYuRG2LK8L2g3B9mN5rf3PeGwTsLzR2dkZT6VSy4UQT6ez3dkzCnHPb+px7eUBNIayZzOspnoffnZlEPff0oB5zY4WLKcYhnEHXOyJ5wIgy5mmeTeAp2TEIqJfNjc3+2TE2p9QKHS4EOIrksJtqKysvNZmjFPtXFyiqjiyssZmCmx/FlfVoMRj76WJiFZISidrpLMnoKJMxTWXBfC3m+px8MzMfePfn5nTCnD3jfX48TfrUO53ZrqcEOJcXde/50jwceACIAdYlvVVADJmsBzU09PzdQlx9qm5udknhLgNciahphRFudDOmK6u68UADreTxDE1ARQo/OvktEJFxVFVtbZiCCGaA4FAnaSUssaHBwgR0ctOtXHsohI8vrIRHz+lPK0T+5yiKIRzTqvA4ysbcfQRjg3vXWUYxrFOBd8XvmPlgPb29g1CiBslhftuKBQyJMXao56enm8LIWbLiCWEuCEcDq+1GaMFgK0+yhNqAnYuZxNwov1hAFIUJWOXxzlJUZTisb39pfKowJWX1OLmawxUlufe4rKqChW3/tTA5V+sdWK5oiKE+FNtrYTxrYk2nO4GmTOGh4d/AMD2TikA/JZl/UJCnD0KBAKzMXpAj21E1GpZlu3uMyKydexwiceD2X6njo9guzvYX45i1fbcqbyZCLgLRVXVOyH5YB8j6MVdNzbgwrMrkcs7XxMBF51TiT/fEIJWJ33uXtDr9a5Emp/JXADkiO7u7p1EdLmkcOcEg8GlkmLtSlVV9TYAMuYZCCHExZKW0Rxh5+KD/eWgv/J+AAAgAElEQVRQc/nOl2FUIhzsL7MVY+zgr7yi6/qlAE6QGbN5eiH+dlM95s7K3rH+iZo/uwh/u6kBM6cVyA59nK7raT2gjQuAHBKJRO4EsFpCKFIU5deQvETFMIyvwuZY+y7ukLijm60CoKVcxtlFbCLm2f/MZyOP9kHRNG0mgB/KjLlwfjH+dH0I1ZWurmRzRW21B3++IYQj5knf8fP7hmHY6pGcCC4AcosA8BXI2et8jq7rl0iIAwAIBAJThRA/khQu6vF4pCx/rKurC8Bml+i8sgoZqbAJmF9u+zOv0HW9XkYuWUAlot8BkPaavnxpKW7/uYHS4vx9hPhLVPzuFyEsX+rf/xePnyqEuDVdq7Hy97uXo0zTfA3AzZLC/XDsAWkXqap6CwAp02iFEF+WdaCG1+u1tQ9BicfDm/+4YFpxKYpUe5PNhBCzJKWT0XRd/yJs9nLtavnSUlx/lQafN286UPbK5yVcf1VQdhHQ3NPTI2We1P5wAZCDPB7PdwF0SghV4fF47K6vh67rFwI4TkI+EELcG41G/yYjFgBYlnWAnesbCouh8Ph/2ilEqC8sthdDUWQcqZ3RxpY7Xi0r3hHzivD/vqc5vUteVlFVwi+/H8TiQ+39PO7mylAoNE1mwD3hAiAHbd26tUcI8R1J4c4zDGPSbw9TpkzRAPxcUi7dyWRS1uZBAAAistUDECriU//cUl9k74YrhMj5AkBV1WsBVMqI1Ty9EL/9ic5v/nvg9RBuvFqXOTGwIJVK2X752h8uAHJUNBq9HcArEkLR2B4Dk/pZSSQSv4GkGxCASzs77R8KvxtbBUCDzbdQNnkNNgsAAFNk5JGpgsFgM4DPyohlBL343c91+Etyb42/LKUlCn73c0PaEkEiOkvTtCVSgu0FFwC5y1IU5csALAmxWjRNu2iiFxmGcRaAMyS0DwCPm6b5e0mx/o8QwtZDwO5bKJs8u0MAAHJ672ZFUX4MCbttelTg+qu0vJztP1G11R786vuatM2CiOgnUgLtBRcAOWxsh7zfy4hFRD8xDKN6vF8fCoWqhBC/ltE2gP5UKnUxYPck2P9ERLYWlNf6pK8FZuNUV2D7s8/ZAiAUCi0A8BEZsS67uDav1vnb1TKnCN+4aNy3yv1Zouv6MlnBdscFQI5LpVJXAuiVEKrasqwfj/eLLcu6DoCUrS2FEN/p6OjYLCPWHtiawi9hRzo2SRI+e2l36UxjWdaVkLDPwbGLSnDBx2WN4OWPi86pwlJ5ZwdcJSvQ7rgAyHEdHR3bAXxfRiwiukjX9fn7+zpd10+ApLFHAC9Go1FZPQl7YrMA4DFRtxTbP3wpJ8dvxjb9Oc1unIoyFT+7IpjT2/s6hQj4xZVBWacIHunU5kBcAOQB0zR/C+ANCaFUADdiH28WgUCgBKP7EMi4bQxblnUh5Mxj2BsuALKUhB6AnBy/IaJLIeHe/q2La3LyYJ90qapQcennpXUySdn4bHdcAOSHpBDiy5Azhr7QMIy9vt17PJ6fAGiU0A4AXNPe3v62pFh7w0MAWarYY/vhlHMFQENDQyWAT9iNM6+5EGetsHfeAgPOPqUcBx9kf/6EEOJ0TdOkr1rhAiBPRKPR5wD8WUYsIcRPp06d+h/H3xmGsVAIIWud/puVlZU/lRSLsT0hXddPCwaDsxobG3NillsikfgMAFubU6gq4epvBKAo3Pdvl6IQrv5GnYyNkxQiukBGTrvi15c8oqrqt1Kp1GkA7O5bGRgeHv4hgK9/+B+mTZtWMDAwcBvkFJUpRVE+t2HDhhEJsfYnDmDSJ8sMpJIo83glpsPGayBp+8gLBcADiqJgZGRE6LoeIaIPhBAfCCE++PDfvV7vB7K2nnYaEU14ue7uPnpimRMn3eWt2TMKcdrxftz32E67oc7H6K6OMs56AZBHp2GxUbquXwY5O/MlFUVpCYfDb4zFvRrA9yTEBYD/Nk3zMkmx9knX9a0AJn0ozN3zFyJYkBMvj1knOjSIc157MV3N9QBo/fCPEKKViFpTqVRrR0dHG5ydpzIuuq7PA/CqnRiqSnj0D1PQVJ+Ws2jyxgdbR3DSZ9tg2f8pWSbxFFTuAcg3pmn+0jCMzwghZtsM5bEs6zcAjgqFQrMty7pcRn4ANqdSqR9IijUecTsXD6SSsvJgEzRgSXsRGo9KAC1jf0BjU+NVVYWu6yNEFP6wKPjwn5Zltaqq+nY4HB5MU462x/5XHF36/9m78/ioqrt/4J/vnUnINmEnmTMTDIsigqIGd3EFwbWL7aN9tNbaWpc+dXvUqq0KamvVarWb1q1P61Jt61ZtZXHXKi4oqyhCCMnccycEAmSyZ+ae3x8J/SGChJzvnTvLeb9evF6V5n7uYSYz93vPPYu5+Htg3OhCzDyqDC++pvV1AwBnADAFgDFgSaXU5QAWMGQdGQ6Hz1JKXQKA41tDEdH3Gxsb2xiy+oWIWpUa+NjI9lRaL0LGNtr0HwFwKVRKjQUwduvvklIKRATXdZORSKR++8cKgUBgjeu6q6WU7Yzt+KbOwUTARWfn7NIIvvvhOcMx9/VWaHzdAMDXampqLl60aFEPR5tMAZCHpJQvRSKRp5RSp+tmEdHDSimuh+AP2bb9ClNWv7iu20YaE52bursYW2Psjix57YNbiwMimgFga2EAABBCOADWAPhPcWBZ1hrXdddIKTf09yTRaHRf13WrdRo67eBS7DXW3P17Ze9xg3Dk1FK8+b7W/c3weDx+JIBXOdpkCoA81dcLMAua0+AAcF38nWAweDVTVr8RUaPO8Q0dnDdwxu6o70hbR5GXwn1/jtzae7BNcdBJRFIp9TGAFduNO1iHbQaDua57sm5DTp9lpv157WuzQroFAJRSs2AKAEOHlLIhEon8Qil1s99t6XOxHyOtlVKf6fQA1HeaAsAvDZ3perTum6KtvQcATtlu3EEXegckbu050FovvqzUwvFHlGk32PhyM44sQ6g0gETbwB9fEdFJAFjGXJl1APLYkCFDbgewyu92AHhSSvmsHye2LGuNzvENHTl/EcpYOdIDMFCDAEwEcIpS6lIA++iEnXxcCEWDzKQwrxUXWZh5lF6nq1Jq8siRI1n2WTEFQB5bsWJFNxH9r8/N2JhMJi/16+RKqc90jq/vaIerOarH2H2uUojlfg9A2nxlhu7SIEZ/fXXmF9ZQ223BYPBwhqaYAiDf2bb9AoAX/Do/EV2xfv16refwOpLJ5Gqd49tTSdS25/WdqC8+a2tFh5mBwaKsxMKBk7UWDzR2w9T9ilBWon3pPYKjLaYAMBAIBC4D0OnDqefZtv1nH877H33FR0In48OWrFgkLqd81MKxw7UBAAdNKUZQf6lao5+CAULNfnoFFxEdzNEWUwAYaGhoWKOU+mWaT9uWSqUuTvM5d4iItFZP+3CLKQDSzbzmfA6vYdu33uinww7Q3ol6XzCs5GsKAAMAEAgEfg6gLo2nvKaxsbE2jefbKdd139Q5fknLFqTMOIC0SSmFZYktfjcjZxx2oOn+TzeG13ywEGLAS5hvZQoAAwAQi8U6lFKe7Dm9A29LKX+fpnPtEhFpFQDtqaS5IKXR4pbNZglmJqHSAPYaYxb/SbeJ4wehtFjv8quU0pr5AZgCwNiG4zhPAZjr8Wm6XNc9HxmwecpWPT09bwPQuqLMb4oztcbYFfNa8xkzusBs++sDyyJUa+65YFnWGO126AYYuUUpdQUAz7bhJaJb4vH4x17lD0RTU1MrgCU6Ga81N6GLYasv48t1uim80dzvFXJ35mMiuge9s19WAsiKNYW9MCZq7v79MrZKbxFVpZR2AWBWAjQ+x3GclUKIewB4sR3vksrKytts2/YgWo9S6nUiqhno8W3JJN5qbsLxIyo4m2Vs582NGzi6///Ptu07tvlvSwgRsSxrnOu644honFJqHICtf4bonjBTjRltCgC/MLz2e+gGmALA+ILu7u6bCwsLzwIgGGOTSqnvc+1ixY2IngFwhU7G3Ka4KQA8Npeh+5+Intvur1wpZQOABgCvbf/zQogRX1IchLUb5CPdu1Bj4Mbqb7s8QjfAFADGF2zYsCEhhLgKwGOMsb9yHOcDxjxWUsq3hRA2gMhAM97f3Iw17W0YV2KmVXlhdVsrFm1p1o1Zadv2bi1/3bcr3wYA727//wkhSr6kONgDGf4dWzkyo5uX08KjtF97UwAY3iCiFap3ezKOEUJdnZ2dtzDkeMklor8ppS4baIAC8GisDjfuNYmxWcZWf47VgWGy5fZ3/1qklO0AlvX9+ZyampqC9evXj04mk+O3FgdEtG2h4Pv8u7KSgN9NyFsMqwEO1w0wBYCxI0Gl1IPgufgDwKDi4uLvAfgVU55X/gpgwAUAALze3ISGznZUFWkv9GFsY11HG97cpD34D0T0BENz+qXvcdeavj9fUFVVJZLJ5LjtexCIaBwYvtz7o6TEzADwS4l+AaD9JWMKAOMLhBCXA5jKmamUmj1y5Mi/NDVl7hwu27YXCiHqAYweaEZKKTwaW4drx09kbJnxqF2vvekSEb1v27bWbA9ODQ0NEoAE8IV1KKqrq4d0dXWNtyxrrOu647frOYiAqThnuAs1BojhtR+kG2AKAONzotHoeNd153gQXR4MBm8D8B0PsrkoAP8H4AadkAUbGnF6OIq9Ss0OaxxWtrbgpQ36+0W5rvsgQ3PSoq6ubjOAD/r+fE51dXVRZ2fnWMuyxgF4FhrTuUtNAeAbhtdeuwAw776xLXJd9z549GySiL4dDoeP8iKbSyqV+h00N0ZKKYW7aleZbYIZuErhnrWfcbyWbV1dXWnr/vdSXV1dZzwe/1hK+TwAsyVi/tL+UJgCwPiPcDh8PoDjPTwFEdHdADJ25FFjY+N6ANoXipWtLXhhvcPQovz2/HoHK1tbtHOI6LHm5mb9oMzTqnNwW7tZvMovDK+99oJtpgAwAADRaDRCRLen4VQHCCEuSMN5BqyvSNF2f/0abO7JyGUPssKmnm48UL/D8XO7K0VEd+z6x7JSm87BraYA8A3Da6+9gqUpAAwAgOu6vwcwOE2nu1kIoT2H1St9A8Ve0c1JJJO4dfVKjqlrecdVCreu/gSJJMumP0/GYrHVHEEZSKsAaG83v51+adcvALTee8AUAAYAIcQZAE5L4ymHAfh5Gs83ELdxhCzcvBFPynqOqLzyuKzHu5s3ckSpVCp1K0dQhtLsATBDCPySaNMuALRXxTIFQJ6LRCLDAfzah1N/r7Ky8iAfztsvUsr5ABZwZN1fX4vlZrvgflvashkPN6xlySKiZxobG5ezhGUmrTEA8SazrbJfGF577YUxTAFg/ArAKB/Oa1mW9Rtk8O8gEV0FhlHWKaUwZ9UKbOzO203n+m1jTzfmfPYxUjwzKHqUUtdxBGWwBp2DaxvMGBW/1DZoj+Fr0g3I2C9fw3uVlZUnKqW+7WMTDhFCnOvj+b9U31iAP3Fkre/uwpUrl6BVfye7nNWWTOLqlUuwgalQUkr9Rkr5KUtY5qrVOXhtvWc7fxu7UKv/2q/TDTAFQJ6qqKgotSzrd363A8DtfY8hMlIgELgeDINtAKC2vQ0/+WQZul0z8np7SaVw/arlWN2m1aO9reZAIPAzrrAMpvWshOEu1Bgg3QKAiLSfk5kCIE8FAoHbAIzxux0AhiulZvvdiJ1paGiQRMQ2iGxxy2bcwtfFnRNSSmHOZyuwaMsmtkwi+kksFtMeJJXplFJa8yTX1nfDdc3vYrq5rsK6mN7jF9d163TbYQqAPBSJRA4DcJHf7djGRZFIZIrfjdgZ27ZvI6L3ufJeb27CjatWoMv0BKBHubj5s4/xxkbtx5nb+rdt2w9wBmYq3bvA1nYXn9aaXoB0+/izLrR16H3+LcvSHtxqCoA8U11dXaSUehg8730SQB1DTkAp9Rvw7T7ILZlKpc6F5hLB23qzuQk/XrkEbTzz3LNSWyqFK1cuwasb13PGtqZSqXOQJ0vkSiltAFpTTN75sJ2pNUZ/LfyoQzdis23btm6IKQDyTE9Pz/UA9maKu4uIzmPKmhYOh/+bKYtdPB7/GJqbBG3vo5bNuOTjj/JydkBzTzd+tHwRFm/ZzJpLRFc1NjZqDYzLMi6A93QC3l5kCoB0e+cj7dd8GcxeAMbuiEQi+yulrmKK+8yyrNm2bb8K4EmOQCK6Y8SIERm7hZ6U8i4Ab3Nmrm5rxYXLFmFZHq0TsLRlM85f+gHWtLOMrdzWPNu2/8AdmgXe0Tl40bJOJFNmHEC6JFPAB0u0ewC0ir6tTAGQP4JKqQcBFDBkKdd1z4/FYh0AQERXQnNBkj7hwsJC1rtsZinXdc8CwwIc21rf3YVLV3yEv8j6nF42WAF41F6Hyz5ezDbVbxv1AM4Gw11RtnFdd6HO8Ym2FBYtY3u6ZezCe4vbtZ//K6X+zdEWUwDkCSHEFQBqOLKUUvfH4/HXt/63bdsxAFxTri4Nh8MTmbLYxePxOsuyvgmAdQWVlFK4b90aXLNySU5uILSppxs/XrkUD9TXejEDolMpdbqUkrUwyxbBYPBdaBY+z87LxY0SM9Nz87Vfa+W6rikAjP6JRqN7ApjNFBcrLi7+8fZ/OXTo0LsArGLILyAiP5Ym7rdYLPYagMu8yF64uRlnL16If8RtuDkwVdBVCs81Snx78btca/vvyA8dx/nAq/BM1zfd8WOdjLmvt6KzK/t/3zJdR6eLeW9od5Yu69u2XJspAHIfKaUeAFDMlHdxbW3tFx5Yr1ixolspdSnTOaZHIpFvMGV5Qkr5eyK634vsRDKJO9euwkXLF+HT1oQXp0iLla0tuGj5h7ir9lOuXf125NdSyoe9Cs8iz+scnGhLYcFbbIswGTsx/81Wjm2A53K0BTAFQM6LRCIXKKWOZop7Qkq50y8ax3HmAniO40RKqTuFECUcWV4ZMmTIj8CwbfDOfNKawEXLF+Hnq1eiviN7Rmqv62jDz1evxMXLP8QnrZ52LT8hpbzcyxNkC8uyntXNeHqueQzgtWcYXmPLsl5kaAqAzJ13bTCoqqoSqVRqBYAhDHEbU6nUPrvqehJCjAawEoD2xVspdYvjONfr5nhJCFGilPonER3j5XksIhwyZBjOjVZj77JyL081YLXtbXhC1uOlDY3pWOnw5ZKSkpNXr16df3Mod4yEEOsAVA04gIAXHtoDE8YNYmyWsdUna7pw6vfWQfOjsUFKGUbvGizaAhwhRmYqKyt7HMB+HFlKqQvi8fgupxslEoktoVCoEMAxuuckokMGDx78REtLS8Yu6ZpIJHqKioqeDgQCxwKIenUeBSDW2YF/rnewvLUFFhEiRSUIkr81fKebwqsbmvD7dWtw37rVWN3emo5h+AtTqdRJDQ0N2nOpckkoFBoH4GCdjC0JFycek7EzcbPa7LvXY3Wd9qqLjyUSCZZeVsD0AOQsIcS3ADzOkaWU+pfjOCf39+ej0Wix67orwLPXwD+llKcw5Hiqurp6SHd390tgmmnRH6XBII4aNhIzR1Ziv9BgBNJUDKSUwuKWzZjfFMcbzRvQnt4dDt/q7Ow8ubm52fRXbycSiRyvlHpJJyMQIMz90x4YU1XI1SwDwOp13Tjp3Drorv5NRNNt236Zp1WmAMhJQogR6B0VPJIhLgFgkpRyt/YdF0J8BYD2c8k+p33Z2INMEY1Ghyml5iqlDkr3uYsDAUwJDcaBQ4bhgPIhGF9SBoupIHCVwur2Vny4ZTM+atmEJS2b0ZHyZaXd+QC+JqXMngER6WUJIVZDs/A+fVY5bru2kqlJBgBc+bM4ntWf/tcgpRwDxmWuTQGQg4QQjwI4iynuh1LK3w+wHS8CmMXQhjWFhYWT6+rqMn61kr6Bi48B+Kqf7SgOBFBVVIKq4hKMLi5BVVEJRg0ahJJAAMVWAKFgAYoDvU8AO1IpJJI96HBTaEum0NTdhYbOdtR3tKGhowMNne1+XfC39WxJScmZ5pn/lxNC/BjAL3QyAgHC0/dVYdJeRUytym9LV3biGxfXa9/9A5gjpZyt36L/zxQAOSYajZ7kuu4/meLelFIeg971xndbJBLZSym1DIB2fyIR3WDb9s26OWlihcPhXxKRGaHOgIjutm37KjANfMpllZWVIy3LagCgNZJvysQi/O33VbAsc4nQ4boKp1/UgGWfaN+7pACMlVLWMzTrP8wgwBwybNiw8kAg8C8AgxniupRSp7S2tg54n9ZEIrExFAqVAjiSoT2HlpaWPtba2sq7e4w3VGtr67yysjJJRCfCTLcdqC4AF0gpf4EBFqH5prW1tb28vHwCNAf/Nm5IomJEEJMnmF4AHY8/twVPvqC/z4dS6mnHcR5kaNLnmC+mHFJUVHQrNKYBbUspNcdxnJW6OT09PT8DEGNoUnEgELiTISdtHMd5AMBJAOJ+tyULOUR0jFnkZ/cppe7lyLnj/o1o3uz7o5+stXFTEnc+yLM6tWVZnnz3mQIgR4TD4WkALmSK+8hxnDs4gpqamloBXMmRpZT6uhBiBkdWukgpF6RSqSkAuB7L5IMXUqnU/rZta21yk6+klG8D0B4pviWRwtW3xnXnrecl11W46tZGtCRYOq7e9OqzYAqAHDB+/PhBRPQH8LyfSaXU+WB83iqlfBJ8K+b9bvz48Vm1UkljY+N6KeWpSqkLAJgR7DvXoZS6TEp5Gtda53mMZVfN1xa24cEnN3FE5ZX7HmvGG+/ybHdNRHNYgnbAFAA5oL29fTYArh30fuk4ziKmrP9wXfcS8Oygt2d7e/slDDnpphzHud+yrEMBsL++OWAhgAMcx7kHebilLzcp5dtKqX9xZN15fxM+XG7WXOqv95d24Nd/5Fm7jIhe55z3/4V8r4KN9BBCHADgPQBBhrhVlmXtH4vFPPm0h8Phu5hGxicCgcDeDQ0NkiHLD1Y4HP4+Ef0MwAi/G+OzJgDX9T3rNwP9GIXD4Roieh8M3/PhUUE8fd9ojBzO8TWTu9ZvTOJrP6hH4waWDlQFYJqUkmXr3x0xPQDZLQjgIfBc/F2l1PleXfwBoKurazZ4BsSFUqkUyxgFn7h9vQETAPwejAt7ZJEUgN8Hg8EJUsoHYS7+7Pp68v7OkrU+ifOutpFoy8df1f5pbXPx3atsros/APzNy4s/YHoAdoQqKirGBIPBiUqpsUqpaiKqIqJRAIYrpYYDKELv3PbSvmNa0PuF1klEG5VSjei90MWVUp9ZlvWZUuqz3V1Nb1eEENcAuJUp7l4p5cVMWTsViUTOUUr9iSFKKaWOcRznDYYsX0Uikf2VUjcDOBm5/5l0lVJPu647p7Gxcbnfjcl1kUgkqpT6GADLAv+HHlCMh++IorAg139Nd09Xt8J5V9l4dzHbEJ8OpdREx3HWcQXuSN6/i1VVVcJ13SMAHNG3hOu+YPqw7EAzgPeVUh8Q0budnZ2vD3RN875FdpagtxjR1dDZ2Tk5TeurkxDiTQBHMGQtk1IeiBxZICYSiUxRSl0D4JvIvTU6FBE9TURzYrHYMr8bk0+EEJcAuIcrb9bRZbjnxjACgby/fAAAUimFS2bHMe+NBFsmEV1v2/YtbIE7O4/XJ8g0kyZNKty0adPRSqkTiegkABN8bE4SwPsAXnJd9/l4PP4B+jcAyhJCvAZgGkcjiOgU27bTNk2tb9zC++C5yF0qpfw1Q07GiEaje7qu+2MAZ0NzRbcMkFBKPea67u/MHb9vApFI5B3OPSpmHR3CXddX5n1PQFe3whU3s1/8lw8ZMqRmxYoV2lsH7vJcXp8gQwTD4fB0IjoDvWu0D/G7QTuxTin1VCAQeDIWi723sx+KRCIXKaUGtD7/DjwupeTaN6DfhBC/B3ARQ9TmVCo1IRenjUWj0WGu635LKXUOEWlt8+qDZUR0b1dX16MbNmzg+3Y0BoR5sDCA3scB9/5MIFSaa51V/dPa5uKC6yRntz8ApIjoyHStgZHTBUBFRcUYy7K+R0TfBSD8bs9uWqaUesiyrEdt29649S+FEFUAlgMoZzhHE4B9pJQ8y1Xthr6L26fgGQX/RynleQw5GSscDk8kou+gd5OnqN/t2YlPlFJPWZb1d9u2F/vdGOPzhBA3ApjNmTlx/CA8fHsk72YHNDWncO6VMXy6hndvqnTveZKTBUA4HJ5GRP8L4FRk/0yHDiJ6RCl1l5TyUyHEC+gdLMbhLCnl40xZuy0cDp9PRPczRCkiOjxPVo6jaDQ6WSk1Qyk1A8BRAEp8aksHgIVE9GoymXzGdPFnPEsIsQDAcZyh4VFB3H1DGDX7FnPGZqz3l3bgsjkO52j/rRZIKWchjTNicqoAiEQiJ7uue0MWdpf2h4veLrxDmfJekFKeypQ1UJYQ4l0AUxmyFkkpD0aeTScbP378oI6OjsOVUtMATEbvINbxYOzq7eMCWAtghVLqXSJ6fejQoe+n4zmlwWfkyJGVBQUFHwGo5MwNBghXnD8c5585DJRTV5X/T6neFf7ueXgjkin2taqcZDJ5wPr16xu5g79MTrxVkUjkWKXUzwAc5ndbskQLgMnc0xIHIhqNHuK67ttg6KlRSl3oOM4fGJqV1caPHz+ovb19H6XUJCJ6RCdLKXU2Ea20LGull2tEGOkTiUSOV0rNhwe9o0cfWoo7rq3EsCG5NS5g46Ykrrq1kW153+2kiGiGbduvehH+ZbK6AKiqqhKpVOpOAGf63ZZsQkQX2bZ9n9/t2EoI8RAAjmf4Gy3L2isWi/Gsw5kDhBBatypSyqz+jjC+qKKiojQQCHwEYE8v8geHArjyB8NxximDYVnZ/evjugpPPN+CXz7QxLWxzxeka8rfjmTr8/FgOBy+NJVKrYS5+O+WvrWlM+ouOZVKXQtgM0PUcNd1ffkgGUY2mDRpUmEgEPg7PLr4A727CF5/53p87YIGLFnZ6dVpPLdiVSf+64cNuOEutl39voCIHrFt+2eehPfn/H6deKCEEIejd/nUKX63JQt1EGUBi54AACAASURBVNH+tm2v8rsh2xNC/AgAx3z+FICDpZQfMmRlPdMDYGzVtwbKUwBOSdc5AwHCadNDuPDsYRg3ujBdp9Wyel03/vBYM55b0ALX2xFF/5BSng4fFzLLpg93QAhxPYCfIvdWSUuXH0spb/e7ETsREEIsAk9h946U8giYXeVMAWBsFRBCPAqfekwtCzj6kFJccu5w7Ls3x+Kl/FbVduOBJ5rxj5cSSPEP8tvewlQqNb2xsdGTQQX9lRUf7qqqKpFMJh8jomP8bksW+1BKeQgyeNncvumbr4Ph95KIzrVtm2PPgaxmCgADvbtP/pGIzvG7IUTAkVNL8bVZIZwwLYSiQf7+enV0upj/ZiuemduCfy9qh0rDLQMRLQ8EAkfV19dv8v5su2iL3w3YFSHECQAeATDK77ZksSQRHZQNi7P03aVwrEzYWFRUNKG2tnYLQ1bWMgVA3qNwOPx7IrrQ74ZsL1QawMyjSvHVmYMxdb8iBNO0t0AyBby3uB3Pzm/B/Dda0dqevpnDRLTcsqyZmbKVeSZ/uEkIMQfAT5C9gxUzAhHdatv2dX63oz/6ZnZ8AoYNmYjobtu2L2doVtYyBUB+E0L8EsD/+t2OXSkttjB1SjEOP7AEhx5QjInjB7HNIHBdhZWru/DOhx1456N2fLCkA20dviwX8lYwGDwtE+78t8rID3dNTU1BPB5/SCn1bb/bkguI6JHKysrvLVq0qMfvtvSHEOJKAHcwRCVTqdQB+bxCnSkA8lffDdQNfrdjIEqLLVRXFWJsVQHGjC7E2KpChEcFUVpioaSYMDgUQElx731he4eLLYkU2jsUWttcxJuSqG3oRm19N9Y29KCuoduvC/62/mFZ1pmZtpZGxn24hRAlSqm/9e3U55tQaQDVVQUYW1WIsXsUYky0AOFRBSgttlBUBAwJBVFc3PvydXQobE4k0dGh0N6p4KzvQW1DD2rXdWNtrBt1DT1ItKX8/OcAwILu7u7Ts2FjlpqamgLHcZYAmKibpZR6zXGcYxmalZVMAZCfhBBXA7jN73YYAICHpJQXIgPHX2XUh7tvg5gX4MOKfqHSAKbuV4TDa0px2IHF2GtMIWsX1Ke13Xjnw3a8vagdHyztSOtzp218SEQnbLu5UKYSQkwHsIAp7ltSyieYsrKKKQDyjxDifwD8xu92GEgR0ey+ef4ZOSMpYz7c0Wg04rruPACT0nXOslILJx0bwldPCOHAycVpHISisGhZJ56d14K5r7emu3dgCYDpfuwAuLvC4fDfiOgbDFGxnp6eiU1NTa0MWVnFFAD5RQjxXQAPIYO+2/OUQ0Rn+bG87+7IiF+Svjv/N5CGiz8RMO3gUnx9ZjmmH1nm+zSUzi6FBW+14pl5LXjzvba0TEMBsMx13ePj8XhTWs42QEKI0QBWgme3u9uklNcw5GQVUwDkDyHEmQAeBf86Kf8G0ApgJnNurnopmUyene6NfQbC9w93NBotdl13PoAjvTzP1oUoLv3ucEyekKkLUXThgSc24fmXEl7sNrW9D7q7u4/L9DEBkUjkp0opjv2xuwHsJ6X8lCEra5gCID8IIU4D8HcABczRi4PB4HH19fWb+7bvvhNAGfM5ckUKwC1Sypv7/nfG8/XDXVNTUyClfNbLAX+BAOHrM8txwVnDUB3l/mx4Y21DN+57tBnPLvB8RaoFQ4cOPSWTt3Tt29luOXq3uNU1r2+/7bxhCoDc17dWyj8ADGKOXkZEx247ZqiqqmpcKpX6E4AjmM+V1YhoOYDzbdte6HdbdoefH26KRCJ/8nKq3wGTinDTFRWYOJ77c5EeK1Z14oa71nu6oUbfZhS+rxD2ZSKRyMlKqRc4spRSX3cc5xmOrGxgCoDcFg6HjyKiF8HzmGxbq5LJ5FE76cYOCCEuAHATgOHM5802HUR065AhQ27L5BupnfHtwy2EuAnA9V5kDykP4OoLRuAbJ5XnxHaUf31hC+64fyO2JDzrVbpaSskx794zQojnwbOJSZ1lWftk2nxcr5gCIHdFo9GDXdddAKCcOboOwFFSyoYv+6HRo0cPTSaTswFcDCDI3IZs8Fel1NWO46zzuyED5cuHu6/L6kV4sMLfcYeX4rZrKjF0cG7tF9S8OYWrb43jtYWe7B2Rcl331Hg8/qIX4Rz6uh6XA+AYwHGTlPJGhpyMZwqA3BSJRKYopV4BMIw52k6lUkc1NjbW9veAysrKfSzLuh3AycxtyUhE9LpS6idSyn/73RZdaf9w9y31+hGY1/YPBoCrLhiJ8/5rKChHv7KUAh58chPuvH+DF4MEmwHsv6uq30/hcPhmIvopQ1RnKpWatDtfctnKFAC5RwixN4DXwb8/ynoAR0spPxnIwUKIA5RS1xHR15Gby7e/SURzbNt+2e+GcEn3mxRIJpOPgfkXN1JZgCd+OxrfOyN3L/5A7xTG888cisd/HUV4FHuP2zAAjyGDu/KI6FYAHN1tRYFA4FcMOYaRVhUVFWMBvAT+i/8mIjphoBd/AJBSfuQ4zjfRO537TwC62FrnH5eIniKiw6SUR+XSxR9Icw+AF8/9J+1VhIdvFxg+NGOvW55o2pjEeVfbWLma/TOW0d3j4XD4dCL6O0eW67onZfJjDw6mByB3RCKRqFLqDQBjmKMTlmVNj8Vi73GGRiKR4a7rnk1E5wHYjzM7DRoAPAzgYSllvd+N8UraPtxCiMMBvAnGXofDDizBvT8TKCvJxd6mXUu0pXDRTyQWfsQ6ni0J4BAp5YecoZyEEPMBzGCI+qykpGTf1av5q6hMYQqA3DBq1KiKYDD4OoAJzNHtSqkTHcd5gzn3c8Lh8FQiOhfAVwBEvTyXho0AniaiJ23bfg1ZMpdfR7o+3EEhxAcApnAFzjq6DHddH0ZhQX5/P3X3KFxxcxxzX2ddz2dJOBw+KFN3D+x7BroEQKFullLqOsdxbtVvVWYyBUD2i0Qiw5VSrwLYlzm6C8BpUsr5zLlfhoQQ+xPRSUqpUwAcDH/HCywFMJeI5tq2/SYycMMeL6Xlwx0Ohy8jIrZnrrOOLsM9N4YRSNPa/ZkulVK4dA5vEUBEP+3bxCIjCSFuB3AVQ1QbgImZPPhRhykAstvYsWMHd3Z2vgRgKnN0D4BvSimfY87dLdFodFgymTzEsqyD0FsMHAT+8Q1bbQawTCn1PhG9mUql3m5sbFzv0bmygucf7r5R/yvBNFf1sANL8NDtkby/899ed4/Cd6+M4d3FbI8D2gHsnakXxhEjRoQKCws/ASAY4v4qpTyDISfjmAIge1VUVJQGAoG54F8mPQXg7EzdIVMIMdqyrLFKqWqlVDWAaiKqVkqVARiC3hUPSwGE0DtoOYHeO/d29HbjbwTQCKCBiNa6rltLRCtz+Vn+QHn+4RZCPAGA5ct1wrhBeOLXVQiV5ecz/11JtKVw9mU2VqxiWznwCSnlt7jCuIXD4bOI6FGOLKXULMdx5nFkZRJTAGSnSZMmFW7evPlZpdSJzNFKKXWh4zj3M+caWcjTK2kkEjkWTBf/SGUB/nxnxFz8v0SoNIAHfyE4pwie0Td4MyM5jvM4AJbBS0R0V01NTXZsFmHktJqamoJNmzY95cHFHwAuMRd/YytPr6ZKqZ9z5AQDhF9dX5l3U/0GYuTwIH57k0CQZyFEAvALliRvKNd1LwbPwJ194vH4jxhyDENHwHGcP4Nn2evtXSul/K0HuUaW8qwAiEQiJwM4lCPrqgtG4MDJxRxReWHKxCJc/v0RXHHT+npyMlI8Hl8B4F6OLKXU7KqqKo4xBYYxECSEuA/AmR5k3ySlzORi3vCBZwWA67o3cOQcd3gpzvuvoRxReeUH3xqGow8tZclSSs1hCfJIYWHhDehdxlRXyHVd8yVp+IGEEL8D8H3uYKXUXZm8uJfhH08KgHA4PI2IDtbNGVIewG3XVOb08r5eIQLuuLYSg0MszwKmRaPRQziCvFBXV7cZwDUcWUqps4UQZq9zI636prVexJ2rlLrPcZwruXON3OBJAUBELL9wV18wIud29UunYUMCuPIHPI8CXNe9nCXII1LK/wOwkCGK0PtIwQw4MdJCCDEHAPtFmogecRznhwDYdw4zcgN7AVBRUTEGDANYDphUhG+cxL3Ndf4545Ry7Lc3xw66OF0IMZojyCNKKfU/AFyGrH2FEBcw5BjGlxJCXAWA5XHptpRSf7dt+7vg+TwYOYq9ALAs63u6uYEAYc7lFbAs0/evy7IIN10ximPVxCCA7zI0yTOO4ywiogeZ4m6urKwcyZRlGF8ghLgYwO0eRM8vLS09G3mwlr2hh7sACBKR9kXi6zPLsc+egzjaYwCYPKEIp00PcUSdi8zf5/s6AM0MOUMty2KZxmoY24tEIucC8GJK3suFhYVfyeUNrgw+rF/mlZWVM6C5NGsgQPjBf5tR/9wuPHsYLP13uzoSiRyj3xrv2La9EXxbTp+XyYMfjewUDoe/rpR6APwrsb7T09Pz1bq6OralQI3cxloAWJalverfSceUYUyV9iZvxnbGjS7EzKPKtHOUUv/N0BxPSSnvI6L3GaIs13V/h8zv9TCyRDgcnkVEj4N/kOniYDB4clNTUytzrpHD2L7YJk2aVAjgNJ0MIuCis4cztcjY3g/PGc4xpfIryPwR8i6AS8Ez+rlGCJHRYx+M7CCEmE5Ez6B3Mxs2RLSciKbX19dv4sw1ch9bAbBp06ajAWj13U87uBR7jTV3/17Ze9wgHDlVe3GgEZWVlRk/T9627XcA/Jkp7tbRo0eb51LGgIXD4WkAngPAMiVnG6u6u7tn9D36MozdwlYAcGxccfosM+3Pa1+bpT8Y0LKsUxma4rlkMvljAFsYokYmk8mbGHKMPFRZWXkQEb0AoIQ5ug7A9KampjhzrpEn2AoAIjpJ5/hQaQDHH6H/jNr4cidMC6GsVPttP46jLV5bv359IxFxLWN8USQSmcKUZeSJaDS6r2VZLwLgvruxA4HAdCllA3OukUdYCoC+DVQm6GScdFwZigaZef9eKxpEmKU/GHCKEIJttyEv2bb9GwBLGaICSqnfgX/ktpGjotHonq7rzgfAPbCpyXXdExoaGtYw5xp5hqUAcF1X+5nwV2awzFM3+uGrMwfrRlhKqaM52pIGScuyLmXKOiIcDp/FlGXksIqKirGu674CoJI5ehMRzYjH4x8z5xp5iOsRgFYBUFZime1+02jqfkUoK9F764koa+bHx2Kx1wA8yZFFRL8cO3asdgVl5K5oNBoJBoMLAESZo9sAnGbb9hLmXCNPsRQASqmDdI4/aEoxgvpL1Rr9FAwQavbTLrhqONqSLn0bVHHMka7o7OzkWmjIyDGjRo2qcF33ZaXUWObodqXUSVLKt5hzjTzGUQAQgMk6AYfX8Oxbb/TfYQdoD0iuQRY9D7dtOwbgZ0xxl0aj0X2ZsowcUV1dPSQYDL4IzfFQO9BtWdY3Hcd5gznXyHPaBUDf7n9aI1wPPcB0/6fbYQdqv+aDw+FwJu8O+AVDhw69C8Aqhqig67q/YsgxcsSwYcPKe3p65gM4gDm6B8B/xWKxfzHnGoZ+ARAMBvfROT5UGsAEs/hP2k0cPwilxdrjAPZkak5arFixolspdQlT3PGRSOSbTFlGFquoqCgtKir6p+6j0B1IAThHSvkcc65hAGAoAJRSY3SOHzO6wGz76wPLIlRr7rlAROOZmpM2juPMA/AsR5ZS6s6Kigrz/CqPTZo0qTAYDP4NwJHM0UopdbGU8gnmXMP4D44CoFrn+DFRc/fvl7FVBVrHK6WyrgAAANd1LwfQwRBVZVnWtQw5Rhaqqakp2LRp0985VkHdgUscx7nfg1zD+A+OQYBaz4HHjDYFgF8YXnutrZ/9Eo/H6wDcxpFFRFdGo9GsLIQMLQHHcR4F4MWy2NdIKX/rQa5hfI52AWBZ1kid48eZAsA3Y/W3XR7F0Q4/WJZ1OxHVMkQN6tsy2MgfJIS4D8B/eZB9s5SSpTg1jF3h6AHQWuayYkSAoQnGQIRHae/qm7UFQCwW61BKXcEUd4IQIis2SDK0kRDitwC+zx2slLpLSnkDd65h7AzHGACtAqCsxBQAftFdDRD8a5ynlZTyOSJ6kSOLiO6urq7m3urVyDBCiNsBXMydq5T6g+M4V3LnGsaX4egB0FpRprTEzADwS4l+ATCIox1+IqJLAHTp5iilxvb09FzF0CQjQwkhZgNgv0gT0SOO41wMQHFnG8aX4SgAtB4kM2xNawwQQw9A1t/xxmKx1UR0F0eWUuraysrKao4sI7OEw+HLANzoQfQztm2fB8D1INswvpTvBUCJ5mI0xsCVmh4AAIBS6hYA6xiiigOBwC8ZcowMIoT4HleRuJ35JSUl3wKQ9CDbMHbJXH0NHTlx1yKlbAfwY44spdTplZWVXswLN3wQiUTOAXA/+Pe9eMWyrK+uXr1a+/GTYQwURwHQrXNwe0dOXEOyUlu79mvPsbteRpBSPgngFY4sy7LuGT9+fE70juSzcDj8daXUQ+C/UVrY09PzlVgsxrEYlWEMmO8FQGubKQD80qpfALRxtCNTuK77I/RuvqJrz/b29ksZcgyfhMPhmUT0OADtubLbWRwMBk9qamrKmeLZyF4cBYDWRaCt3Qx89Uu7KQA+Jx6Pf6yU+g1T3PXRaDTClGWkkRBiOhE9C+YxLkS0nIim19fXb+LMNYyB0i4AiKhZ5/jW9pRuE4wBSuj3vuTcXUxXV9ccAHGGqDLXde9gyDHSSAhxJHo3i+Ke4bKqu7t7hm3bG5lzDWPAtAsA13U36BwfbzIDYP3C8Nq3cLQjkzQ3N7copa5mijuzsrLyaKYsw2OVlZUHAfgnAO4dHusATG9qauIoLA2DDUcPQJPO8bUNHI9cjYGobdAavgHwTJ3LOH2bvPybIYosy/oN+J8jG8yi0eh+lmXNBVDOHC0DgcB0KWUDc65haOMYA1Cvc/Daeu2LkDFAtZqvPdNmOplIWZZ1EXjmZ+8rhGBfOtbgE41G93Rddy6AYczRTa7rzmhoaFjDnGsYLDgKAK27QIa7UGOAdAsApVSuFgCIxWLL0Dv/m8PNe+yxR5gpy2AkhBjtuu4CANzvzxal1InxePxj5lzDYMPxCEDrIrC2vhuua2YCpJvrKqyL6T1+yeEeAACAZVnXA9Aa49KnvKen5+cMOQajSCQSJaJXAezBHJ2wLGum4ziLmHMNg5V2AZBMJrUq3NZ2F5/Wml6AdFu5ugttmoswJZPJnC4AYrFYs1LqOqa470QikcOYsgxNFRUVo5RSLymlxjJHt7uue2osFnuXOdcw2GkXAI2NjXXQHA3+zoftus0wdtPbH2ovQiYbGxvXc7QlkzmO8xAAji9zUkr9FoDZ/9pn1dXVQwKBwIsAJjBHd1uW9c14PP46c65heIJjDIACsEwn4O1FpgBIt4Uf6b3mRLSQqSmZzrUs6xLw7HtwYDgc/j5DjjFAw4YNK+/p6ZkP4EDm6CSAM2Kx2L+Ycw3DMyxrXBPR+zrHf7C0A0mzHlDaJFMKi5bq9QAopd5hak7Gi8Vi7wH4I0cWEf1cCDGCI8vYPUKIkuLi4n8opQ5ijnYBfEdK+SxzrmF4imuTC605063tLhYtM/tipMt7izs49gHIlx4AAIDrutcC4FjCdZhS6maGHGM39G3O9KxSinthJgXgB1LKx5lzDcNzLAVAMBjUXjTl2Xk5t6hcxnpuvvZr3WNZVl6NcI7H400AbuDIIqLzhRDcXdDGTtTU1BS0t7f/FcAMD+IvlVI+5EGuYXiOpQBYt26dA2ClTsbc11vR2WWmA3qto9PFvDe0l/BfmI9bmUop7wWwhCEqAOC34N9jHkDv3W4kEtlfCPHfulmRSOSccDg8taKignt53HQJOI7zCIDTPMi+VkrJtXmUYaQd2xKlSqkXiWjiQI9PtKWw4K1WnHp8iKtJxg7Mf7OVo/v/HxxtyUIppdSPiOh16F+8D4tEIt+xbfv/dEImTZpUuHHjxsMsyzpGKTWZiPZtb28fB6bPtlLqT0SEQCCghBB1SqmVRPSuUuq1QYMGvVdXV9fJcR6PkBDiQQBncAcrpW5xHOcX3LmGkU5sdyBCiBkA5utkTDu4FH+8w+yg6qVz/zeGtz7QmwFgWdZesVjsM6YmZZ1IJPKIUupshqjGoqKiCbW1tVt24xgSQuwP4HgA0wFMA1DC0JaB6ATwHoBXiOg527YX+9SOHSEhxG8A/JA7WCn1K8dxruDONYx0YysAampqChzHiUNjPW0i4IWH9sCEcazbcBt9PlnThVO/tw5K70nLx1LKSUxNykqjRo2qCAaDnwIYrJtFRHfbtn35rn4uHA5PJKIzAJwNYJzueT1Sh97eob9JKf+N3gFyvhBC3ArgGg+i/yil/B58/LcZBhe2RUkcx3FDodDeAA7QydmScHHiMeYxgBdm370eq+u0V118KJFIvMzRnmzV1tbWVl5e3gPgBIa4qSUlJc+0tbV9YVGlioqKUUOGDPlBKBT6HRHdAuAY8G9Yw2kIgEMAnBcKhc4IhUKBkSNHfrJp06audDZCCHEjgJ9y5xLRI1LK82Au/kaO4JoGCABQSj2pmzH39VasNRsEsVu9rhvz39Qe/AcAh4TD4RqOoGxWWVn5a2gOfO0T7Nsy+D+9cdFodHw4HL43EAisU0rdBf5Fa9JhbwD3dHZ22pFI5A/RaHS/dJxUCHElgNncuUT0lG3b54FnQSjDyAisy5K2trauC4VC34PGntpKAe3tLmZMK2NsmfHz3zVh5WqWG7ExRHR+KBSqKSsrW9Xa2upwhGYbx3Hc8vLyTwCco5tFRNWhUOiTsrKyovLy8ruVUr8jooPBOEjXR4UAapRSF4ZCof3Ly8s/SSQSjV6cKBKJXATgbjDPrlBK/Wvo0KH/1dTUpLd7lmFkGPZpSOFw+GYi0up+CwQIT99XhUl7FXE1K68tXdmJb1xcD5f/3kUBeEEpNSdfdz4Lh8N/I6JvMER1AsiHX3hFRM8Q0ZxYLLaUKzQSiXxHKfUwmHs1AbxiWdYp+Tjt1ch97AVAZWVltWVZa6D5QZwysQh/+30VLMuTqdJ5w3UVTr+oAcs+8XS2lgLwPIA5UsoPvTxRphFCjAbwMYBsnSfvF5eIHgRwnW3bG3WCIpHIN5VSfwH/Rktv9/T0zGxqamJ5dmYYmYZ9Z7LW1tbNoVDoAPQ+Axywxg1JVIwIYvKEfLgp8s7jz23Bky/sziyzASH07qx2QSgUOrK0tPST1tZW6fVJM0EikdhSXl5OAI7zuy1ZhgDUADi/rKyss7W19QMMYHBdOByeCeCvAAqY27ckGAzOdBzHLFFq5CxPbq+FEEcCeFM3Z3AogAWPVmPYELOD6kBs3JTEjG/XoSWR9nFLedUjMH78+EHt7e3LAYz3uy1Z7F2l1Hcdx+n3wEohxHT0/p6x3iUQ0XKl1LFSyg2cuYaRaTy5siYSifpQKDQLQFQnp6tb4bO6bpw6vRxkngTsFtdV+NHsOFbV+jKjYmuPwA9CodCBoVDo00QiEfejIenQ3NycKi8vrwWgvfRuHosS0XmhUGhTIpH4YFc/3HeT8QL4F0H6rKen57jGxsYvTMs0jFzj2a11aWmpJKKzdHPqYj0oKbZQM7mYo1l5495Hm/HE8553/e/K5x4NlJWVrczVRwOJROKzUChUg95/rzEwBQBODoVChw0ZMuSVlpaWxI5+KBKJ7A9gLjRmG+1Eg+u6x61fvz7GnGsYGcnT+2ohxFsAjtDNCQaAx39dhQNNEdAv7y/twLcviyGZyrj1ShR6V4qbI6X8yO/GcKuoqBgbCARWID9G83stDuB0KeXb2/5lNBrd13XdVwEMZz6fDAQCRzU0NKxhzjWMjOXpw/XS0tI1RHSubo6rgLc+aMepx4dQWsI9yye3rN+YxHevtJFoy8j1Sgi9g0N/EAqFDuibE54zjwba2to2hUKhQQC495zPR2UAzg6FQnYikVgMAEKICUqpVwCMZD5Xk1LqONu2VzHnGkZG87QA6FsYaAKAfbWz2ly8+X4bTptejkGFZkDAjiTaUvjOFTbqYhm/XsnWQuDCXHs0MHjw4IVKqbPQuyyuoScI4Cvl5eWipKTkY8uyXgLAvVvYFqXUCY7jsK1JYBjZwvMr6R577BHu6en5BEzP6w49oBgP3xFFYYEpArbV1a1w3lU23l2st9OfTxSA54hoTobtKLfbJk2aVLhp06YX4fO0wILSUoQiVQhF90B51R4IRapQMnIUgsUlCAwahMJQOYJFvY/Ukp0d6E60INXZiWRnB9qb1iMRq0dLwzok7Hok7Ab0tLX5+c8BgG70rirIKWFZ1oxYLPYuc65hZIW0XEWFEJcAuIcrb9bRZbjnxjACAVMEAEAqpXDJ7DjmvbHDMVPZJKsLgerq6qKurq6niOikdJ+7oLQUIydPQcX+UzFqSg0GV48FWTyPy5TrYsvaNWhcsgiNixdhw/LF6GnPykJzWx2u654Yj8df97shhuGXdF1BA0KIDwDszxU46+gQ7rq+Mu97Arq6Fa64OScu/ttSAJ7tKwSW+N2Y/hBClAB4DsD0dJ2zoKQUVUcdh+rjZ2H4PpNhBdKzdYCbSmLjimVY+/JcxN56NRN6B3ZXl1LqK47jzPO7IYbhp7RdPSORyGFKqbfAuFb3oQcU496fCYRK83OhoNY2FxdcJ7m7/ZMAXgNwPNL4+7ETWVEIjBw5sqywsPAFpZT3g/+IEK45BNUzTkTksGkIFA7y/JRfJtXdBfvtN1D30lw4i97t3c0rsyUBfFNK+azfDTEMv6X1C14IMRvAjZyZE8cPwsO3RzByeC5snNZ/Tc0pnHtlDJ+uYd9qfbaUck44HJ5KRDcCOIX7BAOQsYVAdXV1UXd39wIAR3p5HrICqDrqOOxz5jkYXD3Wy1MN2Ja1a/DxE39Cw5uvQnmw8xSDFIBzpJSP+90Qw8gE6b7DCwghTxCmnAAAF7tJREFUFgA4ljM0PCqIu28Io2bf/Fgn4P2lHbhsjoPGDUnu6LeklMeg94sSAJBphQARPQPgpgwpBEgI8TiAMz07gRVA9YwTsc8Z30aZ0FpYM20SdgNWPvFn1L08D8pN7fqA9FAAzpdSPuR3QwwjU6S9i7dvVsBHACo4c4MBwhXnD8f5Zw7L2WWDlQLue6wZ9zy80YtFfjYppQ5wHGfdjv7PysrKgyzLuhHAydwnHgBPtpTdXeFw+BYi+olX+cMnTsbU/7kSQ8bt6dUpPLVp9af44De/RPOnH/vdFAC4VEr5a78bYRiZxJdLZd8mHvPAv3c3jj60FHdcW5lzGwht3JTEVbc24o13PRlwlVJKndyfQVGmEOgViUTOVUr90YvswvLBmHLeRRhzwslsI/n9olwXtXOfx9I/3ofuhG8b610rpfyFXyc3jEzly1UykUjUhkIhC8Ax3NnrYj346z9bUF5mYdKeg0BZ3h3gugp/+UcLLvqp9HJjn2scx/lzf36wtbVVJhKJx0tLS/9FRALAXl41qh8IwESl1IXl5eX7Dh48+JOWlpZGr09aWVl5NBH9FR58fsQhR+CYX9yDkZP2y/rfXQAgIgzbc2+MnXkKttTXodVuSOv5lVK3OI5zc1pPahhZws9vGBJCPAzgXK9OsN/eRbjpilGYPCE7l2ZfurITN969Hss+6fTyNI9JKc8e6MGVlZUHEdFsP+a+74Aioqf7egSWeXECIcQIAEsBhDlzKRDAlPMuwoSvn4lcfob1yVN/wbI/3gc35f3YACK627btyz0/kWFkKb+/aYJCiGfg4QCzQIBw2vQQLjx7GMaN5l5IzBur13XjD48147kFLfB4MPWCoUOHnrJixQrtroVoNHpwKpW6MdcLASHEswC+wplZWlGJw669CcP3nsQZm7E2fLwM79x6A9qbvNtxl4jut237QvQO/jMMYwf8LgAQjUaLXdedD4+nUVkWcPQhpbjk3OHYd+/M7BFYVduNB55oxj9eSiDl8U5+RPR+d3f3cU1NTa2cuZFIZIpS6icAvgH/f78UgH8CuFFK+aFuWDgcvoCI7tNv1v83bM+9Me3mX6JoyFDO2IzXuakZb/z0f7FpDf/+O0T0qG3b3wGQkXMRDSNT+P0FDQCIRqPDXNd9A4Dnt0BEwJFTS/G1WSGcMC2EokH+vgQdnS7mv9mKZ+a24N+L2tO1jsoKAMdIKTd4dYIM6xFwlVJPBwKBmwbaIyCEmABgEYBSrkaNmlKDI2/8BQpKSrgis0pPWxveuukarF+iXZtt74jttxE2DOOLMqIAAICqqiqRSqXmIw1FwFah0gBmHlWKr84cjKn7FSGYpr0FkingvcXteHZ+C+a/0YrW9rTeqCxxXXdGPB5vSsfJotHoIUqpG5VSJ6bjfLsw0EIgIIRYCGAqV0OiRx6Dw348G1ZBAVdkVnJ7erDwtjloeOtVztglUsqp6F31zzCMnciYAgAARo8ePTSZTD4P4Ih0n7u02MLUKcU4/MASHHpAMSaOHwTL4nl5XFdh5eouvPNhB975qB0fLOlAW4cvvZMfWJY1MxaLNaf7xJlWCAB4KpVK3dTY2Lh8Vz/M3fUfPfIYHH7dTSArt6aqDpRyU3jn5zdyFwFXSSl/yRloGLkmowoA4D+bqjwB4FQ/21FabKG6qhBjqwowZnQhxlYVIjwqiNISCyXFhMGhAEqKe+dot3e42JJIob1DobXNRbwpidqGbtTWd2NtQw/qGrr9uuBv6+WioqLTa2trt/jZiGwrBKqrq4d0d3evAjCS44SjptTg6FvuzPs7/+25PT147SeXo2npR1yRba7rTo7H43VcgYaRazKuAOgTFEI8AA+nCOaZh8Ph8IWLFi3q8bshW0UikUOVUjcCmOV3W9BbCPw9lUrdvH0hEIlEfqWUuozjJEPHT8Cxt/0GBaVswwhySk97G1656ofYvOYzljyl1N8dx/kmS5hh5KBMLQCA3nUCrgdwA3xasCgHuEqpnzqOc6vfDdmZTCwEXNe9KR6PrxBC7I3eOf/at+ulFZWYfs+DeTfaf3d1NG/ES5d+n2uKoHJd95B4PP4+R5hh5JpMLgAAAJFI5Dil1GMAKv1uS5ZpAnC2lHK+3w3pj0wsBJRSo4joGN0wCgRw/J335s08f10bVizFq1f/D9diQS9JKWdwBBlGrsn4O+tEIrG2tLT0z0S0H4DxfrcnGxDR+67rnuA4ziK/29JfiUQilkgkHisvL5+H3mLP7yWGJxFRNUfY/t//IaqOOo4jKi+UjKqAVVCAxo8+4IgbW15e/lYikVjLEWYYuSTjCwAAaG1tbU8kEo+HQiEXwFHwYBOhHNED4OZwOPzdzz77LO0j/Tn0FQJ/KS8vnw8giiwv+sQhR+DAiy7P3eV9PTJyn33RvGolWmWMI25sIpHwZOMmw8hmWfetFIlEDlNKPYA0rheQJZYCOFdKyTaMOhP0vd83Apjpd1t2V2H5YJz04F8wqHyw303JSl1bNuNf3/8Wyy6CrusebMYCGMbnZUUPwLYSiURs9OjRD3Z2dqYAHAog6HebfNamlJozbNiw79bW1tp+N4ZbX4/Ao309AlUAxvndpv468KLLMXLSfn43I2sFi4pQUFoG5z39Rf2IqDSRSDzN0CzDyBlZ1wOwrUgkEgXwc6XU2cjyf8sAvaCU+h/Hcdb53ZB06esRuA4ebiDFYdiEiZj+q/tBlnlapUO5Ll6+4kJs/GSFblQPEY21bZvlmYJh5IKs6wHYViKRaEkkEs+UlZW9QkTjAezhd5vS5FUA50gpb2ttbfV1YZ902zpGIBQKLUCG9giQFcBRc25H8fARfjcl6xERhozbE2vn/ROaG2UElFIdra2tr3C1zTCyXU7cnjiO86aU8igAJwD4t9/t8dAblmUdK6U8Tkr5lt+N8ZOU8m0p5Uz0Lhu9wO/2bKt6xokYMm5Pv5uRM4btuTf2OFZ/Jh8RnYX87Ck0jB3KyQ9DJBI5DMCVSqmvIvuLnB4ATxHRPbZtL/S7MZlKCHEEgBsB+Drnm6wATnrwcZSJqJ/NyDktDesw94KzoVztJbWn5XvxbBhbZfUjgJ3p6yb+aygU+j8ACfR2E5f726rdtg7AbyzL+rZt239MJBLm2eWXSCQSDYlE4pFQKPQSfHw0MPro6Rh34ml+nDqnDRo8BFvWrUXLOu3p/F2JROKfHG0yjGyXkz0AOxAQQhwL4AwAXwMw3Of27EwzgKeUUo84jvMWAK2Hnvmsr0dgNoDpaTspEWbd+2cMrh6btlPmk821qzHvh+fqjgXYEA6HRSbti2EYfsmXAuA/ampqCuLx+DSl1Cz0Lju7r89NWgrgXwD+KaV8BwDL+qdGr3QWAuGph+KoW+70+jR57fWfXI74ove0MizLOjYWi73G0yLDyF55N4e+r/J/pe/P1RUVFaMsyzoCwJFEdDB6CwKvVm7ZjN4L/tsA3nFd9514PN7k0bkMAFLKfwOYIYQ4Er1jBDwrBKpnnORVtNGnevqJ2gWAUmoGgNdYGmQYWSzvegD6IxwO7wFgomVZY5RSY9D7TLkCvY8OhgMoQW/xFOo7ZBMAENEmAO1KKYeI4kqpOIB1RPSJZVkrGxoaZNr/Mcbn9BUCswEcz5lbUFKKrzzxPAKFgzhjje2kujrx3H+fhp62tgFnENH7tm0fzNgsw8hKpgAw8pIQ4nAA14JpQaFxJ56GqZf+mCPK2IX37vo51s7XGsfnAqiQUm5gapJhZKVsnyJnGAPSt47AqQCmAdCeXrnHcVm3VUHWqj5ee8doi2ObZ8PIdqYAMPJa35zweToZBSUlGL7PZKYWGbsyYvJ+KCgp0cpQStUwNccwspYpAAwDmKpz8Mh9D4AVyLvxtL6xAkGMmDRFN+ZAjrYYRjYzBYBhAFp3gxX7m5vJdKuYov2amwLAyHumADDy2qhRoyoAVGpl7GeuJek2an/t13xE326ihpG3TAFg5LVAILCXzvEFpaUYPCbjNiTMeUPG7olgcbFWhuu6ZuCGkddMAWDkNSLS2rYvFB0NsszHKN3IshCKjNaN0Q4wjGxmvrmMvEZE43WOZ7gIGQMUimq/9lUc7TCMbGUKACPfaV0Eyqv24GqHsZvKNQsAIjIFgJHXTAFg5DWlVIXO8Qx3ocYAharMIwDD0GEKACPfjdI5uHj4CK52GLupZITWWwcA5s0z8popAIx8p3URKCgp5WqHsZsYXnu95QQNI8uZAsDId1pzyYLF5hril4DmNECYAsDIc6YAMPJdkc7BumvSGwNnegAMQ48pAIx8N0jnYNMD4J8C/dfevHlGXjMFgGEY+Yr8boBh+MkUAEa+69Y5ONnRztUOYzf16L/2XRztMIxsZQoAI99pFQA97aYA8EtPe5tuhCkAjLxmCgAj32ldRUwPgH9SHR26EebNM/KaKQCMvEZEzTrHM9yFGgPUrf/aa733hpHtTAFg5DXXdTfoHN+xoYmrKcZu6mhq1I0wb56R10wBYOQ1ItK6CCRi9VxNMXZTItagG6FV/BlGtjMFgJHvtK7gLaYA8E1LwzrdCO0Aw8hmpgAw8p3WRSARM9cQv+j2vhDRWqamGEZWMgWAkdeIqFbn+ESsHsp1uZpj9JNyXSSk3iMA13XreFpjGNnJFABGXksmkx/rHN/T3o4ta9dwNcfop01rViGpOQ3QsqzlTM0xjKxkCgAjrzU2NtYBaNHKWLKIpzFGv61f8qFuxGbbtm2OthhGtjIFgJHvFIBlOgGNi00BkG4MBcAy9L73hpG3TAFg5D0iel/n+A3LF0OlUlzNMXbBTSWxYcUS3Zh3OdpiGNnMFACGAfxb5+Ce9nZsWLGUqy3GLjQtW6y9B4NS6m2m5hhG1jIFgJH3gsGgVgEAAGtfnsvRFKMf1r08TzdCua6r/Z4bRrYzBYCR99atW+fg/7V3t8FRXXUYwJ9zN8Fs0osJIGl2N4FqBwRabUvpiECBkVY62lHGD3YGtONgHb/4MsqoFQekLdXRVj+oY2un4sDIlKqlRQbSSJpASICUyEiApLQJSXbvzS7k/Sa7geTe44ekIyMNL73nZndvnt+nfMlz/js7u/e/59x7DtDsJiN2tAr25WFFFdFE7MvDiNVWu41pTCQSFxWUQ5TV2AAQAZBSHnTz/yNDQzCOH1VVDk0gVntYxRHMrt5rIr9gA0AEQAjh+qJwoeKAilLoOtoOub92a5rG9RoisAEgAgCUlJRUw+XxsPF/13NTIA/1tb6H+KmTbmO6YrEYp2qIwAaACADQ0NAwAuANVyFS4twrO9UURNc4u3sHIN09ui+EeA3AqJqKiLIbGwCicVLKPW4zojVVPCLYAwMdbTDqjqiIcv0eE/kFGwCicZ2dnZUAXG0PKx0bTXt2KaqI3te0Z6eKQ5eihmEcVlEPkR+wASD6n1Ep5Q63IW2V5eg536SiHgLQ824z2qsOqYj6MwBu2Ug0jg0A0VWklC8DcPVTUzoOGv7wGx4TrIB0HDT87teQjuvrto2xBoCIxrEBILpKPB5vA7DPbU7PO+fQWv5P9wVNcS0HXkfPeVd7NAEApJR7TdPkzRlEV2EDQHSt51WEnN7xAi7396mImpKG+3rR+Jc/KcnSNE3Je0rkJ2wAiP6PaZpHARx3m3PFGsCJ57e7fnRtKpKOg/rnnsGVQUtFXI1hGK7fTyK/CaS7AKJMVFBQYAoh1rvNGTSiyAkGMWvh3SrKmjKa9uxEywF32zK8Twix0bKsC0rCiHyEMwBEHyAejx8EoOTB88YdL/C44FvQ3XwWZ3a9rCruqGEYlarCiPyEDQDRBBzH2aIkx7Zx7JdbkerpVhHna6meLtQ+vRnSVvK0ngTwExVBRH7EJQCiCQwODrbruj4fgOv5+5HkEOINJzBn9cMITJumoDr/GRkaQvVPv49BI6oq8lXTNH+rKozIb9gAEF1HXl5ebSAQ+CaAPLdZl/t60dV8FmUr10AL8KN3NWd0FEe3/Rjd586oikw5jrNucHCQj2EQTYDfQkTXkUwmB3VdTwF4REleIo6BaDtKl6+CEFyBA8a2Tz72i63orK9TlimEeKqzs9P1fg5EfsYGgOgGLMs6qev6owBKVOQNdLSh70ILwktXQAvkqIjMWs7ICI7/ahtiNVXKMoUQZwoLCx+/dOkSt/0lug42AEQ3JqdPn34awDcACBWBVrQdXecaEfnsyil7T8BIcgg1Wzahs/6YylhbCLGupaWlXWUokR+xASC6CZZlxXRdDwBYqSpzKNEJs74W4aUrkJtfoCo2K6R6ulH95PfQ3XxWaa4QYqthGLuVhhL5FBsAoptkWdYRXdeXAfi4qszLfb3oOFKJGfMXomB2sarYjNZzvglHNv8AVlT5j/Qq0zS/hbHH/4joBtgAEN08GQwGKzRNWw9AVxU6mkyivbIcUjr42F33QAglqwyZR0qcf+NvqHt2C65YA6rTE7m5uQ/39/crDybyKzYARLdgaGhoSNf1/wDYAEX3AwCAlBKXTp9Cz/lm3L74AeTkuX7qMKMM9/WibvvP8O6+f3hxNoIthPhSNBptVB1M5GdsAIhukWVZrbquawBWqc4eNGNofXM/cgtuQ9Gd87J+NkA6DloOvI7ap55Ef1urJ2OMr/vv9CScyMey+9uFKH1EKBR6CcBGrwYounM+7v/OJsyYv9CrITzV+947aPj988pv9LuaEGKXYRiPg+v+RLeMDQDRh5cTCoX2AviiVwMILYA5qx/Cgse+jumlc7waRqmBjjY0vboL7W9VQDqOl0PtM03zKwBGvRyEyK/YABC5EIlEgo7jVABY7uU4QtNQsuQzWLR+I2bM+6SXQ31o/W2taP77X9H+1r8gHc/34Dlu2/aaRCIx5PVARH7FBoDIpUgkMsNxnCMAFnk+mBC4/b4lmLvmEUSWrURg2kc8H/J67MvDiNUeRtuhg4ifOunFDX7XEEKcCQQCD3Z0dPR6PhiRj7EBIFKgtLQ0ZNt2BSajCRiXW1CAyLJVmPu5tZh116cmbVthadu42HgKbYfKYdQdxkgyOSnjAmMXf03TPh+NRs1JG5TIp9gAEClSVlZWNDo6ug8eLwd8kJy8IGYuWITie5eg+N77UfSJeRCamsOGpONgINqGrrONSJx6G/GGeowk0zLzfkII8QXDMLrTMTiR37ABIFIoFArlA3gFwKPprCMnGIQeLoMeKcP0SBn00jLkz5qNnGA+coJBTLtNR04wHwAwmkriyqCF0VQKI6kkUl0XYUU7MBBth2VEYRkdGE2l0vlyAGCfpmmPxWKxtBdC5BdsAIjUC4RCoT8CeCLdhfiBlHJnZ2fnRvBufyKluBEQkXrSsqz9uq47AB4EoGYufuqxhRBbTdP8IQBPnyckmoo4A0DkoUgksspxnN0AStJdS5a5COBrpmlWpLsQIr/iLxMiD8VisWrHcT4N4M1015JFqnJzc+/hxZ/IW5wBIJocIhQK/QjAdnDpbSI2gGdM03x6/G8i8hAbAKJJFA6Hl0opX8Ik7heQDYQQZwA8YRjG8XTXQjRVcAmAaBIZhnGsqKjoPgA/BzCc5nIyQUoIsaWwsHAxL/5Ek4szAERpEg6HIwCelVJuwNT8LO63bfu7iUTiQroLIZqKpuKXDlFGKSkpWSGE2A5gRbprmQxCiMNSys2madamuxaiqYwNAFGGCIVCDwHYCmBZumvxSI0QYpthGJXpLoSI2AAQZZxwOLwUwCYp5ZeR/ffpOEKIvQCe4xo/UWZhA0CUoSKRSNhxnA0Avg1gbprLuVUmgF22bb/INX6izMQGgCjzBUKh0GoAXwWwDsDMNNczkW4Arwkh9hiGUQ0+y0+U0dgAEGWRxYsX58bj8RVSyrUA1gK4O80lnQZQLoQoNwyjBjywhyhrsAEgymLFxcWzNU1bBmC5EOIBjDUEH/VouD4AjVLKt4UQNbZt1yUSiYsejUVEHmMDQOQzJSUlcwAs0DTtDinlHQBKARRjbOlgJoB8ADkA9PF/sTD2yz2JsWn8bgAJAFEhxAXHcVqFEE2maXZM8kshIiIiIiIiIiIiIiIiIiIiIiIiIiIiIiIiIiIiIiIiIiIiIiIiIiIiIiIiIiIiIiIiIiIiIiIiIiIiIiIiIiIiIppU/wVwOICzRGGbSgAAAABJRU5ErkJggg==;" vertex="1" parent="1">
          <mxGeometry x="1175.23" y="580" width="52" height="52" as="geometry" />
        </mxCell>
        <mxCell id="eu59SZ70gWTmcf9u2YT1-46" value="&lt;b&gt;Machine Learning&lt;/b&gt;" style="text;html=1;align=center;verticalAlign=middle;whiteSpace=wrap;rounded=0;" vertex="1" parent="1">
          <mxGeometry x="1151.23" y="640" width="108.77" height="30" as="geometry" />
        </mxCell>
        <mxCell id="eu59SZ70gWTmcf9u2YT1-47" value="High Level Architecture" style="text;html=1;align=left;verticalAlign=middle;whiteSpace=wrap;rounded=0;fontSize=26;fontStyle=1" vertex="1" parent="1">
          <mxGeometry x="30" y="40" width="300" height="30" as="geometry" />
        </mxCell>
      </root>
    </mxGraphModel>
  </diagram>
</mxfile>
